<svg width="188" height="60" viewBox="0 0 188 60" fill="none" xmlns="http://www.w3.org/2000/svg">
<path d="M186.044 43.8651C186.21 44.2715 186.466 44.6478 186.812 44.9939C187.173 45.3251 187.354 45.596 187.354 45.8067V45.897C187.354 46.183 187.173 46.3259 186.812 46.3259H180.965C180.619 46.3259 180.445 46.183 180.445 45.897V45.8067C180.445 45.6411 180.551 45.468 180.762 45.2874C180.987 45.0918 181.175 44.8811 181.326 44.6553C181.491 44.4295 181.522 44.1661 181.416 43.8651L180.92 42.4654H175.185L174.689 43.8651C174.583 44.1661 174.606 44.4295 174.756 44.6553C174.922 44.8811 175.11 45.0918 175.321 45.2874C175.546 45.468 175.659 45.6411 175.659 45.8067V45.897C175.659 46.183 175.479 46.3259 175.117 46.3259H171.776C171.415 46.3259 171.234 46.183 171.234 45.897V45.8067C171.234 45.611 171.407 45.3401 171.754 44.9939C172.115 44.6478 172.378 44.2715 172.544 43.8651L176.766 32.9383C176.871 32.6824 176.848 32.419 176.698 32.1481C176.562 31.8772 176.397 31.6213 176.201 31.3805C176.021 31.1397 175.93 30.9516 175.93 30.8161V30.7258C175.93 30.4399 176.103 30.2969 176.449 30.2969H179.339C180.077 30.2969 180.596 30.6581 180.897 31.3805L186.044 43.8651ZM175.795 40.7722H180.31L178.052 34.4735L175.795 40.7722Z" fill="#628511"/>
<path d="M166.353 32.7577C166.353 32.3814 166.203 32.0127 165.902 31.6514C165.601 31.2752 165.45 30.9967 165.45 30.8161V30.7258C165.45 30.4399 165.631 30.2969 165.992 30.2969H170.959C171.305 30.2969 171.478 30.4399 171.478 30.7258V30.8161C171.478 30.9967 171.312 31.2752 170.981 31.6514C170.65 32.0127 170.485 32.3814 170.485 32.7577V39.1467C170.485 41.7505 170.003 43.6318 169.04 44.7908C168.077 45.9346 166.669 46.5216 164.818 46.5517C163.78 46.5667 162.876 46.4388 162.109 46.1679C161.356 45.897 160.792 45.5433 160.416 45.1068C160.039 44.6704 159.761 44.2339 159.58 43.7974C159.415 43.3459 159.332 42.8944 159.332 42.4428C159.332 41.8408 159.498 41.3592 159.829 40.998C160.16 40.6367 160.604 40.4561 161.161 40.4561C161.718 40.4561 162.162 40.6142 162.493 40.9302C162.824 41.2313 163.05 41.6075 163.17 42.059C163.305 42.4955 163.426 42.932 163.531 43.3685C163.637 43.8049 163.802 44.1812 164.028 44.4973C164.254 44.7983 164.57 44.9488 164.976 44.9488C165.894 44.9488 166.353 43.8501 166.353 41.6527V32.7577Z" fill="#628511"/>
<path d="M158.046 30.2969C158.407 30.2969 158.588 30.4399 158.588 30.7258V30.8161C158.588 30.9967 158.415 31.2752 158.069 31.6514C157.738 32.0127 157.572 32.3814 157.572 32.7577V45.2649C157.572 45.9722 157.226 46.3259 156.534 46.3259H155.247C154.825 46.3259 154.434 46.0776 154.073 45.5809L146.013 34.8798V43.8426C146.013 44.2188 146.186 44.5951 146.532 44.9714C146.893 45.3476 147.074 45.6261 147.074 45.8067V45.897C147.074 46.183 146.886 46.3259 146.51 46.3259H143.62C143.259 46.3259 143.078 46.183 143.078 45.897V45.8067C143.078 45.6261 143.229 45.3476 143.53 44.9714C143.831 44.5951 143.981 44.2188 143.981 43.8426V32.7803C143.981 32.404 143.831 32.0277 143.53 31.6514C143.229 31.2752 143.078 30.9967 143.078 30.8161V30.7258C143.078 30.4399 143.259 30.2969 143.62 30.2969H146.984C147.45 30.2969 147.857 30.5377 148.203 31.0193L155.54 41.2237V32.7577C155.54 32.3814 155.375 32.0127 155.043 31.6514C154.712 31.2752 154.547 30.9967 154.547 30.8161V30.7258C154.547 30.4399 154.727 30.2969 155.089 30.2969H158.046Z" fill="#628511"/>
<path d="M141.025 43.8651C141.19 44.2715 141.446 44.6478 141.792 44.9939C142.154 45.3251 142.334 45.596 142.334 45.8067V45.897C142.334 46.183 142.154 46.3259 141.792 46.3259H135.945C135.599 46.3259 135.426 46.183 135.426 45.897V45.8067C135.426 45.6411 135.531 45.468 135.742 45.2874C135.968 45.0918 136.156 44.8811 136.306 44.6553C136.472 44.4295 136.502 44.1661 136.397 43.8651L135.9 42.4654H130.166L129.669 43.8651C129.564 44.1661 129.586 44.4295 129.737 44.6553C129.902 44.8811 130.09 45.0918 130.301 45.2874C130.527 45.468 130.64 45.6411 130.64 45.8067V45.897C130.64 46.183 130.459 46.3259 130.098 46.3259H126.757C126.395 46.3259 126.215 46.183 126.215 45.897V45.8067C126.215 45.611 126.388 45.3401 126.734 44.9939C127.095 44.6478 127.359 44.2715 127.524 43.8651L131.746 32.9383C131.851 32.6824 131.829 32.419 131.678 32.1481C131.543 31.8772 131.377 31.6213 131.182 31.3805C131.001 31.1397 130.911 30.9516 130.911 30.8161V30.7258C130.911 30.4399 131.084 30.2969 131.43 30.2969H134.32C135.057 30.2969 135.576 30.6581 135.877 31.3805L141.025 43.8651ZM130.775 40.7722H135.29L133.033 34.4735L130.775 40.7722Z" fill="#628511"/>
<path d="M125.057 43.8426C125.132 44.2188 125.306 44.5951 125.576 44.9714C125.847 45.3326 125.983 45.611 125.983 45.8067V45.897C125.983 46.183 125.802 46.3259 125.441 46.3259H120.745C120.384 46.3259 120.203 46.183 120.203 45.897V45.8067C120.203 45.6562 120.354 45.3928 120.655 45.0165C120.956 44.6252 121.069 44.2339 120.994 43.8426L119.639 35.9635L116.185 45.6486C116.034 46.0851 115.763 46.3034 115.372 46.3034C114.936 46.3034 114.62 46.0926 114.424 45.6712L110.473 35.6023L109.254 43.8426C109.194 44.2339 109.314 44.6177 109.615 44.9939C109.916 45.3702 110.067 45.6411 110.067 45.8067V45.897C110.067 46.183 109.886 46.3259 109.525 46.3259H106.725C106.364 46.3259 106.184 46.183 106.184 45.897V45.8067C106.184 45.611 106.319 45.3326 106.59 44.9714C106.876 44.5951 107.049 44.2188 107.109 43.8426L108.825 32.7803C108.885 32.3889 108.75 32.0051 108.419 31.6289C108.103 31.2526 107.945 30.9817 107.945 30.8161V30.7258C107.945 30.4399 108.118 30.2969 108.464 30.2969H111.444C112.061 30.2969 112.467 30.5678 112.663 31.1096L115.936 40.6819L119.097 31.1548C119.308 30.5828 119.699 30.2969 120.271 30.2969H123.341C123.688 30.2969 123.861 30.4399 123.861 30.7258V30.8161C123.861 30.9666 123.695 31.2375 123.364 31.6289C123.033 32.0202 122.905 32.419 122.98 32.8254L125.057 43.8426Z" fill="#628511"/>
<path d="M104.148 43.8651C104.359 44.1962 104.615 44.4897 104.916 44.7456C105.232 44.9864 105.473 45.1821 105.638 45.3326C105.804 45.468 105.886 45.6261 105.886 45.8067V45.897C105.886 46.183 105.706 46.3259 105.345 46.3259H99.836C99.4748 46.3259 99.2942 46.183 99.2942 45.897V45.8067C99.2942 45.6562 99.3845 45.4831 99.5651 45.2874C99.7457 45.0767 99.8736 44.8886 99.9489 44.723C100.039 44.5575 100.009 44.2715 99.8586 43.8651L97.9396 40.2981L95.8626 40.3433V43.8651C95.8626 44.2414 96.0282 44.6177 96.3593 44.9939C96.7054 45.3552 96.8785 45.6261 96.8785 45.8067V45.897C96.8785 46.183 96.6979 46.3259 96.3367 46.3259H91.37C91.0087 46.3259 90.8281 46.183 90.8281 45.897V45.8067C90.8281 45.6261 90.9786 45.3552 91.2796 44.9939C91.5807 44.6177 91.7312 44.2414 91.7312 43.8651V32.7577C91.7312 32.3814 91.5807 32.0127 91.2796 31.6514C90.9786 31.2752 90.8281 30.9967 90.8281 30.8161V30.7258C90.8281 30.4399 91.0087 30.2969 91.37 30.2969H97.4429C99.55 30.2969 101.213 30.7333 102.432 31.6063C103.651 32.4792 104.268 33.7435 104.284 35.3991C104.284 36.257 104.043 37.0697 103.561 37.8373C103.079 38.6049 102.38 39.2069 101.461 39.6434L104.148 43.8651ZM95.8626 37.002C95.8626 37.6341 95.9755 38.0856 96.2012 38.3566C96.4421 38.6124 96.8033 38.7403 97.2849 38.7403H97.9622C98.5642 38.7403 99.0534 38.4995 99.4296 38.0179C99.821 37.5363 100.017 36.8063 100.017 35.828C100.017 34.6691 99.7156 33.7209 99.1136 32.9834C98.5266 32.2459 97.8644 31.8772 97.1269 31.8772H96.7205C96.4646 31.8772 96.2539 31.9901 96.0884 32.2158C95.9379 32.4266 95.8626 32.705 95.8626 33.0512V37.002Z" fill="#628511"/>
<path d="M89.207 41.743C89.6586 41.743 89.8316 41.9537 89.7263 42.3751L89.0264 45.7841C88.9211 46.1453 88.7329 46.3259 88.462 46.3259H76.587C76.4365 46.3259 76.301 46.2733 76.1806 46.1679C76.0602 46.0625 76 45.9346 76 45.7841V45.4906C76 45.4003 76.0226 45.3025 76.0677 45.1971C76.1279 45.0918 76.2032 44.9714 76.2935 44.8359C76.3838 44.7005 76.444 44.6101 76.4741 44.565L84.2177 31.8546H79.996C79.71 31.8546 79.424 32.0051 79.1381 32.3061C78.8672 32.5921 78.6339 32.9082 78.4382 33.2543C78.2426 33.6005 77.9942 33.9241 77.6932 34.2251C77.4072 34.5111 77.1138 34.6541 76.8127 34.6541H76.6773C76.1355 34.6541 75.9323 34.3756 76.0677 33.8188L76.6999 30.9967C76.7601 30.7409 76.8428 30.5603 76.9482 30.4549C77.0686 30.3496 77.2492 30.2969 77.49 30.2969H88.6878C88.8383 30.2969 88.9662 30.3496 89.0716 30.4549C89.1769 30.5603 89.2296 30.6882 89.2296 30.8387V31.1322C89.2296 31.2074 89.034 31.5912 88.6426 32.2836L81.1474 44.7682H85.4368C85.8281 44.7682 86.2044 44.6101 86.5656 44.2941C86.9269 43.978 87.2279 43.6318 87.4687 43.2556C87.7095 42.8793 87.9804 42.5331 88.2814 42.2171C88.5824 41.901 88.8609 41.743 89.1167 41.743H89.207Z" fill="#628511"/>
<path d="M177.512 24.458C175.946 24.458 174.524 24.0667 173.245 23.284C171.98 22.5014 171.01 21.4855 170.332 20.2363C169.655 18.9871 169.316 17.6551 169.316 16.2403C169.316 14.9911 169.527 13.8397 169.949 12.7861C170.385 11.7326 170.957 10.8672 171.664 10.1899C172.387 9.49755 173.2 8.96325 174.103 8.58698C175.021 8.19566 175.969 8 176.947 8C178.844 8 180.424 8.40637 181.688 9.21911C182.952 10.0319 183.585 11.0177 183.585 12.1766C183.585 12.7335 183.419 13.1775 183.088 13.5086C182.757 13.8397 182.32 14.0053 181.778 14.0053C181.237 14.0053 180.747 13.8547 180.311 13.5537C179.875 13.2527 179.498 12.8915 179.182 12.4701C178.866 12.0336 178.558 11.5971 178.257 11.1607C177.971 10.7242 177.624 10.3554 177.218 10.0544C176.827 9.75341 176.398 9.60291 175.931 9.60291C175.134 9.60291 174.494 9.97165 174.012 10.7091C173.531 11.4466 173.29 12.3948 173.29 13.5537C173.29 15.7812 173.794 17.6927 174.802 19.2881C175.811 20.8834 177.015 21.6811 178.415 21.6811C178.926 21.6811 179.355 21.6059 179.701 21.4554V18.4979C179.701 18.1066 179.491 17.7303 179.069 17.3691C178.648 17.0079 178.437 16.737 178.437 16.5564V16.4661C178.437 16.3306 178.49 16.2252 178.595 16.15C178.716 16.0597 178.859 16.0145 179.024 16.0145L184.059 16.0371C184.42 16.0371 184.6 16.1876 184.6 16.4886V16.5789C184.6 16.7595 184.42 17.0305 184.059 17.3917C183.697 17.7529 183.517 18.1292 183.517 18.5205V21.1393C183.517 21.7714 183.201 22.3358 182.569 22.8325C181.199 23.9162 179.513 24.458 177.512 24.458Z" fill="#628511"/>
<path d="M167.605 8.20312C167.966 8.20312 168.147 8.34611 168.147 8.63207V8.72238C168.147 8.90299 167.973 9.18142 167.627 9.55769C167.296 9.91891 167.131 10.2877 167.131 10.6639V23.1711C167.131 23.8785 166.784 24.2322 166.092 24.2322H164.805C164.384 24.2322 163.993 23.9838 163.631 23.4872L155.572 12.7861V21.7488C155.572 22.1251 155.745 22.5013 156.091 22.8776C156.452 23.2539 156.633 23.5323 156.633 23.7129V23.8032C156.633 24.0892 156.445 24.2322 156.068 24.2322H153.179C152.817 24.2322 152.637 24.0892 152.637 23.8032V23.7129C152.637 23.5323 152.787 23.2539 153.088 22.8776C153.389 22.5013 153.54 22.1251 153.54 21.7488V10.6865C153.54 10.3102 153.389 9.93396 153.088 9.55769C152.787 9.18142 152.637 8.90299 152.637 8.72238V8.63207C152.637 8.34611 152.817 8.20312 153.179 8.20312H156.542C157.009 8.20312 157.415 8.44394 157.762 8.92556L165.099 19.13V10.6639C165.099 10.2877 164.933 9.91891 164.602 9.55769C164.271 9.18142 164.105 8.90299 164.105 8.72238V8.63207C164.105 8.34611 164.286 8.20312 164.647 8.20312H167.605Z" fill="#628511"/>
<path d="M144.809 23.8032V23.7129C144.809 23.5323 144.959 23.2614 145.26 22.9002C145.561 22.5239 145.712 22.1477 145.712 21.7714V10.6639C145.712 10.2877 145.561 9.91891 145.26 9.55769C144.959 9.18142 144.809 8.90299 144.809 8.72238V8.63207C144.809 8.34611 144.989 8.20312 145.35 8.20312H150.249C150.611 8.20312 150.791 8.34611 150.791 8.63207V8.72238C150.791 8.90299 150.626 9.18142 150.295 9.55769C149.963 9.91891 149.798 10.2877 149.798 10.6639V21.7714C149.798 22.1477 149.963 22.5239 150.295 22.9002C150.626 23.2614 150.791 23.5323 150.791 23.7129V23.8032C150.791 24.0892 150.611 24.2322 150.249 24.2322H145.35C144.989 24.2322 144.809 24.0892 144.809 23.8032Z" fill="#628511"/>
<path d="M130.757 24.2322C130.395 24.2322 130.215 24.0892 130.215 23.8032V23.7129C130.215 23.5323 130.365 23.2614 130.666 22.9002C130.967 22.5239 131.118 22.1477 131.118 21.7714V10.6639C131.118 10.2877 130.967 9.91891 130.666 9.55769C130.365 9.18142 130.215 8.90299 130.215 8.72238V8.63207C130.215 8.34611 130.395 8.20312 130.757 8.20312H136.378C138.56 8.20312 140.306 8.6396 141.616 9.51254C142.925 10.3855 143.58 11.7325 143.58 13.5537C143.58 15.2544 142.993 16.6165 141.819 17.64C140.645 18.6484 139.08 19.1526 137.123 19.1526H135.249V21.7714C135.249 22.1477 135.415 22.5239 135.746 22.9002C136.092 23.2614 136.265 23.5323 136.265 23.7129V23.8032C136.265 24.0892 136.085 24.2322 135.723 24.2322H130.757ZM136.288 17.5722H137.123C137.831 17.5722 138.372 17.2787 138.749 16.6918C139.14 16.1048 139.336 15.3748 139.336 14.5019C139.336 13.1021 139.027 11.9658 138.41 11.0929C137.808 10.2049 137.131 9.76088 136.378 9.76088H136.062C135.52 9.76088 135.249 10.1221 135.249 10.8445V16.4886C135.249 17.211 135.595 17.5722 136.288 17.5722Z" fill="#628511"/>
<path d="M128.131 21.7488C128.207 22.1251 128.38 22.5013 128.651 22.8776C128.922 23.2388 129.057 23.5173 129.057 23.7129V23.8032C129.057 24.0892 128.876 24.2322 128.515 24.2322H123.819C123.458 24.2322 123.278 24.0892 123.278 23.8032V23.7129C123.278 23.5624 123.428 23.299 123.729 22.9228C124.03 22.5314 124.143 22.1401 124.068 21.7488L122.713 13.8697L119.259 23.5549C119.109 23.9914 118.838 24.2096 118.446 24.2096C118.01 24.2096 117.694 23.9989 117.498 23.5775L113.547 13.5085L112.328 21.7488C112.268 22.1401 112.388 22.5239 112.689 22.9002C112.99 23.2765 113.141 23.5474 113.141 23.7129V23.8032C113.141 24.0892 112.96 24.2322 112.599 24.2322H109.8C109.438 24.2322 109.258 24.0892 109.258 23.8032V23.7129C109.258 23.5173 109.393 23.2388 109.664 22.8776C109.95 22.5013 110.123 22.1251 110.183 21.7488L111.899 10.6865C111.959 10.2952 111.824 9.91139 111.493 9.53512C111.177 9.15885 111.019 8.88793 111.019 8.72238V8.63207C111.019 8.34611 111.192 8.20312 111.538 8.20312H114.518C115.135 8.20312 115.542 8.47404 115.737 9.01587L119.011 18.5881L122.171 9.06102C122.382 8.48909 122.773 8.20312 123.345 8.20312H126.416C126.762 8.20312 126.935 8.34611 126.935 8.63207V8.72238C126.935 8.87288 126.769 9.1438 126.438 9.53512C126.107 9.92644 125.979 10.3253 126.054 10.7317L128.131 21.7488Z" fill="#628511"/>
<path d="M107.677 21.7714C107.843 22.1778 108.099 22.554 108.445 22.9002C108.806 23.2313 108.987 23.5022 108.987 23.7129V23.8032C108.987 24.0892 108.806 24.2322 108.445 24.2322H102.598C102.251 24.2322 102.078 24.0892 102.078 23.8032V23.7129C102.078 23.5474 102.184 23.3743 102.394 23.1937C102.62 22.998 102.808 22.7873 102.959 22.5616C103.124 22.3358 103.154 22.0724 103.049 21.7714L102.552 20.3717H96.818L96.3213 21.7714C96.216 22.0724 96.2386 22.3358 96.3891 22.5616C96.5546 22.7873 96.7428 22.998 96.9535 23.1937C97.1792 23.3743 97.2921 23.5474 97.2921 23.7129V23.8032C97.2921 24.0892 97.1115 24.2322 96.7503 24.2322H93.409C93.0478 24.2322 92.8672 24.0892 92.8672 23.8032V23.7129C92.8672 23.5173 93.0403 23.2464 93.3864 22.9002C93.7477 22.554 94.011 22.1778 94.1766 21.7714L98.3983 10.8445C98.5037 10.5887 98.4811 10.3253 98.3306 10.0544C98.1952 9.78346 98.0296 9.52759 97.8339 9.28678C97.6533 9.04597 97.563 8.85783 97.563 8.72238V8.63207C97.563 8.34611 97.7361 8.20312 98.0823 8.20312H100.972C101.71 8.20312 102.229 8.56434 102.53 9.28678L107.677 21.7714ZM97.4276 18.6785H101.943L99.6852 12.3797L97.4276 18.6785Z" fill="#628511"/>
<path d="M86.2046 24.458C84.0071 24.458 82.1634 23.6152 80.6734 21.9295C79.1984 20.2438 78.4609 18.2721 78.4609 16.0145C78.4609 13.6967 79.1533 11.7853 80.5379 10.2802C81.9226 8.76006 83.7362 8 85.9788 8C87.7548 8 89.29 8.42895 90.5843 9.28684C91.8787 10.1297 92.5259 11.1381 92.5259 12.312C92.5259 12.8388 92.3528 13.2678 92.0066 13.5989C91.6755 13.93 91.224 14.0956 90.6521 14.0956C90.1403 14.0956 89.6813 13.945 89.2749 13.644C88.8685 13.328 88.5299 12.9517 88.259 12.5152C88.0031 12.0788 87.7397 11.6423 87.4688 11.2058C87.1979 10.7543 86.8668 10.378 86.4755 10.077C86.0992 9.76094 85.6627 9.60291 85.1661 9.60291C84.4135 9.60291 83.7663 9.9566 83.2245 10.664C82.6977 11.3714 82.4343 12.3271 82.4343 13.5312C82.4343 15.6533 82.9461 17.3992 83.9695 18.7688C84.993 20.1234 86.1745 20.8007 87.514 20.8007C88.0106 20.8007 88.4622 20.7254 88.8685 20.5749C89.29 20.4244 89.6587 20.2137 89.9748 19.9428C90.3059 19.6568 90.5542 19.4085 90.7198 19.1978C90.9004 18.9871 91.1036 18.7237 91.3293 18.4076C91.54 18.1517 91.8034 18.069 92.1195 18.1593C92.4356 18.2345 92.5861 18.4528 92.571 18.814C92.5108 20.3792 91.9314 21.7112 90.8327 22.8099C89.749 23.9087 88.2063 24.458 86.2046 24.458Z" fill="#628511"/>
<rect width="68" height="59" rx="4" fill="#2FA9DF"/>
<mask id="mask0_15835_17953" style="mask-type:alpha" maskUnits="userSpaceOnUse" x="0" y="0" width="68" height="59">
<rect width="68" height="59" rx="4" fill="#A4CB45"/>
</mask>
<g mask="url(#mask0_15835_17953)">
<path d="M-16.5529 71.3503C-13.0372 70.2227 -9.51048 69.1717 -6.02762 67.9675C9.80952 62.4717 -77.2966 61.81 -10.2544 57.0009L-9.33525 50.6919C-10.1676 49.1373 -11 47.5827 -11.8324 46.0172C-7.93335 42.1526 -4.02332 38.288 -0.124271 34.4235C14.3219 20.1039 58.5 32 54.5 -3.8061C72.2747 -1.15014 70.3795 -10.8467 70.5 -11C77.0933 -11.0219 56.7406 -8.9406 63.2682 -8.82018C66.9702 -8.75449 67.7697 -6.70725 67.8135 -3.8061C67.9011 29.672 68.0106 62.9535 67.9997 96.3331C67.9997 96.4535 67.9997 96.6397 67.9778 97.0009C57.0254 94.0998 45.9634 91.111 35.022 88.2099C19.9296 84.203 4.83713 80.1961 -10.2552 76.2002C-10.7481 76.0688 -13.6505 75.3572 -14.7238 75.1492C-16.6661 74.5288 -18.758 73.8574 -20.9996 73.1348C-19.2253 72.4123 -17.8891 71.8758 -16.5638 71.3284" fill="#628511"/>
</g>
<path d="M58.868 41.8906L46.6179 14.8906C46.4976 14.6255 46.3014 14.4003 46.0531 14.2422C45.8047 14.0841 45.5149 14 45.2188 14H23.7812C23.4851 14 23.1953 14.0841 22.9469 14.2422C22.6986 14.4003 22.5024 14.6255 22.3821 14.8906V14.9131L10.1321 41.8906C10.0284 42.119 9.98465 42.3691 10.0048 42.6183C10.0249 42.8674 10.1082 43.1077 10.2473 43.3173C10.3863 43.5269 10.5765 43.6991 10.8008 43.8183C11.025 43.9375 11.2761 44 11.5312 44H57.4688C57.7239 44 57.975 43.9375 58.1992 43.8183C58.4235 43.6991 58.6137 43.5269 58.7528 43.3173C58.8918 43.1077 58.9751 42.8674 58.9952 42.6183C59.0154 42.3691 58.9716 42.119 58.868 41.8906ZM22.25 41H13.8874L22.25 22.5687V41ZM25.3125 41V22.5687L33.675 41H25.3125Z" fill="white"/>
</svg>
