<svg width="812" height="297" viewBox="0 0 812 297" fill="none" xmlns="http://www.w3.org/2000/svg">
<path d="M0.605469 267.908C0.605469 182.229 0.605469 96.575 0.605469 10.8961C0.732014 5.37169 3.92095 0.582181 11.5137 0.607522C20.8021 0.607522 30.0905 0.607522 39.3789 0.607522C42.4159 5.16896 45.453 9.75573 48.4901 14.3172C58.3606 31.3972 68.0793 48.5786 78.1016 65.5826C90.5031 86.6666 103.132 107.649 115.686 128.657C117.609 132.256 119.532 135.854 121.456 139.478C122.342 140.998 123.202 142.519 124.088 144.014C126.999 149.158 129.909 154.328 132.82 159.472C129.605 160.334 126.771 161.094 123.936 161.854C88.529 169.026 53.1217 176.197 16.6261 183.597C20.473 185.7 23.1052 187.119 25.7373 188.564C30.7232 190.921 35.7091 193.277 40.6949 195.659C71.8756 211.624 103.056 227.64 134.237 243.58C155.775 254.578 177.364 265.525 200.395 277.233C197.585 277.233 196.497 277.233 195.409 277.233C136.287 277.081 68.1299 276.929 8.42595 276.397C4.04749 276.397 0.605469 275.611 0.630778 267.933L0.605469 267.908Z" fill="#A4CB45"/>
<path d="M214.064 26.2274C182.908 52.8104 151.854 79.4695 120.521 106.306C105.235 86.413 90.2519 66.7482 75.0665 47.2607C66.3855 36.1359 57.3502 25.2645 48.4667 14.2917C45.4296 9.73024 42.3925 5.14346 39.3555 0.582031C92.6562 0.582031 114.523 0.911468 167.799 1.08886C183.111 1.19022 228.768 1.06352 243.523 1.29159" fill="#FCBF2A"/>
<path d="M104.729 187.272C112.853 184.661 121.002 182.229 129.051 179.441C165.647 166.72 202.219 153.897 243.599 139.453H121.407C119.484 135.854 117.56 132.256 115.637 128.632C124.647 119.686 133.682 110.741 142.692 101.795C176.075 68.649 209.483 35.2238 242.865 2.07741C243.144 1.77332 243.245 1.64661 243.523 1.29183C258.759 1.24115 274.096 1.41854 289.181 1.69729C297.735 1.84934 299.583 6.58816 299.684 13.3036C299.886 90.7973 300.139 167.835 300.114 245.1C300.114 245.379 300.114 245.81 300.063 246.646C274.754 239.931 249.192 233.013 223.909 226.297C189.033 217.022 154.157 207.747 119.281 198.498C118.142 198.194 111.435 196.547 108.955 196.065C104.467 194.629 99.633 193.075 94.4531 191.402C98.5532 189.73 101.641 188.488 104.703 187.221" fill="#32486F"/>
<path d="M104.73 187.271C101.642 188.513 98.5795 189.78 94.4794 191.453C102.249 193.936 108.981 196.115 115.739 198.269C191.286 222.774 266.834 247.305 344.001 272.342C321.906 294.769 290.042 272.747 269.643 295.251C249.877 286.204 228.136 275.814 206.042 266.184C152.361 242.794 98.4782 219.835 44.6966 196.673C43.4311 196.141 35.0792 192.77 30.7007 190.92C25.7148 188.564 30.7007 190.92 25.7148 188.564C58.4394 179.669 91.1639 170.749 123.914 161.854C126.748 161.094 129.583 160.333 132.797 159.472C129.887 154.328 126.976 149.183 124.066 144.014C153.272 144.014 182.479 144.014 214.925 144.014C176.101 159.269 140.415 173.283 104.755 187.297" fill="#2FA9DF"/>
<path d="M757.767 268.824C758.675 270.251 759.778 271.516 761.076 272.619C762.438 273.657 763.476 274.5 764.19 275.149C764.903 275.733 765.26 276.414 765.26 277.193V277.582C765.26 278.815 764.482 279.431 762.925 279.431H739.18C737.623 279.431 736.844 278.815 736.844 277.582V277.193C736.844 276.544 737.234 275.798 738.012 274.955C738.791 274.046 739.342 273.235 739.667 272.522C740.056 271.808 739.926 270.575 739.277 268.824L731.006 253.448L722.053 253.643V268.824C722.053 270.446 722.766 272.068 724.194 273.689C725.686 275.246 726.432 276.414 726.432 277.193V277.582C726.432 278.815 725.653 279.431 724.096 279.431H702.687C701.13 279.431 700.352 278.815 700.352 277.582V277.193C700.352 276.414 701 275.246 702.298 273.689C703.595 272.068 704.244 270.446 704.244 268.824V220.945C704.244 219.323 703.595 217.734 702.298 216.177C701 214.555 700.352 213.355 700.352 212.576V212.187C700.352 210.954 701.13 210.338 702.687 210.338H728.865C737.947 210.338 745.116 212.219 750.371 215.982C755.626 219.745 758.286 225.195 758.351 232.331C758.351 236.029 757.313 239.532 755.237 242.841C753.161 246.15 750.144 248.745 746.187 250.626L757.767 268.824ZM722.053 239.24C722.053 241.965 722.539 243.911 723.512 245.079C724.55 246.182 726.107 246.733 728.183 246.733H731.103C733.698 246.733 735.806 245.695 737.428 243.619C739.115 241.543 739.958 238.397 739.958 234.18C739.958 229.184 738.661 225.097 736.066 221.918C733.536 218.739 730.681 217.15 727.502 217.15H725.751C724.648 217.15 723.739 217.636 723.026 218.61C722.377 219.518 722.053 220.718 722.053 222.21V239.24Z" fill="#32486F"/>
<path d="M694.412 268.824C695.126 270.575 696.229 272.197 697.721 273.689C699.278 275.117 700.057 276.285 700.057 277.193V277.582C700.057 278.815 699.278 279.431 697.721 279.431H672.517C671.025 279.431 670.278 278.815 670.278 277.582V277.193C670.278 276.479 670.733 275.733 671.641 274.955C672.614 274.111 673.425 273.203 674.074 272.23C674.787 271.257 674.917 270.121 674.463 268.824L672.322 262.79H647.604L645.463 268.824C645.009 270.121 645.106 271.257 645.755 272.23C646.469 273.203 647.28 274.111 648.188 274.955C649.161 275.733 649.648 276.479 649.648 277.193V277.582C649.648 278.815 648.869 279.431 647.312 279.431H632.91C631.353 279.431 630.574 278.815 630.574 277.582V277.193C630.574 276.349 631.32 275.182 632.812 273.689C634.369 272.197 635.505 270.575 636.218 268.824L654.416 221.724C654.87 220.621 654.773 219.485 654.124 218.318C653.54 217.15 652.827 216.047 651.983 215.009C651.205 213.971 650.816 213.16 650.816 212.576V212.187C650.816 210.954 651.562 210.338 653.054 210.338H665.51C668.689 210.338 670.927 211.895 672.225 215.009L694.412 268.824ZM650.232 255.492H669.695L659.963 228.341L650.232 255.492Z" fill="#32486F"/>
<path d="M598.901 279.431C597.409 279.431 596.663 278.815 596.663 277.582V277.193C596.663 276.414 597.344 275.246 598.706 273.689C600.134 272.068 600.847 270.446 600.847 268.824V217.636H595.69C594.197 217.636 592.835 218.253 591.602 219.485C590.435 220.718 589.494 222.08 588.78 223.573C588.131 225 587.321 226.33 586.347 227.563C585.374 228.795 584.401 229.411 583.428 229.411H581.774C579.957 229.411 579.146 228.471 579.341 226.589L581.287 213.355C581.482 211.343 582.585 210.338 584.596 210.338H634.615C636.562 210.338 637.664 211.343 637.924 213.355L639.968 226.687C640.097 227.53 639.935 228.211 639.481 228.73C639.027 229.184 638.378 229.411 637.535 229.411H635.88C634.907 229.411 633.934 228.795 632.961 227.563C631.988 226.33 631.144 225 630.431 223.573C629.717 222.08 628.744 220.718 627.511 219.485C626.279 218.253 624.916 217.636 623.424 217.636H618.364V268.824C618.364 270.446 619.045 272.068 620.407 273.689C621.835 275.246 622.548 276.414 622.548 277.193V277.582C622.548 278.815 621.77 279.431 620.213 279.431H598.901Z" fill="#32486F"/>
<path d="M573.137 210.338C574.694 210.338 575.472 210.954 575.472 212.187V212.576C575.472 213.355 574.726 214.555 573.234 216.177C571.807 217.734 571.093 219.323 571.093 220.945V274.857C571.093 277.906 569.601 279.431 566.616 279.431H561.07C559.253 279.431 557.566 278.361 556.009 276.22L521.268 230.093V268.726C521.268 270.348 522.014 271.97 523.506 273.592C525.063 275.214 525.842 276.414 525.842 277.193V277.582C525.842 278.815 525.031 279.431 523.409 279.431H510.953C509.396 279.431 508.617 278.815 508.617 277.582V277.193C508.617 276.414 509.266 275.214 510.563 273.592C511.861 271.97 512.51 270.348 512.51 268.726V221.042C512.51 219.421 511.861 217.799 510.563 216.177C509.266 214.555 508.617 213.355 508.617 212.576V212.187C508.617 210.954 509.396 210.338 510.953 210.338H525.453C527.464 210.338 529.215 211.376 530.708 213.452L562.335 257.438V220.945C562.335 219.323 561.621 217.734 560.194 216.177C558.766 214.555 558.053 213.355 558.053 212.576V212.187C558.053 210.954 558.831 210.338 560.388 210.338H573.137Z" fill="#32486F"/>
<path d="M450.418 279.431C448.861 279.431 448.082 278.815 448.082 277.582V277.193C448.082 276.414 448.731 275.246 450.028 273.689C451.326 272.068 451.975 270.413 451.975 268.726V221.042C451.975 219.356 451.326 217.734 450.028 216.177C448.731 214.555 448.082 213.355 448.082 212.576V212.187C448.082 210.954 448.828 210.338 450.32 210.338H494.89C495.928 210.338 496.674 210.565 497.128 211.019C497.647 211.473 498.004 212.252 498.199 213.355L500.534 225.616C500.664 226.46 500.502 227.141 500.048 227.66C499.594 228.179 498.945 228.438 498.102 228.438H497.615C496.382 228.438 495.117 227.854 493.82 226.687C492.587 225.454 491.484 224.157 490.511 222.794C489.603 221.367 488.403 220.069 486.91 218.902C485.483 217.669 483.991 217.053 482.434 217.053H473.87C470.951 217.053 469.491 218.642 469.491 221.821V240.895H479.709C480.877 240.895 481.915 240.505 482.823 239.727C483.731 238.883 484.413 237.975 484.867 237.002C485.321 236.029 485.84 235.153 486.424 234.375C487.073 233.531 487.689 233.109 488.273 233.109H489.051C490.349 233.109 490.998 233.856 490.998 235.348V252.864C490.998 254.356 490.349 255.102 489.051 255.102H488.273C487.689 255.102 487.073 254.713 486.424 253.935C485.84 253.156 485.321 252.313 484.867 251.405C484.413 250.496 483.731 249.653 482.823 248.874C481.915 248.096 480.877 247.707 479.709 247.707H469.491V265.612C469.491 267.559 469.945 269.245 470.854 270.673C471.762 272.035 473.254 272.716 475.33 272.716H485.548C487.105 272.716 488.532 272.1 489.83 270.867C491.192 269.57 492.295 268.175 493.139 266.683C493.982 265.191 494.988 263.828 496.155 262.596C497.388 261.298 498.653 260.649 499.951 260.649H500.826C501.54 260.649 502.091 260.974 502.481 261.623C502.87 262.206 503 262.855 502.87 263.569L500.729 276.317C500.534 277.42 500.178 278.231 499.659 278.75C499.204 279.204 498.426 279.431 497.323 279.431H450.418Z" fill="#32486F"/>
<path d="M414.422 280.405C404.95 280.405 397.003 276.772 390.58 269.506C384.222 262.24 381.043 253.741 381.043 244.009C381.043 234.019 384.027 225.779 389.996 219.292C395.964 212.739 403.782 209.463 413.449 209.463C421.104 209.463 427.721 211.312 433.301 215.01C438.88 218.643 441.67 222.99 441.67 228.05C441.67 230.321 440.924 232.17 439.432 233.597C438.004 235.024 436.058 235.738 433.593 235.738C431.387 235.738 429.408 235.089 427.657 233.791C425.905 232.429 424.445 230.807 423.277 228.926C422.174 227.044 421.039 225.163 419.871 223.282C418.704 221.335 417.276 219.713 415.59 218.416C413.968 217.053 412.086 216.372 409.945 216.372C406.701 216.372 403.912 217.897 401.576 220.946C399.306 223.995 398.17 228.115 398.17 233.305C398.17 242.452 400.376 249.978 404.788 255.882C409.199 261.721 414.292 264.64 420.066 264.64C422.207 264.64 424.153 264.316 425.905 263.667C427.721 263.018 429.311 262.11 430.673 260.942C432.101 259.709 433.171 258.639 433.885 257.731C434.663 256.822 435.539 255.687 436.512 254.325C437.42 253.222 438.556 252.865 439.918 253.254C441.281 253.579 441.929 254.519 441.864 256.076C441.605 262.824 439.107 268.565 434.371 273.301C429.7 278.037 423.05 280.405 414.422 280.405Z" fill="#32486F"/>
<path d="M781.255 181.081C774.508 181.081 768.377 179.394 762.862 176.02C757.413 172.647 753.228 168.268 750.309 162.883C747.389 157.498 745.93 151.757 745.93 145.658C745.93 140.274 746.838 135.311 748.654 130.769C750.536 126.228 753.001 122.498 756.05 119.578C759.164 116.594 762.668 114.291 766.56 112.669C770.518 110.982 774.605 110.139 778.822 110.139C786.996 110.139 793.808 111.89 799.258 115.394C804.707 118.897 807.432 123.146 807.432 128.142C807.432 130.542 806.719 132.456 805.291 133.883C803.864 135.311 801.983 136.024 799.647 136.024C797.312 136.024 795.203 135.376 793.322 134.078C791.44 132.78 789.818 131.223 788.456 129.407C787.094 127.525 785.764 125.644 784.466 123.763C783.233 121.881 781.741 120.292 779.99 118.994C778.303 117.697 776.454 117.048 774.443 117.048C771.004 117.048 768.247 118.637 766.171 121.816C764.095 124.995 763.057 129.083 763.057 134.078C763.057 143.68 765.23 151.919 769.577 158.796C773.924 165.673 779.114 169.111 785.147 169.111C787.353 169.111 789.202 168.787 790.694 168.138V155.39C790.694 153.703 789.786 152.081 787.969 150.524C786.153 148.967 785.245 147.799 785.245 147.021V146.632C785.245 146.048 785.472 145.594 785.926 145.269C786.445 144.88 787.061 144.685 787.775 144.685L809.476 144.783C811.033 144.783 811.811 145.431 811.811 146.729V147.118C811.811 147.897 811.033 149.064 809.476 150.621C807.919 152.178 807.14 153.8 807.14 155.487V166.776C807.14 169.5 805.778 171.933 803.053 174.074C797.149 178.745 789.883 181.081 781.255 181.081Z" fill="#32486F"/>
<path d="M738.543 111.016C740.1 111.016 740.878 111.632 740.878 112.865V113.254C740.878 114.032 740.132 115.233 738.64 116.854C737.213 118.412 736.499 120.001 736.499 121.623V175.535C736.499 178.584 735.007 180.109 732.023 180.109H726.476C724.659 180.109 722.973 179.038 721.415 176.897L686.674 130.77V169.404C686.674 171.026 687.42 172.648 688.913 174.27C690.47 175.892 691.248 177.092 691.248 177.871V178.26C691.248 179.492 690.437 180.109 688.815 180.109H676.359C674.802 180.109 674.023 179.492 674.023 178.26V177.871C674.023 177.092 674.672 175.892 675.97 174.27C677.267 172.648 677.916 171.026 677.916 169.404V121.72C677.916 120.098 677.267 118.476 675.97 116.854C674.672 115.233 674.023 114.032 674.023 113.254V112.865C674.023 111.632 674.802 111.016 676.359 111.016H690.859C692.87 111.016 694.622 112.054 696.114 114.13L727.741 158.116V121.623C727.741 120.001 727.027 118.412 725.6 116.854C724.173 115.233 723.459 114.032 723.459 113.254V112.865C723.459 111.632 724.238 111.016 725.795 111.016H738.543Z" fill="#32486F"/>
<path d="M641.262 178.26V177.871C641.262 177.092 641.91 175.924 643.208 174.367C644.506 172.745 645.154 171.123 645.154 169.501V121.623C645.154 120.001 644.506 118.412 643.208 116.854C641.91 115.233 641.262 114.032 641.262 113.254V112.865C641.262 111.632 642.04 111.016 643.597 111.016H664.714C666.271 111.016 667.05 111.632 667.05 112.865V113.254C667.05 114.032 666.336 115.233 664.909 116.854C663.482 118.412 662.768 120.001 662.768 121.623V169.501C662.768 171.123 663.482 172.745 664.909 174.367C666.336 175.924 667.05 177.092 667.05 177.871V178.26C667.05 179.492 666.271 180.109 664.714 180.109H643.597C642.04 180.109 641.262 179.492 641.262 178.26Z" fill="#32486F"/>
<path d="M596.338 180.109C594.846 180.109 594.1 179.492 594.1 178.26V177.871C594.1 177.092 594.781 175.924 596.144 174.367C597.571 172.745 598.285 171.123 598.285 169.501V118.314H593.127C591.635 118.314 590.272 118.931 589.04 120.163C587.872 121.396 586.931 122.758 586.218 124.25C585.569 125.678 584.758 127.008 583.785 128.24C582.812 129.473 581.839 130.089 580.865 130.089H579.211C577.395 130.089 576.584 129.149 576.778 127.267L578.725 114.032C578.919 112.021 580.022 111.016 582.033 111.016H632.053C633.999 111.016 635.102 112.021 635.361 114.032L637.405 127.364C637.535 128.208 637.373 128.889 636.918 129.408C636.464 129.862 635.816 130.089 634.972 130.089H633.318C632.345 130.089 631.372 129.473 630.398 128.24C629.425 127.008 628.582 125.678 627.868 124.25C627.155 122.758 626.181 121.396 624.949 120.163C623.716 118.931 622.354 118.314 620.862 118.314H615.801V169.501C615.801 171.123 616.482 172.745 617.845 174.367C619.272 175.924 619.986 177.092 619.986 177.871V178.26C619.986 179.492 619.207 180.109 617.65 180.109H596.338Z" fill="#32486F"/>
<path d="M523.593 180.109C522.036 180.109 521.258 179.492 521.258 178.26V177.871C521.258 177.092 521.907 175.924 523.204 174.367C524.502 172.745 525.15 171.123 525.15 169.501V121.623C525.15 120.001 524.502 118.412 523.204 116.854C521.907 115.233 521.258 114.032 521.258 113.254V112.865C521.258 111.632 522.004 111.016 523.496 111.016H569.234C570.272 111.016 571.018 111.275 571.472 111.794C571.991 112.248 572.348 113.027 572.542 114.13L574.878 126.391C575.008 127.235 574.846 127.916 574.391 128.435C573.937 128.954 573.288 129.213 572.445 129.213H571.959C570.726 129.213 569.461 128.63 568.163 127.462C566.931 126.229 565.828 124.932 564.855 123.569C563.946 122.142 562.746 120.844 561.254 119.677C559.827 118.444 558.335 117.828 556.778 117.828H547.435C544.451 117.828 542.959 119.385 542.959 122.499V144.297H553.858C554.896 144.297 555.837 143.908 556.68 143.129C557.588 142.286 558.302 141.378 558.821 140.405C559.34 139.367 559.924 138.458 560.573 137.68C561.286 136.836 561.935 136.415 562.519 136.415H563.395C564.628 136.415 565.244 137.161 565.244 138.653V156.169C565.244 157.662 564.628 158.408 563.395 158.408H562.519C561.741 158.408 560.93 157.824 560.086 156.656C559.308 155.423 558.399 154.191 557.361 152.958C556.323 151.725 555.156 151.109 553.858 151.109H542.959V169.501C542.959 171.123 543.673 172.745 545.1 174.367C546.592 175.924 547.338 177.092 547.338 177.871V178.26C547.338 179.492 546.56 180.109 545.002 180.109H523.593Z" fill="#32486F"/>
<path d="M515.315 169.501C516.028 171.253 517.131 172.875 518.623 174.367C520.18 175.794 520.959 176.962 520.959 177.871V178.26C520.959 179.492 520.18 180.109 518.623 180.109H493.419C491.927 180.109 491.181 179.492 491.181 178.26V177.871C491.181 177.157 491.635 176.411 492.543 175.632C493.516 174.789 494.327 173.881 494.976 172.907C495.69 171.934 495.819 170.799 495.365 169.501L493.224 163.468H468.507L466.366 169.501C465.912 170.799 466.009 171.934 466.658 172.907C467.371 173.881 468.182 174.789 469.09 175.632C470.064 176.411 470.55 177.157 470.55 177.871V178.26C470.55 179.492 469.772 180.109 468.215 180.109H453.812C452.255 180.109 451.477 179.492 451.477 178.26V177.871C451.477 177.027 452.223 175.859 453.715 174.367C455.272 172.875 456.407 171.253 457.121 169.501L475.319 122.401C475.773 121.299 475.675 120.163 475.027 118.995C474.443 117.828 473.729 116.725 472.886 115.687C472.107 114.649 471.718 113.838 471.718 113.254V112.865C471.718 111.632 472.464 111.016 473.956 111.016H486.412C489.591 111.016 491.83 112.573 493.127 115.687L515.315 169.501ZM471.134 156.169H490.597L480.865 129.019L471.134 156.169Z" fill="#32486F"/>
<path d="M440.111 169.501C441.019 170.929 442.122 172.194 443.419 173.297C444.782 174.335 445.82 175.178 446.533 175.827C447.247 176.411 447.604 177.092 447.604 177.871V178.26C447.604 179.492 446.825 180.109 445.268 180.109H421.524C419.967 180.109 419.188 179.492 419.188 178.26V177.871C419.188 177.222 419.577 176.476 420.356 175.632C421.134 174.724 421.686 173.913 422.01 173.199C422.4 172.486 422.27 171.253 421.621 169.501L413.349 154.126L404.396 154.32V169.501C404.396 171.123 405.11 172.745 406.537 174.367C408.029 175.924 408.776 177.092 408.776 177.871V178.26C408.776 179.492 407.997 180.109 406.44 180.109H385.031C383.474 180.109 382.695 179.492 382.695 178.26V177.871C382.695 177.092 383.344 175.924 384.642 174.367C385.939 172.745 386.588 171.123 386.588 169.501V121.623C386.588 120.001 385.939 118.412 384.642 116.854C383.344 115.233 382.695 114.032 382.695 113.254V112.865C382.695 111.632 383.474 111.016 385.031 111.016H411.208C420.291 111.016 427.46 112.897 432.715 116.66C437.97 120.423 440.63 125.872 440.695 133.009C440.695 136.707 439.657 140.21 437.581 143.519C435.505 146.827 432.488 149.422 428.53 151.304L440.111 169.501ZM404.396 139.918C404.396 142.643 404.883 144.589 405.856 145.757C406.894 146.86 408.451 147.411 410.527 147.411H413.447C416.042 147.411 418.15 146.373 419.772 144.297C421.459 142.221 422.302 139.075 422.302 134.858C422.302 129.862 421.005 125.775 418.41 122.596C415.879 119.417 413.025 117.828 409.846 117.828H408.094C406.991 117.828 406.083 118.314 405.37 119.287C404.721 120.196 404.396 121.396 404.396 122.888V139.918Z" fill="#32486F"/>
<path d="M599.666 70.1792C600.38 71.9309 601.483 73.5528 602.975 75.0449C604.532 76.4722 605.311 77.64 605.311 78.5483V78.9375C605.311 80.1702 604.532 80.7865 602.975 80.7865H577.771C576.278 80.7865 575.532 80.1702 575.532 78.9375V78.5483C575.532 77.8346 575.986 77.0885 576.895 76.31C577.868 75.4666 578.679 74.5584 579.328 73.5852C580.041 72.6121 580.171 71.4768 579.717 70.1792L577.576 64.1457H552.858L550.717 70.1792C550.263 71.4768 550.36 72.6121 551.009 73.5852C551.723 74.5584 552.534 75.4666 553.442 76.31C554.415 77.0885 554.902 77.8346 554.902 78.5483V78.9375C554.902 80.1702 554.123 80.7865 552.566 80.7865H538.164C536.607 80.7865 535.828 80.1702 535.828 78.9375V78.5483C535.828 77.7049 536.574 76.5371 538.066 75.0449C539.623 73.5528 540.759 71.9309 541.472 70.1792L559.67 23.0791C560.124 21.9762 560.027 20.8409 559.378 19.6731C558.794 18.5054 558.081 17.4025 557.237 16.3644C556.459 15.3264 556.069 14.5155 556.069 13.9316V13.5423C556.069 12.3097 556.816 11.6934 558.308 11.6934H570.764C573.943 11.6934 576.181 13.2504 577.479 16.3644L599.666 70.1792ZM555.486 56.8472H574.948L565.217 29.6965L555.486 56.8472Z" fill="#32486F"/>
<path d="M548.602 11.6934C550.095 11.6934 550.841 12.3097 550.841 13.5423V13.9316C550.841 14.8399 550.095 16.0076 548.602 17.4349C547.11 18.8622 545.975 20.4841 545.196 22.3006L522.62 75.9208C521.322 79.1646 519.051 80.7865 515.808 80.7865C512.953 80.7865 510.812 79.2943 509.385 76.31L484.472 22.3979C483.694 20.776 482.559 19.1866 481.066 17.6295C479.574 16.0725 478.828 14.8399 478.828 13.9316V13.5423C478.828 12.3097 479.607 11.6934 481.164 11.6934H507.147C508.704 11.6934 509.482 12.3097 509.482 13.5423V13.9316C509.482 14.6452 508.996 15.4237 508.022 16.2671C507.049 17.0456 506.206 17.9539 505.492 18.9919C504.779 19.9651 504.681 21.1004 505.2 22.3979L520.868 61.129L535.757 22.3006C536.276 21.0031 536.179 19.8678 535.465 18.8946C534.751 17.9215 533.876 17.0456 532.838 16.2671C531.864 15.4237 531.378 14.6452 531.378 13.9316V13.5423C531.378 12.3097 532.156 11.6934 533.713 11.6934H548.602Z" fill="#32486F"/>
<path d="M451.027 78.9375V78.5483C451.027 77.7697 451.676 76.602 452.974 75.0449C454.271 73.423 454.92 71.8011 454.92 70.1792V22.3006C454.92 20.6787 454.271 19.0892 452.974 17.5322C451.676 15.9103 451.027 14.7101 451.027 13.9316V13.5423C451.027 12.3097 451.806 11.6934 453.363 11.6934H474.48C476.037 11.6934 476.816 12.3097 476.816 13.5423V13.9316C476.816 14.7101 476.102 15.9103 474.675 17.5322C473.247 19.0892 472.534 20.6787 472.534 22.3006V70.1792C472.534 71.8011 473.247 73.423 474.675 75.0449C476.102 76.602 476.816 77.7697 476.816 78.5483V78.9375C476.816 80.1702 476.037 80.7865 474.48 80.7865H453.363C451.806 80.7865 451.027 80.1702 451.027 78.9375Z" fill="#32486F"/>
<path d="M440.111 70.1792C441.019 71.6065 442.122 72.8716 443.419 73.9745C444.782 75.0125 445.82 75.8559 446.533 76.5047C447.247 77.0885 447.604 77.7697 447.604 78.5483V78.9375C447.604 80.1702 446.825 80.7865 445.268 80.7865H421.524C419.967 80.7865 419.188 80.1702 419.188 78.9375V78.5483C419.188 77.8995 419.577 77.1534 420.356 76.31C421.134 75.4018 421.686 74.5908 422.01 73.8772C422.4 73.1635 422.27 71.9309 421.621 70.1792L413.349 54.8036L404.396 54.9982V70.1792C404.396 71.8011 405.11 73.423 406.537 75.0449C408.029 76.602 408.776 77.7697 408.776 78.5483V78.9375C408.776 80.1702 407.997 80.7865 406.44 80.7865H385.031C383.474 80.7865 382.695 80.1702 382.695 78.9375V78.5483C382.695 77.7697 383.344 76.602 384.642 75.0449C385.939 73.423 386.588 71.8011 386.588 70.1792V22.3006C386.588 20.6787 385.939 19.0892 384.642 17.5322C383.344 15.9103 382.695 14.7101 382.695 13.9316V13.5423C382.695 12.3097 383.474 11.6934 385.031 11.6934H411.208C420.291 11.6934 427.46 13.5748 432.715 17.3376C437.97 21.1004 440.63 26.55 440.695 33.6864C440.695 37.3843 439.657 40.8876 437.581 44.1963C435.505 47.505 432.488 50.1001 428.53 51.9815L440.111 70.1792ZM404.396 40.5957C404.396 43.3205 404.883 45.2668 405.856 46.4346C406.894 47.5374 408.451 48.0889 410.527 48.0889H413.447C416.042 48.0889 418.15 47.0509 419.772 44.9748C421.459 42.8988 422.302 39.7523 422.302 35.5354C422.302 30.5399 421.005 26.4527 418.41 23.2738C415.879 20.0948 413.025 18.5054 409.846 18.5054H408.094C406.991 18.5054 406.083 18.9919 405.37 19.9651C404.721 20.8733 404.396 22.0736 404.396 23.5657V40.5957Z" fill="#32486F"/>
</svg>
