<svg width="161" height="60" viewBox="0 0 161 60" fill="none" xmlns="http://www.w3.org/2000/svg">
<g clip-path="url(#clip0_15401_8382)">
<path d="M0.121094 54.1586C0.121094 37.0093 0.121094 19.865 0.121094 2.71561C0.146478 1.60986 0.786159 0.651198 2.30921 0.65627C4.17241 0.65627 6.03561 0.65627 7.8988 0.65627C8.50802 1.56928 9.11724 2.48736 9.72646 3.40037C11.7064 6.81908 13.6559 10.2581 15.6664 13.6616C18.154 17.8817 20.6873 22.0816 23.2055 26.2865C23.5913 27.0067 23.9771 27.727 24.363 28.4523C24.5407 28.7567 24.7133 29.061 24.891 29.3603C25.4748 30.3899 26.0586 31.4247 26.6425 32.4544C25.9977 32.6268 25.4291 32.779 24.8605 32.9311C17.758 34.3666 10.6555 35.802 3.33473 37.2832C4.10641 37.7042 4.6344 37.9882 5.16239 38.2773C6.16253 38.749 7.16266 39.2208 8.1628 39.6976C14.4175 42.8931 20.6721 46.0988 26.9268 49.2892C31.2472 51.4906 35.5777 53.6818 40.1976 56.0252C39.6341 56.0252 39.4158 56.0252 39.1975 56.0252C27.338 55.9948 13.6661 55.9643 1.68984 55.8578C0.811543 55.8578 0.121094 55.7006 0.126171 54.1637L0.121094 54.1586Z" fill="#A4CB45"/>
<path d="M42.9399 5.78548C36.6903 11.1063 30.4611 16.4423 24.1759 21.8139C21.1095 17.8321 18.104 13.896 15.0579 9.99547C13.3166 7.76874 11.5042 5.59274 9.72219 3.39644C9.11297 2.48343 8.50375 1.56535 7.89453 0.652344C18.5863 0.652344 22.9727 0.718283 33.6595 0.753789C36.731 0.774078 45.8896 0.748717 48.8494 0.794367" fill="#FCBF2A"/>
<path d="M21.0065 38.0201C22.6362 37.4977 24.2709 37.0107 25.8853 36.4528C33.2265 33.9065 40.5625 31.3399 48.8631 28.4487H24.3521C23.9663 27.7285 23.5805 27.0082 23.1946 26.2829C25.002 24.4924 26.8144 22.7018 28.6218 20.9113C35.3181 14.2768 42.0195 7.58647 48.7159 0.951936C48.7717 0.891069 48.792 0.865708 48.8479 0.794696C51.9041 0.784551 54.9807 0.820057 58.0065 0.875852C59.7225 0.906286 60.0931 1.8548 60.1134 3.19895C60.154 18.71 60.2048 34.1297 60.1997 49.595C60.1997 49.6508 60.1997 49.7371 60.1895 49.9044C55.1127 48.5603 49.9851 47.1756 44.9133 45.8314C37.9174 43.975 30.9216 42.1185 23.9257 40.2671C23.6972 40.2063 22.3519 39.8766 21.8543 39.7802C20.954 39.4928 19.9844 39.1817 18.9453 38.8469C19.7678 38.5121 20.3871 38.2636 21.0014 38.01" fill="#32486F"/>
<path d="M21.0061 38.0177C20.3868 38.2663 19.7725 38.5199 18.95 38.8547C20.5086 39.3518 21.859 39.788 23.2146 40.2191C38.3689 45.124 53.5233 50.034 69.0025 55.0454C64.5704 59.5343 58.1787 55.1265 54.0868 59.6307C50.1218 57.8199 45.7608 55.7403 41.3287 53.8128C30.5607 49.1311 19.7521 44.5356 8.96388 39.8996C8.71003 39.793 7.03468 39.1184 6.15639 38.7481C5.15625 38.2764 6.15639 38.7482 5.15625 38.2764C11.7206 36.4961 18.2849 34.7106 24.8544 32.9303C25.423 32.7781 25.9916 32.6259 26.6363 32.4535C26.0525 31.4238 25.4687 30.3941 24.8848 29.3594C30.7435 29.3594 36.6022 29.3594 43.1107 29.3594C35.3228 32.4129 28.1645 35.2179 21.0112 38.0228" fill="#2FA9DF"/>
</g>
<path d="M154.68 45.5891C153.285 45.5891 152.017 45.2403 150.877 44.5426C149.75 43.845 148.884 42.9393 148.281 41.8257C147.677 40.7122 147.375 39.5248 147.375 38.2636C147.375 37.15 147.563 36.1236 147.938 35.1845C148.328 34.2453 148.837 33.4739 149.468 32.8701C150.112 32.2529 150.837 31.7766 151.642 31.4412C152.46 31.0924 153.305 30.918 154.177 30.918C155.868 30.918 157.277 31.2802 158.404 32.0047C159.531 32.7292 160.094 33.608 160.094 34.6411C160.094 35.1375 159.946 35.5333 159.651 35.8285C159.356 36.1237 158.967 36.2712 158.484 36.2712C158.001 36.2712 157.565 36.1371 157.176 35.8687C156.787 35.6004 156.451 35.2784 156.17 34.9027C155.888 34.5136 155.613 34.1246 155.345 33.7355C155.09 33.3464 154.781 33.0177 154.419 32.7493C154.07 32.481 153.688 32.3468 153.272 32.3468C152.561 32.3468 151.99 32.6756 151.561 33.333C151.132 33.9904 150.917 34.8356 150.917 35.8687C150.917 37.8544 151.366 39.5583 152.265 40.9805C153.164 42.4027 154.238 43.1137 155.485 43.1137C155.942 43.1137 156.324 43.0467 156.633 42.9125V40.2761C156.633 39.9273 156.445 39.5919 156.069 39.2699C155.693 38.9479 155.506 38.7064 155.506 38.5454V38.4649C155.506 38.3441 155.552 38.2502 155.646 38.1831C155.754 38.1026 155.881 38.0624 156.029 38.0624L160.517 38.0825C160.839 38.0825 161 38.2167 161 38.485V38.5655C161 38.7265 160.839 38.968 160.517 39.29C160.195 39.612 160.034 39.9474 160.034 40.2962V42.6307C160.034 43.1943 159.752 43.6974 159.188 44.1401C157.967 45.1061 156.465 45.5891 154.68 45.5891Z" fill="#32486F"/>
<path d="M145.847 31.0977C146.169 31.0977 146.33 31.2251 146.33 31.48V31.5605C146.33 31.7215 146.176 31.9697 145.867 32.3052C145.572 32.6272 145.424 32.9559 145.424 33.2913V44.4406C145.424 45.0712 145.116 45.3864 144.498 45.3864H143.351C142.976 45.3864 142.627 45.1651 142.305 44.7223L135.12 35.183V43.1727C135.12 43.5081 135.274 43.8435 135.583 44.1789C135.905 44.5144 136.066 44.7626 136.066 44.9236V45.0041C136.066 45.259 135.898 45.3864 135.563 45.3864H132.987C132.665 45.3864 132.504 45.259 132.504 45.0041V44.9236C132.504 44.7626 132.638 44.5144 132.906 44.1789C133.175 43.8435 133.309 43.5081 133.309 43.1727V33.3114C133.309 32.976 133.175 32.6406 132.906 32.3052C132.638 31.9697 132.504 31.7215 132.504 31.5605V31.48C132.504 31.2251 132.665 31.0977 132.987 31.0977H135.986C136.401 31.0977 136.764 31.3123 137.072 31.7417L143.613 40.8382V33.2913C143.613 32.9559 143.465 32.6272 143.17 32.3052C142.875 31.9697 142.727 31.7215 142.727 31.5605V31.48C142.727 31.2251 142.888 31.0977 143.21 31.0977H145.847Z" fill="#32486F"/>
<path d="M125.73 45.0041V44.9236C125.73 44.7626 125.865 44.5211 126.133 44.1991C126.401 43.8636 126.535 43.5282 126.535 43.1928V33.2913C126.535 32.9559 126.401 32.6272 126.133 32.3052C125.865 31.9697 125.73 31.7215 125.73 31.5605V31.48C125.73 31.2251 125.891 31.0977 126.213 31.0977H130.581C130.903 31.0977 131.064 31.2251 131.064 31.48V31.5605C131.064 31.7215 130.916 31.9697 130.621 32.3052C130.326 32.6272 130.178 32.9559 130.178 33.2913V43.1928C130.178 43.5282 130.326 43.8636 130.621 44.1991C130.916 44.5211 131.064 44.7626 131.064 44.9236V45.0041C131.064 45.259 130.903 45.3864 130.581 45.3864H126.213C125.891 45.3864 125.73 45.259 125.73 45.0041Z" fill="#32486F"/>
<path d="M116.438 45.3864C116.129 45.3864 115.975 45.259 115.975 45.0041V44.9236C115.975 44.7626 116.116 44.5211 116.397 44.1991C116.693 43.8636 116.84 43.5282 116.84 43.1928V32.607H115.774C115.465 32.607 115.183 32.7345 114.928 32.9894C114.687 33.2443 114.492 33.5261 114.345 33.8347C114.211 34.1298 114.043 34.4049 113.842 34.6598C113.64 34.9147 113.439 35.0422 113.238 35.0422H112.896C112.52 35.0422 112.352 34.8476 112.393 34.4585L112.795 31.7215C112.835 31.3056 113.063 31.0977 113.479 31.0977H123.824C124.226 31.0977 124.454 31.3056 124.508 31.7215L124.93 34.4787C124.957 34.6531 124.924 34.794 124.83 34.9013C124.736 34.9952 124.602 35.0422 124.427 35.0422H124.085C123.884 35.0422 123.683 34.9147 123.481 34.6598C123.28 34.4049 123.106 34.1298 122.958 33.8347C122.811 33.5261 122.609 33.2443 122.354 32.9894C122.1 32.7345 121.818 32.607 121.509 32.607H120.463V43.1928C120.463 43.5282 120.604 43.8636 120.885 44.1991C121.181 44.5211 121.328 44.7626 121.328 44.9236V45.0041C121.328 45.259 121.167 45.3864 120.845 45.3864H116.438Z" fill="#32486F"/>
<path d="M101.393 45.3864C101.071 45.3864 100.91 45.259 100.91 45.0041V44.9236C100.91 44.7626 101.044 44.5211 101.313 44.1991C101.581 43.8636 101.715 43.5282 101.715 43.1928V33.2913C101.715 32.9559 101.581 32.6272 101.313 32.3052C101.044 31.9697 100.91 31.7215 100.91 31.5605V31.48C100.91 31.2251 101.064 31.0977 101.373 31.0977H110.832C111.046 31.0977 111.201 31.1513 111.295 31.2587C111.402 31.3526 111.476 31.5136 111.516 31.7417L111.999 34.2774C112.026 34.4518 111.992 34.5927 111.898 34.7C111.805 34.8074 111.67 34.861 111.496 34.861H111.395C111.14 34.861 110.879 34.7403 110.61 34.4988C110.356 34.2439 110.127 33.9755 109.926 33.6938C109.738 33.3986 109.49 33.1303 109.182 32.8888C108.886 32.6339 108.578 32.5064 108.256 32.5064H106.324C105.707 32.5064 105.398 32.8284 105.398 33.4724V37.9804H107.652C107.867 37.9804 108.061 37.8999 108.236 37.7389C108.424 37.5645 108.571 37.3767 108.678 37.1754C108.786 36.9608 108.907 36.7729 109.041 36.6119C109.188 36.4375 109.322 36.3503 109.443 36.3503H109.624C109.879 36.3503 110.007 36.5046 110.007 36.8132V40.4357C110.007 40.7443 109.879 40.8986 109.624 40.8986H109.443C109.282 40.8986 109.114 40.7778 108.94 40.5363C108.779 40.2814 108.591 40.0265 108.377 39.7716C108.162 39.5166 107.92 39.3892 107.652 39.3892H105.398V43.1928C105.398 43.5282 105.546 43.8636 105.841 44.1991C106.149 44.5211 106.304 44.7626 106.304 44.9236V45.0041C106.304 45.259 106.143 45.3864 105.821 45.3864H101.393Z" fill="#32486F"/>
<path d="M99.6864 43.1928C99.834 43.5551 100.062 43.8905 100.371 44.1991C100.693 44.4942 100.854 44.7357 100.854 44.9236V45.0041C100.854 45.259 100.693 45.3864 100.371 45.3864H95.1583C94.8497 45.3864 94.6954 45.259 94.6954 45.0041V44.9236C94.6954 44.776 94.7893 44.6217 94.9771 44.4607C95.1784 44.2863 95.3461 44.0984 95.4803 43.8972C95.6279 43.6959 95.6547 43.4611 95.5608 43.1928L95.118 41.9451H90.0063L89.5635 43.1928C89.4696 43.4611 89.4897 43.6959 89.6239 43.8972C89.7715 44.0984 89.9392 44.2863 90.127 44.4607C90.3283 44.6217 90.4289 44.776 90.4289 44.9236V45.0041C90.4289 45.259 90.2679 45.3864 89.9459 45.3864H86.9674C86.6454 45.3864 86.4844 45.259 86.4844 45.0041V44.9236C86.4844 44.7492 86.6387 44.5077 86.9473 44.1991C87.2693 43.8905 87.504 43.5551 87.6516 43.1928L91.415 33.4523C91.5089 33.2242 91.4888 32.9894 91.3546 32.7479C91.2339 32.5064 91.0863 32.2783 90.9119 32.0637C90.7509 31.849 90.6704 31.6813 90.6704 31.5605V31.48C90.6704 31.2251 90.8247 31.0977 91.1333 31.0977H93.7093C94.3667 31.0977 94.8296 31.4197 95.0979 32.0637L99.6864 43.1928ZM90.5496 40.4357H94.5746L92.5621 34.8208L90.5496 40.4357Z" fill="#32486F"/>
<path d="M84.1316 43.1928C84.3194 43.488 84.5475 43.7496 84.8158 43.9777C85.0976 44.1924 85.3123 44.3668 85.4598 44.5009C85.6074 44.6217 85.6812 44.7626 85.6812 44.9236V45.0041C85.6812 45.259 85.5202 45.3864 85.1982 45.3864H80.2877C79.9657 45.3864 79.8047 45.259 79.8047 45.0041V44.9236C79.8047 44.7894 79.8852 44.6351 80.0462 44.4607C80.2072 44.2729 80.3213 44.1052 80.3883 43.9576C80.4688 43.81 80.442 43.5551 80.3078 43.1928L78.5972 40.0131L76.7457 40.0533V43.1928C76.7457 43.5282 76.8933 43.8636 77.1885 44.1991C77.497 44.5211 77.6513 44.7626 77.6513 44.9236V45.0041C77.6513 45.259 77.4903 45.3864 77.1683 45.3864H72.7408C72.4188 45.3864 72.2578 45.259 72.2578 45.0041V44.9236C72.2578 44.7626 72.392 44.5211 72.6603 44.1991C72.9286 43.8636 73.0628 43.5282 73.0628 43.1928V33.2913C73.0628 32.9559 72.9286 32.6272 72.6603 32.3052C72.392 31.9697 72.2578 31.7215 72.2578 31.5605V31.48C72.2578 31.2251 72.4188 31.0977 72.7408 31.0977H78.1545C80.0328 31.0977 81.5153 31.4867 82.6021 32.2649C83.6888 33.0431 84.2389 34.1701 84.2523 35.6459C84.2523 36.4107 84.0377 37.1352 83.6083 37.8194C83.179 38.5037 82.5551 39.0403 81.7367 39.4294L84.1316 43.1928ZM76.7457 37.0748C76.7457 37.6383 76.8463 38.0408 77.0476 38.2823C77.2622 38.5104 77.5842 38.6244 78.0136 38.6244H78.6173C79.154 38.6244 79.59 38.4098 79.9255 37.9804C80.2743 37.5511 80.4487 36.9004 80.4487 36.0283C80.4487 34.9952 80.1804 34.15 79.6437 33.4925C79.1205 32.8351 78.5301 32.5064 77.8727 32.5064H77.5105C77.2824 32.5064 77.0945 32.607 76.947 32.8083C76.8128 32.9961 76.7457 33.2443 76.7457 33.5529V37.0748Z" fill="#32486F"/>
<path d="M117.128 22.6538C117.275 23.016 117.503 23.3514 117.812 23.66C118.134 23.9552 118.295 24.1967 118.295 24.3845V24.465C118.295 24.7199 118.134 24.8474 117.812 24.8474H112.6C112.291 24.8474 112.137 24.7199 112.137 24.465V24.3845C112.137 24.2369 112.231 24.0826 112.419 23.9216C112.62 23.7472 112.788 23.5594 112.922 23.3581C113.069 23.1569 113.096 22.9221 113.002 22.6538L112.559 21.406H107.448L107.005 22.6538C106.911 22.9221 106.931 23.1569 107.065 23.3581C107.213 23.5594 107.381 23.7472 107.568 23.9216C107.77 24.0826 107.87 24.2369 107.87 24.3845V24.465C107.87 24.7199 107.709 24.8474 107.387 24.8474H104.409C104.087 24.8474 103.926 24.7199 103.926 24.465V24.3845C103.926 24.2101 104.08 23.9686 104.389 23.66C104.711 23.3514 104.945 23.016 105.093 22.6538L108.856 12.9132C108.95 12.6851 108.93 12.4503 108.796 12.2088C108.675 11.9673 108.528 11.7393 108.353 11.5246C108.192 11.3099 108.112 11.1422 108.112 11.0215V10.941C108.112 10.6861 108.266 10.5586 108.575 10.5586H111.151C111.808 10.5586 112.271 10.8806 112.539 11.5246L117.128 22.6538ZM107.991 19.8966H112.016L110.004 14.2817L107.991 19.8966Z" fill="#32486F"/>
<path d="M106.566 10.5586C106.875 10.5586 107.029 10.6861 107.029 10.941V11.0215C107.029 11.2093 106.875 11.4508 106.566 11.746C106.258 12.0411 106.023 12.3766 105.862 12.7522L101.193 23.8411C100.925 24.512 100.455 24.8474 99.7842 24.8474C99.1939 24.8474 98.7512 24.5388 98.456 23.9216L93.304 12.7723C93.143 12.4369 92.9082 12.1082 92.5996 11.7862C92.291 11.4642 92.1367 11.2093 92.1367 11.0215V10.941C92.1367 10.6861 92.2977 10.5586 92.6197 10.5586H97.9931C98.3151 10.5586 98.4761 10.6861 98.4761 10.941V11.0215C98.4761 11.1691 98.3755 11.3301 98.1742 11.5045C97.973 11.6655 97.7986 11.8533 97.651 12.068C97.5034 12.2692 97.4833 12.504 97.5906 12.7723L100.831 20.7821L103.91 12.7522C104.017 12.4839 103.997 12.2491 103.85 12.0478C103.702 11.8466 103.521 11.6655 103.306 11.5045C103.105 11.3301 103.004 11.1691 103.004 11.0215V10.941C103.004 10.6861 103.165 10.5586 103.487 10.5586H106.566Z" fill="#32486F"/>
<path d="M86.3906 24.465V24.3845C86.3906 24.2235 86.5248 23.982 86.7931 23.66C87.0615 23.3246 87.1956 22.9892 87.1956 22.6538V12.7522C87.1956 12.4168 87.0615 12.0881 86.7931 11.7661C86.5248 11.4307 86.3906 11.1825 86.3906 11.0215V10.941C86.3906 10.6861 86.5516 10.5586 86.8736 10.5586H91.2408C91.5628 10.5586 91.7238 10.6861 91.7238 10.941V11.0215C91.7238 11.1825 91.5762 11.4307 91.281 11.7661C90.9858 12.0881 90.8383 12.4168 90.8383 12.7522V22.6538C90.8383 22.9892 90.9858 23.3246 91.281 23.66C91.5762 23.982 91.7238 24.2235 91.7238 24.3845V24.465C91.7238 24.7199 91.5628 24.8474 91.2408 24.8474H86.8736C86.5516 24.8474 86.3906 24.7199 86.3906 24.465Z" fill="#32486F"/>
<path d="M84.1316 22.6538C84.3194 22.9489 84.5475 23.2105 84.8158 23.4386C85.0976 23.6533 85.3123 23.8277 85.4598 23.9619C85.6074 24.0826 85.6812 24.2235 85.6812 24.3845V24.465C85.6812 24.7199 85.5202 24.8474 85.1982 24.8474H80.2877C79.9657 24.8474 79.8047 24.7199 79.8047 24.465V24.3845C79.8047 24.2503 79.8852 24.096 80.0462 23.9216C80.2072 23.7338 80.3213 23.5661 80.3883 23.4185C80.4688 23.2709 80.442 23.016 80.3078 22.6538L78.5972 19.474L76.7457 19.5142V22.6538C76.7457 22.9892 76.8933 23.3246 77.1885 23.66C77.497 23.982 77.6513 24.2235 77.6513 24.3845V24.465C77.6513 24.7199 77.4903 24.8474 77.1683 24.8474H72.7408C72.4188 24.8474 72.2578 24.7199 72.2578 24.465V24.3845C72.2578 24.2235 72.392 23.982 72.6603 23.66C72.9286 23.3246 73.0628 22.9892 73.0628 22.6538V12.7522C73.0628 12.4168 72.9286 12.0881 72.6603 11.7661C72.392 11.4307 72.2578 11.1825 72.2578 11.0215V10.941C72.2578 10.6861 72.4188 10.5586 72.7408 10.5586H78.1545C80.0328 10.5586 81.5153 10.9477 82.6021 11.7258C83.6888 12.504 84.2389 13.631 84.2523 15.1069C84.2523 15.8716 84.0377 16.5961 83.6083 17.2804C83.179 17.9646 82.5551 18.5013 81.7367 18.8904L84.1316 22.6538ZM76.7457 16.5357C76.7457 17.0992 76.8463 17.5017 77.0476 17.7432C77.2622 17.9713 77.5842 18.0854 78.0136 18.0854H78.6173C79.154 18.0854 79.59 17.8707 79.9255 17.4414C80.2743 17.012 80.4487 16.3613 80.4487 15.4892C80.4487 14.4561 80.1804 13.6109 79.6437 12.9535C79.1205 12.2961 78.5301 11.9673 77.8727 11.9673H77.5105C77.2824 11.9673 77.0945 12.068 76.947 12.2692C76.8128 12.4571 76.7457 12.7053 76.7457 13.0139V16.5357Z" fill="#32486F"/>
<defs>
<clipPath id="clip0_15401_8382">
<rect width="69.0043" height="59.447" fill="white" transform="translate(0 0.535156)"/>
</clipPath>
</defs>
</svg>
