<svg width="295" height="110" viewBox="0 0 295 110" fill="none" xmlns="http://www.w3.org/2000/svg">
<g clip-path="url(#clip0_15070_14500)">
<path d="M0.222656 99.0515C0.222656 67.6288 0.222656 36.2155 0.222656 4.79289C0.269167 2.76682 1.44125 1.01027 4.23192 1.01957C7.64585 1.01957 11.0598 1.01957 14.4737 1.01957C15.59 2.69247 16.7062 4.37466 17.8225 6.04756C21.4504 12.3116 25.0224 18.6129 28.7061 24.8491C33.2642 32.5816 37.906 40.2769 42.52 47.9816C43.2269 49.3013 43.9339 50.621 44.6409 51.9501C44.9665 52.5077 45.2827 53.0653 45.6083 53.6137C46.6781 55.5003 47.7478 57.3963 48.8176 59.2829C47.6362 59.5989 46.5943 59.8777 45.5525 60.1566C32.5387 62.7867 19.5248 65.4169 6.11098 68.1307C7.52492 68.9021 8.49235 69.4226 9.45979 69.9523C11.2923 70.8167 13.1249 71.681 14.9574 72.5546C26.4178 78.4098 37.8781 84.2835 49.3385 90.1293C57.2547 94.1629 65.1895 98.1779 73.6546 102.472C72.622 102.472 72.222 102.472 71.822 102.472C50.092 102.416 25.041 102.36 3.09705 102.165C1.48776 102.165 0.222656 101.877 0.231958 99.0608L0.222656 99.0515Z" fill="#A4CB45"/>
<path d="M78.6782 10.4171C67.2272 20.1664 55.8133 29.9436 44.2971 39.7858C38.6786 32.4901 33.1717 25.2781 27.5903 18.1311C24.3996 14.051 21.0787 10.064 17.8137 6.03971C16.6974 4.36681 15.5811 2.68462 14.4648 1.01172C34.0554 1.01172 42.0925 1.13254 61.6737 1.1976C67.3016 1.23477 84.0828 1.1883 89.506 1.27195" fill="#FCBF2A"/>
<path d="M38.4916 69.4805C41.4776 68.5233 44.4729 67.631 47.431 66.6087C60.8821 61.9432 74.3238 57.2405 89.533 51.943H44.6217C43.9148 50.6232 43.2078 49.3035 42.5008 47.9745C45.8124 44.6937 49.1333 41.413 52.4449 38.1322C64.7146 25.9758 76.9935 13.7172 89.2632 1.56081C89.3655 1.44928 89.4027 1.40281 89.5051 1.2727C95.105 1.25411 100.742 1.31917 106.286 1.4214C109.43 1.47716 110.11 3.21512 110.147 5.678C110.221 34.0987 110.314 62.3521 110.305 90.6892C110.305 90.7914 110.305 90.9494 110.286 91.2561C100.984 88.7932 91.5888 86.256 82.2958 83.7931C69.4773 80.3915 56.6588 76.99 43.8403 73.5977C43.4217 73.4862 40.9566 72.8821 40.045 72.7055C38.3954 72.1788 36.6187 71.6088 34.7148 70.9954C36.2218 70.382 37.3567 69.9266 38.4823 69.4619" fill="#32486F"/>
<path d="M38.4908 69.4779C37.356 69.9333 36.2304 70.398 34.7234 71.0114C37.5792 71.9222 40.0536 72.7215 42.5373 73.5115C70.3045 82.4987 98.0717 91.4952 126.434 100.678C118.313 108.903 106.602 100.826 99.1043 109.079C91.8392 105.761 83.8486 101.951 75.7277 98.4191C55.9976 89.8408 36.1932 81.4206 16.4259 72.926C15.9608 72.7308 12.891 71.4947 11.2818 70.8163C9.44922 69.9519 11.2818 70.8163 9.44922 69.9519C21.477 66.6898 33.5048 63.4183 45.5419 60.1562C46.5838 59.8774 47.6256 59.5985 48.807 59.2825C47.7373 57.3959 46.6675 55.5092 45.5977 53.6133C56.3325 53.6133 67.0673 53.6133 78.9928 53.6133C64.7231 59.2082 51.607 64.3477 38.5001 69.4872" fill="#2FA9DF"/>
</g>
<path d="M283.421 83.3506C280.864 83.3506 278.541 82.7114 276.451 81.4331C274.386 80.1548 272.801 78.4954 271.695 76.455C270.588 74.4146 270.035 72.2389 270.035 69.9281C270.035 67.8877 270.379 66.0071 271.068 64.2862C271.781 62.5654 272.715 61.1519 273.87 60.0456C275.05 58.9148 276.378 58.0421 277.853 57.4275C279.352 56.7883 280.901 56.4688 282.499 56.4688C285.596 56.4688 288.178 57.1325 290.243 58.46C292.308 59.7875 293.34 61.3977 293.34 63.2906C293.34 64.2002 293.07 64.9254 292.529 65.4662C291.988 66.0071 291.275 66.2775 290.39 66.2775C289.505 66.2775 288.706 66.0317 287.993 65.54C287.28 65.0483 286.666 64.4583 286.15 63.77C285.633 63.0571 285.129 62.3442 284.638 61.6312C284.171 60.9183 283.605 60.316 282.941 59.8244C282.302 59.3327 281.602 59.0869 280.84 59.0869C279.537 59.0869 278.492 59.6892 277.705 60.8937C276.918 62.0983 276.525 63.6471 276.525 65.54C276.525 69.1783 277.349 72.3004 278.996 74.9062C280.643 77.5121 282.61 78.815 284.896 78.815C285.732 78.815 286.432 78.6921 286.998 78.4462V73.6156C286.998 72.9764 286.653 72.3619 285.965 71.7719C285.277 71.1819 284.933 70.7394 284.933 70.4444V70.2969C284.933 70.0756 285.019 69.9035 285.191 69.7806C285.387 69.6331 285.621 69.5594 285.891 69.5594L294.115 69.5962C294.705 69.5962 295 69.8421 295 70.3337V70.4812C295 70.7762 294.705 71.2187 294.115 71.8087C293.525 72.3987 293.23 73.0133 293.23 73.6525V77.93C293.23 78.9625 292.713 79.8844 291.681 80.6956C289.444 82.4656 286.69 83.3506 283.421 83.3506Z" fill="#32486F"/>
<path d="M267.233 56.8047C267.823 56.8047 268.118 57.0382 268.118 57.5053V57.6528C268.118 57.9478 267.836 58.4026 267.27 59.0172C266.729 59.6072 266.459 60.2095 266.459 60.8241V81.2528C266.459 82.4082 265.893 82.9859 264.763 82.9859H262.661C261.972 82.9859 261.333 82.5803 260.743 81.769L247.579 64.2903V78.9297C247.579 79.5443 247.862 80.1588 248.427 80.7734C249.017 81.388 249.312 81.8428 249.312 82.1378V82.2853C249.312 82.7524 249.005 82.9859 248.39 82.9859H243.67C243.08 82.9859 242.785 82.7524 242.785 82.2853V82.1378C242.785 81.8428 243.031 81.388 243.523 80.7734C244.014 80.1588 244.26 79.5443 244.26 78.9297V60.8609C244.26 60.2464 244.014 59.6318 243.523 59.0172C243.031 58.4026 242.785 57.9478 242.785 57.6528V57.5053C242.785 57.0382 243.08 56.8047 243.67 56.8047H249.165C249.927 56.8047 250.59 57.198 251.156 57.9847L263.14 74.6522V60.8241C263.14 60.2095 262.87 59.6072 262.329 59.0172C261.788 58.4026 261.518 57.9478 261.518 57.6528V57.5053C261.518 57.0382 261.813 56.8047 262.403 56.8047H267.233Z" fill="#32486F"/>
<path d="M230.375 82.2853V82.1378C230.375 81.8428 230.621 81.4003 231.113 80.8103C231.604 80.1957 231.85 79.5811 231.85 78.9665V60.8241C231.85 60.2095 231.604 59.6072 231.113 59.0172C230.621 58.4026 230.375 57.9478 230.375 57.6528V57.5053C230.375 57.0382 230.67 56.8047 231.26 56.8047H239.262C239.852 56.8047 240.147 57.0382 240.147 57.5053V57.6528C240.147 57.9478 239.876 58.4026 239.336 59.0172C238.795 59.6072 238.524 60.2095 238.524 60.8241V78.9665C238.524 79.5811 238.795 80.1957 239.336 80.8103C239.876 81.4003 240.147 81.8428 240.147 82.1378V82.2853C240.147 82.7524 239.852 82.9859 239.262 82.9859H231.26C230.67 82.9859 230.375 82.7524 230.375 82.2853Z" fill="#32486F"/>
<path d="M213.348 82.9859C212.783 82.9859 212.5 82.7524 212.5 82.2853V82.1378C212.5 81.8428 212.758 81.4003 213.275 80.8103C213.815 80.1957 214.086 79.5811 214.086 78.9665V59.5703H212.131C211.566 59.5703 211.05 59.8039 210.583 60.2709C210.14 60.738 209.784 61.2543 209.513 61.8197C209.268 62.3605 208.96 62.8645 208.591 63.3316C208.223 63.7986 207.854 64.0322 207.485 64.0322H206.858C206.17 64.0322 205.863 63.6757 205.936 62.9628L206.674 57.9478C206.748 57.1857 207.166 56.8047 207.928 56.8047H226.881C227.619 56.8047 228.037 57.1857 228.135 57.9478L228.91 62.9997C228.959 63.3193 228.897 63.5774 228.725 63.7741C228.553 63.9461 228.307 64.0322 227.988 64.0322H227.361C226.992 64.0322 226.623 63.7986 226.255 63.3316C225.886 62.8645 225.566 62.3605 225.296 61.8197C225.025 61.2543 224.657 60.738 224.19 60.2709C223.723 59.8039 223.206 59.5703 222.641 59.5703H220.723V78.9665C220.723 79.5811 220.981 80.1957 221.498 80.8103C222.039 81.4003 222.309 81.8428 222.309 82.1378V82.2853C222.309 82.7524 222.014 82.9859 221.424 82.9859H213.348Z" fill="#32486F"/>
<path d="M185.783 82.9859C185.193 82.9859 184.898 82.7524 184.898 82.2853V82.1378C184.898 81.8428 185.144 81.4003 185.636 80.8103C186.128 80.1957 186.373 79.5811 186.373 78.9665V60.8241C186.373 60.2095 186.128 59.6072 185.636 59.0172C185.144 58.4026 184.898 57.9478 184.898 57.6528V57.5053C184.898 57.0382 185.181 56.8047 185.747 56.8047H203.078C203.471 56.8047 203.754 56.903 203.926 57.0997C204.123 57.2718 204.258 57.5668 204.332 57.9847L205.217 62.6309C205.266 62.9505 205.204 63.2086 205.032 63.4053C204.86 63.602 204.614 63.7003 204.295 63.7003H204.11C203.643 63.7003 203.164 63.4791 202.672 63.0366C202.205 62.5695 201.787 62.0778 201.418 61.5616C201.074 61.0207 200.619 60.5291 200.054 60.0866C199.513 59.6195 198.948 59.3859 198.358 59.3859H194.818C193.687 59.3859 193.122 59.9759 193.122 61.1559V69.4159H197.252C197.645 69.4159 198.001 69.2684 198.321 68.9734C198.665 68.6538 198.936 68.3097 199.132 67.9409C199.329 67.5476 199.55 67.2034 199.796 66.9084C200.066 66.5889 200.312 66.4291 200.533 66.4291H200.865C201.332 66.4291 201.566 66.7118 201.566 67.2772V73.9147C201.566 74.4801 201.332 74.7628 200.865 74.7628H200.533C200.238 74.7628 199.931 74.5416 199.612 74.0991C199.317 73.632 198.972 73.1649 198.579 72.6978C198.186 72.2307 197.743 71.9972 197.252 71.9972H193.122V78.9665C193.122 79.5811 193.392 80.1957 193.933 80.8103C194.498 81.4003 194.781 81.8428 194.781 82.1378V82.2853C194.781 82.7524 194.486 82.9859 193.896 82.9859H185.783Z" fill="#32486F"/>
<path d="M182.655 78.9665C182.925 79.6303 183.343 80.2449 183.909 80.8103C184.499 81.3511 184.794 81.7936 184.794 82.1378V82.2853C184.794 82.7524 184.499 82.9859 183.909 82.9859H174.358C173.793 82.9859 173.51 82.7524 173.51 82.2853V82.1378C173.51 81.8674 173.682 81.5847 174.026 81.2897C174.395 80.9701 174.702 80.6259 174.948 80.2572C175.218 79.8884 175.268 79.4582 175.095 78.9665L174.284 76.6803H164.918L164.107 78.9665C163.935 79.4582 163.972 79.8884 164.217 80.2572C164.488 80.6259 164.795 80.9701 165.139 81.2897C165.508 81.5847 165.692 81.8674 165.692 82.1378V82.2853C165.692 82.7524 165.397 82.9859 164.807 82.9859H159.35C158.76 82.9859 158.465 82.7524 158.465 82.2853V82.1378C158.465 81.8182 158.748 81.3757 159.313 80.8103C159.903 80.2449 160.333 79.6303 160.604 78.9665L167.499 61.1191C167.671 60.7011 167.634 60.2709 167.389 59.8284C167.167 59.3859 166.897 58.968 166.577 58.5747C166.282 58.1814 166.135 57.8741 166.135 57.6528V57.5053C166.135 57.0382 166.418 56.8047 166.983 56.8047H171.703C172.908 56.8047 173.756 57.3947 174.247 58.5747L182.655 78.9665ZM165.914 73.9147H173.289L169.601 63.6266L165.914 73.9147Z" fill="#32486F"/>
<path d="M154.155 78.9665C154.499 79.5074 154.917 79.9868 155.408 80.4047C155.925 80.798 156.318 81.1176 156.588 81.3634C156.859 81.5847 156.994 81.8428 156.994 82.1378V82.2853C156.994 82.7524 156.699 82.9859 156.109 82.9859H147.112C146.522 82.9859 146.227 82.7524 146.227 82.2853V82.1378C146.227 81.892 146.374 81.6093 146.669 81.2897C146.964 80.9455 147.173 80.6382 147.296 80.3678C147.443 80.0974 147.394 79.6303 147.148 78.9665L144.014 73.1403L140.622 73.2141V78.9665C140.622 79.5811 140.892 80.1957 141.433 80.8103C141.998 81.4003 142.281 81.8428 142.281 82.1378V82.2853C142.281 82.7524 141.986 82.9859 141.396 82.9859H133.283C132.693 82.9859 132.398 82.7524 132.398 82.2853V82.1378C132.398 81.8428 132.644 81.4003 133.136 80.8103C133.628 80.1957 133.873 79.5811 133.873 78.9665V60.8241C133.873 60.2095 133.628 59.6072 133.136 59.0172C132.644 58.4026 132.398 57.9478 132.398 57.6528V57.5053C132.398 57.0382 132.693 56.8047 133.283 56.8047H143.203C146.644 56.8047 149.361 57.5176 151.352 58.9434C153.343 60.3693 154.351 62.4343 154.376 65.1384C154.376 66.5397 153.983 67.8672 153.196 69.1209C152.409 70.3747 151.266 71.358 149.767 72.0709L154.155 78.9665ZM140.622 67.7566C140.622 68.7891 140.806 69.5266 141.175 69.9691C141.568 70.387 142.158 70.5959 142.945 70.5959H144.051C145.034 70.5959 145.833 70.2026 146.448 69.4159C147.087 68.6293 147.407 67.437 147.407 65.8391C147.407 63.9461 146.915 62.3974 145.932 61.1928C144.973 59.9882 143.891 59.3859 142.687 59.3859H142.023C141.605 59.3859 141.261 59.5703 140.99 59.9391C140.744 60.2832 140.622 60.738 140.622 61.3034V67.7566Z" fill="#32486F"/>
<path d="M214.612 41.3298C214.882 41.9936 215.3 42.6082 215.866 43.1736C216.456 43.7144 216.751 44.1569 216.751 44.5011V44.6486C216.751 45.1157 216.456 45.3492 215.866 45.3492H206.315C205.75 45.3492 205.467 45.1157 205.467 44.6486V44.5011C205.467 44.2307 205.639 43.948 205.983 43.653C206.352 43.3334 206.659 42.9892 206.905 42.6205C207.175 42.2517 207.225 41.8215 207.052 41.3298L206.241 39.0436H196.875L196.064 41.3298C195.892 41.8215 195.929 42.2517 196.174 42.6205C196.445 42.9892 196.752 43.3334 197.096 43.653C197.465 43.948 197.649 44.2307 197.649 44.5011V44.6486C197.649 45.1157 197.354 45.3492 196.764 45.3492H191.307C190.717 45.3492 190.422 45.1157 190.422 44.6486V44.5011C190.422 44.1815 190.705 43.739 191.27 43.1736C191.86 42.6082 192.29 41.9936 192.561 41.3298L199.456 23.4823C199.628 23.0644 199.591 22.6342 199.346 22.1917C199.124 21.7492 198.854 21.3313 198.534 20.938C198.239 20.5446 198.092 20.2373 198.092 20.0161V19.8686C198.092 19.4015 198.375 19.168 198.94 19.168H203.66C204.865 19.168 205.713 19.758 206.204 20.938L214.612 41.3298ZM197.871 36.278H205.246L201.558 25.9898L197.871 36.278Z" fill="#32486F"/>
<path d="M195.264 19.168C195.829 19.168 196.112 19.4015 196.112 19.8686V20.0161C196.112 20.3603 195.829 20.8028 195.264 21.3436C194.698 21.8844 194.268 22.499 193.973 23.1873L185.418 43.5055C184.926 44.7346 184.066 45.3492 182.837 45.3492C181.755 45.3492 180.944 44.7838 180.403 43.653L170.963 23.2242C170.668 22.6096 170.238 22.0073 169.672 21.4173C169.107 20.8273 168.824 20.3603 168.824 20.0161V19.8686C168.824 19.4015 169.119 19.168 169.709 19.168H179.555C180.145 19.168 180.44 19.4015 180.44 19.8686V20.0161C180.44 20.2865 180.255 20.5815 179.887 20.9011C179.518 21.1961 179.198 21.5403 178.928 21.9336C178.658 22.3023 178.621 22.7326 178.817 23.2242L184.754 37.9005L190.396 23.1873C190.593 22.6957 190.556 22.2655 190.285 21.8967C190.015 21.528 189.683 21.1961 189.29 20.9011C188.921 20.5815 188.737 20.2865 188.737 20.0161V19.8686C188.737 19.4015 189.032 19.168 189.622 19.168H195.264Z" fill="#32486F"/>
<path d="M158.289 44.6486V44.5011C158.289 44.2061 158.535 43.7636 159.027 43.1736C159.518 42.559 159.764 41.9444 159.764 41.3298V23.1873C159.764 22.5728 159.518 21.9705 159.027 21.3805C158.535 20.7659 158.289 20.3111 158.289 20.0161V19.8686C158.289 19.4015 158.584 19.168 159.174 19.168H167.176C167.766 19.168 168.061 19.4015 168.061 19.8686V20.0161C168.061 20.3111 167.791 20.7659 167.25 21.3805C166.709 21.9705 166.438 22.5728 166.438 23.1873V41.3298C166.438 41.9444 166.709 42.559 167.25 43.1736C167.791 43.7636 168.061 44.2061 168.061 44.5011V44.6486C168.061 45.1157 167.766 45.3492 167.176 45.3492H159.174C158.584 45.3492 158.289 45.1157 158.289 44.6486Z" fill="#32486F"/>
<path d="M154.155 41.3298C154.499 41.8707 154.917 42.35 155.408 42.768C155.925 43.1613 156.318 43.4809 156.588 43.7267C156.859 43.948 156.994 44.2061 156.994 44.5011V44.6486C156.994 45.1157 156.699 45.3492 156.109 45.3492H147.112C146.522 45.3492 146.227 45.1157 146.227 44.6486V44.5011C146.227 44.2552 146.374 43.9725 146.669 43.653C146.964 43.3088 147.173 43.0015 147.296 42.7311C147.443 42.4607 147.394 41.9936 147.148 41.3298L144.014 35.5036L140.622 35.5773V41.3298C140.622 41.9444 140.892 42.559 141.433 43.1736C141.998 43.7636 142.281 44.2061 142.281 44.5011V44.6486C142.281 45.1157 141.986 45.3492 141.396 45.3492H133.283C132.693 45.3492 132.398 45.1157 132.398 44.6486V44.5011C132.398 44.2061 132.644 43.7636 133.136 43.1736C133.628 42.559 133.873 41.9444 133.873 41.3298V23.1873C133.873 22.5728 133.628 21.9705 133.136 21.3805C132.644 20.7659 132.398 20.3111 132.398 20.0161V19.8686C132.398 19.4015 132.693 19.168 133.283 19.168H143.203C146.644 19.168 149.361 19.8809 151.352 21.3067C153.343 22.7325 154.351 24.7975 154.376 27.5017C154.376 28.903 153.983 30.2305 153.196 31.4842C152.409 32.738 151.266 33.7213 149.767 34.4342L154.155 41.3298ZM140.622 30.1198C140.622 31.1523 140.806 31.8898 141.175 32.3323C141.568 32.7503 142.158 32.9592 142.945 32.9592H144.051C145.034 32.9592 145.833 32.5659 146.448 31.7792C147.087 30.9925 147.407 29.8003 147.407 28.2023C147.407 26.3094 146.915 24.7607 145.932 23.5561C144.973 22.3515 143.891 21.7492 142.687 21.7492H142.023C141.605 21.7492 141.261 21.9336 140.99 22.3023C140.744 22.6465 140.622 23.1013 140.622 23.6667V30.1198Z" fill="#32486F"/>
<defs>
<clipPath id="clip0_15070_14500">
<rect width="126.436" height="108.924" fill="white" transform="translate(0 0.796875)"/>
</clipPath>
</defs>
</svg>
