<svg width="33" height="33" viewBox="0 0 33 33" fill="none" xmlns="http://www.w3.org/2000/svg">
<circle cx="16.5" cy="16.5" r="16" stroke="white"/>
<path fill-rule="evenodd" clip-rule="evenodd" d="M12.7154 8.92969C10.6246 8.92969 8.92969 10.6246 8.92969 12.7154V21.2868C8.92969 23.3776 10.6246 25.0725 12.7154 25.0725H21.2868C23.3776 25.0725 25.0725 23.3776 25.0725 21.2868V12.7154C25.0725 10.6246 23.3776 8.92969 21.2868 8.92969H12.7154ZM7.92969 12.7154C7.92969 10.0723 10.0723 7.92969 12.7154 7.92969H21.2868C23.9299 7.92969 26.0725 10.0723 26.0725 12.7154V21.2868C26.0725 23.9299 23.9299 26.0725 21.2868 26.0725H12.7154C10.0723 26.0725 7.92969 23.9299 7.92969 21.2868V12.7154ZM17.4678 14.067C16.8584 13.9766 16.2361 14.0807 15.6894 14.3644C15.1426 14.6481 14.6992 15.097 14.4223 15.6472C14.1454 16.1974 14.049 16.821 14.1468 17.4291C14.2447 18.0373 14.5318 18.5991 14.9674 19.0347C15.403 19.4703 15.9648 19.7574 16.5729 19.8552C17.1811 19.9531 17.8046 19.8567 18.3549 19.5798C18.9051 19.3028 19.354 18.8594 19.6377 18.3127C19.9214 17.7659 20.0254 17.1436 19.9351 16.5343C19.8429 15.9128 19.5533 15.3374 19.109 14.8931C18.6647 14.4488 18.0893 14.1591 17.4678 14.067ZM15.2288 13.4768C15.9623 13.0962 16.7971 12.9566 17.6145 13.0778C18.4482 13.2014 19.2201 13.5899 19.8161 14.186C20.4121 14.782 20.8006 15.5539 20.9243 16.3876C21.0455 17.205 20.9059 18.0398 20.5253 18.7733C20.1447 19.5067 19.5425 20.1015 18.8044 20.473C18.0663 20.8445 17.2299 20.9738 16.4141 20.8425C15.5982 20.7113 14.8446 20.3261 14.2603 19.7418C13.676 19.1575 13.2908 18.4038 13.1595 17.588C13.0282 16.7722 13.1576 15.9357 13.5291 15.1976C13.9006 14.4595 14.4954 13.8574 15.2288 13.4768ZM21.7154 11.7868C21.4393 11.7868 21.2154 12.0107 21.2154 12.2868C21.2154 12.563 21.4393 12.7868 21.7154 12.7868H21.7236C21.9997 12.7868 22.2236 12.563 22.2236 12.2868C22.2236 12.0107 21.9997 11.7868 21.7236 11.7868H21.7154Z" fill="white"/>
</svg>
