<svg width="15" height="17" viewBox="0 0 15 17" fill="none" xmlns="http://www.w3.org/2000/svg">
<path d="M8.58375 15.044C10.2178 13.51 13.125 10.376 13.125 7.5C13.125 5.9087 12.5324 4.38258 11.4775 3.25736C10.4226 2.13214 8.99184 1.5 7.5 1.5C6.00816 1.5 4.57742 2.13214 3.52252 3.25736C2.46763 4.38258 1.875 5.9087 1.875 7.5C1.875 10.376 4.78125 13.51 6.41625 15.044C6.71448 15.3279 7.10025 15.4849 7.5 15.4849C7.89975 15.4849 8.28552 15.3279 8.58375 15.044ZM5.625 7.5C5.625 6.96957 5.82254 6.46086 6.17417 6.08579C6.52581 5.71071 7.00272 5.5 7.5 5.5C7.99728 5.5 8.47419 5.71071 8.82582 6.08579C9.17746 6.46086 9.375 6.96957 9.375 7.5C9.375 8.03043 9.17746 8.53914 8.82582 8.91421C8.47419 9.28929 7.99728 9.5 7.5 9.5C7.00272 9.5 6.52581 9.28929 6.17417 8.91421C5.82254 8.53914 5.625 8.03043 5.625 7.5Z" fill="white"/>
</svg>
