<svg width="1712" height="49" viewBox="0 0 1712 49" fill="none" xmlns="http://www.w3.org/2000/svg">
<g clip-path="url(#clip0_15214_13147)">
<mask id="mask0_15214_13147" style="mask-type:luminance" maskUnits="userSpaceOnUse" x="0" y="0" width="1712" height="49">
<path d="M1712 0H0V49H1712V0Z" fill="white"/>
</mask>
<g mask="url(#mask0_15214_13147)">
<path d="M1713 27.1255C1707.98 25.4143 1691.18 26.5959 1695.56 27.2478C1695.45 29.0812 1685.04 27.859 1673.97 29.3257C1662.89 32.2592 1651.18 24.1513 1648.46 28.8775C1641.03 31.8518 1633.74 21.5438 1626.49 26.5959C1619.24 29.6924 1611.96 26.3514 1604.52 24.2735C1591.43 24.4772 1577.6 12.7024 1564.52 24.1513C1556.93 26.5959 1550.8 23.6216 1543.07 26.7589C1534.22 28.0627 1525.04 17.3472 1516.26 21.666C1512.1 14.5766 1510.46 22.8883 1506 26.7589C1502.99 27.3293 1499.76 36.1705 1496.78 26.4736C1492.1 32.8296 1488.2 32.0147 1483.33 31.3221C1478.08 28.5108 1472.06 35.5594 1466.75 31.1999C1462.1 34.9075 1456.82 31.8518 1452.28 31.0777C1451.32 31.974 1450.17 31.6073 1449.79 32.9519C1443.58 27.9404 1437.3 40.8561 1431.24 38.167C1421.28 39.0226 1411.17 39.9597 1401.2 38.1262C1392.02 34.2149 1382.69 39.8375 1373.55 38.0448C1366 32.0963 1359.12 43.3414 1351.76 42.2821C1346.37 44.0748 1342.39 45.9082 1338.41 40.0819C1334.96 32.0148 1332.24 39.3078 1328.08 32.0555C1320.61 29.8554 1314.66 20.7696 1306.14 24.2328C1295.48 16.6546 1286.85 9.8504 1276.03 19.6288C1270.08 19.4658 1265.55 21.177 1259.94 21.9919C1253.21 17.7139 1249.97 15.9212 1243.61 17.8769C1232.13 13.0284 1222.28 9.36146 1210.38 10.5023C1203.61 4.26855 1197.85 -1.7614 1190.86 5.65388C1188.48 3.61671 1183.13 6.38724 1181.12 6.02055C1179.67 9.72819 1179.71 11.4802 1178.33 11.7654C1173.98 15.9619 1158.82 13.5173 1154.13 12.2135C1148.52 8.66882 1143.76 9.44295 1138.11 8.01693C1132.2 4.39078 1126.06 14.1692 1120.15 8.05772C1115.77 3.20926 1106.73 7.56876 1102.23 7.89471C1097.44 6.18349 1095.39 20.1177 1089.71 12.784C1085.24 11.4394 1080.78 13.0691 1076.36 12.5394C1068.7 13.8432 1061.75 22.3993 1054.02 14.9841C1047.18 17.3879 1040.37 20.8511 1033.53 14.9841C1028.14 21.9104 1024.5 14.2914 1020.15 17.1842C1017.21 18.4472 1015.13 30.0184 1011.93 24.2328C1008.1 28.5923 1003.42 29.122 999.554 27.0441C998.438 28.0627 997.397 20.5251 995.91 28.9183C993.345 28.3886 989.665 28.7145 987.025 28.8368C976.839 32.5444 966.653 24.1105 956.467 28.8368C950.37 29.0812 944.087 29.1627 937.99 28.8775C934.124 24.2328 931.893 22.5216 928.324 25.2921C926.094 23.2142 923.082 30.7517 921.001 23.8254C919.253 22.2771 918.435 22.5623 916.948 19.4659C912.747 21.5438 907.766 19.7103 902.673 17.2657C899.55 19.0176 897.059 19.751 894.048 17.7546C893.936 19.7103 892.635 17.5101 892.003 19.6695C885.795 23.8661 876.612 20.3622 869.883 19.5473C858.917 17.1027 847.615 19.914 836.685 19.6695C832.521 20.8511 828.878 19.7918 824.752 17.1435C821.555 15.2285 818.209 10.869 815.011 17.225C809.881 24.7217 804.453 14.3729 799.398 17.0619C792.223 15.6359 786.795 20.9733 779.248 21.8697C772.222 20.9733 769.359 27.37 763.151 26.6366C756.459 25.0477 749.656 23.7031 742.964 24.1513C737.165 20.1585 731.291 20.3622 725.491 24.1513C719.023 27.5737 712.554 24.1513 706.086 24.192C699.58 21.34 693.706 16.0434 687.2 21.6252C685.304 18.651 683.408 19.1806 681.587 22.2364C681.029 24.8032 680.323 23.2957 679.393 25.0884C676.196 23.8661 673.928 24.6809 670.211 26.4736C664.709 23.9883 660.619 26.9626 655.452 28.2256C646.232 32.3407 635.451 28.8775 625.934 28.5108C617.421 29.122 620.32 26.9218 615.339 35.2742C612.625 41.1005 613.257 34.2964 609.985 38.1262C605.264 35.5594 599.613 40.1226 594.818 38.004C585.932 41.3449 577.084 37.3928 568.199 38.004C557.864 42.608 547.79 28.8368 537.789 32.7481C529.276 30.2628 521.134 21.7882 512.621 22.2771C506.524 19.9955 503.513 26.3922 498.271 16.1656C493.736 12.295 488.866 0.479447 482.992 5.36864C474.218 5.89831 464.255 5.57239 455.333 5.65388C445.518 5.81685 431.912 10.3393 423.176 3.4537C413.175 2.92404 403.026 0.846107 392.468 1.00908C383.434 7.77247 374.177 -2.08738 364.512 3.33148C360.497 -0.86508 355.812 10.7875 351.872 3.24997C345.589 11.5616 345.143 15.3507 343.061 14.6988C338.302 25.8625 336.072 15.0656 331.945 20.9326C328.005 28.3071 325.216 26.9219 321.35 21.7475C318.711 28.1442 316.74 27.0848 314.138 24.2735C310.978 11.4801 306.777 32.137 303.506 24.1513C296.145 29.6109 288.747 23.7846 281.386 24.1513C276.07 22.766 264.805 24.6402 260.121 24.2328C257.036 28.7553 257.482 37.1077 255.586 31.1999C253.69 27.4922 251.831 42.2006 248.82 35.7224C242.574 40.6523 236.551 52.5901 230.752 40.5301C224.655 43.7081 217.331 38.9819 209.896 45.5008C202.461 38.2485 194.951 40.0412 188.408 43.9118C179.486 47.0083 174.058 27.8589 164.69 33.3593C153.351 29.8146 141.344 37.1484 130.079 33.5223C121.938 22.9698 113.276 23.9476 105.208 28.2664C101.863 31.4443 99.8178 27.4108 96.9924 24.1513C92.7172 16.5731 88.8137 16.7768 83.7206 19.4251C75.8392 20.6066 67.2516 14.6581 59.3702 19.5881C51.303 16.5731 47.2508 21.2178 39.0349 12.4987C36.0608 16.0026 30.3357 8.42437 27.6962 12.4172C24.0529 11.3171 22.7146 18.6917 18.4393 17.3879C12.7514 18.9361 5.76229 19.2214 0 17.225C0 19.5473 0 39.8655 0 43.3695C4.31243 47.1178 10.7067 60.4128 16.9151 63.4686C21.0045 63.0611 25.0567 62.3277 29.1461 63.4686C35.2058 63.4278 44.3139 64.7316 49.3327 62.124C51.5261 56.3385 52.2324 59.0275 54.9463 57.683C58.1434 48.6787 60.9688 53.3235 64.389 56.5422C69.9654 57.846 73.2741 59.9647 78.0698 60.0054C82.3451 62.2056 83.7577 69.3356 88.7765 63.0612C90.5238 71.0876 88.7393 71.8617 88.665 72.5543C93.9068 71.0468 99.8178 77.851 105.431 74.3878C110.301 73.6137 114.391 77.362 119.521 77.4027C132.161 85.8774 145.359 79.5214 157.552 75.5693C167.701 63.3871 179.932 74.5915 190.304 75.0397C200.862 75.1619 209.227 77.0768 219.711 67.9911C228.856 59.9646 240.455 69.906 249.08 67.7059C251.868 63.0612 251.533 73.5322 253.355 63.9167C255.66 57.0719 258.634 63.6723 261.125 62.3278C263.467 57.683 265.809 59.3128 268.151 60.6165C270.977 70.1912 275.586 62.2463 277.928 58.9868C281.795 56.257 282.464 47.3342 287.669 54.1384C292.427 60.4536 297.26 60.4536 302.019 54.3013C306.814 55.5236 307.149 48.5973 310.792 50.5122C314.621 45.3786 322.205 44.6859 326.778 43.0969C331.202 43.3006 334.957 45.0934 339.306 40.4486C345.18 40.0819 351.5 39.1856 356.779 31.7703C360.385 34.7853 362.987 21.503 366.631 22.1956C371.575 19.1399 381.427 23.9883 386.446 21.9104C394.327 22.9697 399.308 17.0619 406.372 25.4551C408.677 38.1262 410.833 27.3293 413.101 27.859C415.554 31.1592 416.856 27.0848 419.123 33.0333C423.733 34.7445 431.466 34.3779 436.745 37.6373C443.213 44.1155 450.574 38.8189 457.117 38.0855C460.798 39.1041 465.742 42.0783 469.311 37.7595C476.895 40.2041 479.349 43.5044 482.917 53.8939C484.962 55.9718 488.308 65.5872 491.654 65.3428C494.07 68.2763 499.052 63.2241 501.877 67.9911C507.677 68.8874 513.513 79.6029 519.239 74.7137C522.993 79.7252 529.499 72.0247 533.291 75.1619C538.087 72.5951 541.284 69.0504 546.6 70.2727C550.727 71.2098 556.415 69.4986 560.467 70.8431C562.623 76.099 564.445 80.214 566.787 74.673C570.244 68.6837 573.59 71.0876 577.01 75.5693C581.1 86.0403 585.635 74.2656 590.059 79.4807C594.855 71.5358 600.468 85.9589 605.338 79.6844C609.837 85.3477 614.335 88.1998 618.833 79.6844C625.748 82.9031 631.659 81.3956 638.351 77.2805C645.228 74.2655 654.82 70.5579 661.697 77.8509C666.456 81.2734 672.587 66.4021 677.383 63.3464C683.443 64.7724 688.908 66.9725 694.744 68.6838C699.54 71.5358 715.117 70.9654 719.801 69.3764C719.02 55.1977 734.374 60.8203 740.545 62.8168C751.512 63.7539 761.29 61.3907 772.331 65.1391C782.071 65.5058 789.135 73.0026 798.54 71.5766C805.492 70.7617 816.385 76.2213 823.411 71.8617C830.92 71.0469 837.686 71.5358 845.419 63.2649C854.341 67.0133 862 66.8096 870.81 65.1391C877.465 64.1613 884.119 66.8911 890.774 65.1391C893.897 64.365 897.019 69.0504 900.068 64.7316C902.93 62.8575 905.496 61.4315 908.321 60.9426C910.068 58.8646 912.262 60.5759 913.935 60.1277C917.95 59.3128 919.439 76.425 923.454 71.8617C926.912 67.5022 931.856 68.0318 935.685 68.1133C939.886 67.5429 942.823 69.8652 947.135 67.2169C953.195 64.2834 957.061 64.8131 962.303 57.683C972.006 52.5901 985.464 55.0755 996.208 54.3421C1006.88 49.3307 1015.13 54.668 1024.94 49.6159C1030.26 44.2785 1035.43 40.9783 1041.15 38.4522C1044.54 31.648 1049.44 37.2706 1052.86 38.2077C1060.15 41.7117 1065.39 41.8339 1072.38 34.9075C1076.36 38.3707 1080.89 33.7667 1085.17 33.4408C1086.43 29.122 1087.88 30.548 1089.15 33.9297C1089.97 36.0891 1090.52 34.1334 1091.86 37.8818C1095.39 34.4593 1099.41 37.3521 1102.35 34.6223C1112.57 33.8889 1122.98 37.6373 1133.39 35.9261C1139.78 37.6781 1146.18 30.385 1152.57 35.8854C1161.83 41.1413 1170.04 37.8411 1177.44 39.8782C1182.5 36.4558 1189.75 54.7088 1196.07 49.2899C1204.43 44.4415 1212.35 49.8196 1220.31 52.0605C1226.89 57.6423 1233.84 60.6573 1240.71 58.2534C1247.89 63.7945 1258.71 71.2506 1267.67 68.1541C1270.23 70.4764 1270.64 62.9796 1273.21 63.4686C1276.22 60.861 1282.2 67.9096 1285.7 63.6316C1292.28 63.9575 1301.39 75.8545 1306.7 61.4314C1311.39 58.9053 1310.79 57.8867 1317.6 56.5422C1322.13 58.4571 1326.22 59.272 1330.72 59.1091C1333.69 56.7867 1336.78 56.9904 1339.75 59.0276C1345.51 62.7352 1348.08 53.7309 1353.06 62.4908C1360.2 60.861 1372.83 59.8832 1380.49 68.1541C1383.61 65.628 1400.09 67.6859 1412.25 61.4114C1420.8 59.4557 1429.35 62.9597 1437.9 61.2484C1446.45 61.2484 1455 57.8668 1463.55 61.33C1471.06 68.8267 1482.29 67.0748 1489.2 59.9854C1495.15 58.3149 1498.98 52.7331 1506 54.4036C1514.15 45.1141 1522.32 56.3185 1530.47 54.4036C1538.9 57.6223 1549.98 58.8039 1558.27 54.5666C1562.62 52.6924 1562.81 58.9868 1566.3 66.2798C1570.02 56.0125 1577.98 62.0633 1581.73 61.4114C1593.44 56.4407 1598.66 57.2556 1610.26 54.4036C1618.1 61.6559 1624.35 62.4301 1632.71 63.6524C1643.9 63.4486 1654.16 64.345 1664.68 58.3964C1674.54 45.5216 1683.05 52.4479 1693.72 54.2814C1698.14 46.4587 1702.05 61.0447 1706.54 56.7259C1710.63 51.4293 1700.21 52.6034 1704.3 57.4926C1704.3 57.4926 1711.59 70.607 1711.59 53.4574C1711.59 43.8739 1712.89 25.6588 1712.89 27.2478L1713 27.1255Z" fill="white"/>
<path d="M160.687 36.9161H0V85.2329C533.051 90.7069 1615.81 65.1164 1706.31 62.5488C1711.42 62.4039 1711.42 77.667 1711.42 36.9161L1353.75 50.9339L1142.35 28.2359L1012.54 36.9161L586.613 42.7811L374.754 14.6172L202.76 56.9866L160.687 36.9161Z" fill="white"/>
</g>
</g>
<defs>
<clipPath id="clip0_15214_13147">
<rect width="1712" height="49" fill="white"/>
</clipPath>
</defs>
</svg>
