<svg width="1920" height="191" viewBox="0 0 1920 191" fill="none" xmlns="http://www.w3.org/2000/svg">
<g clip-path="url(#clip0_15148_6941)">
<mask id="mask0_15148_6941" style="mask-type:alpha" maskUnits="userSpaceOnUse" x="-103" y="-338" width="2127" height="419">
<path d="M-22.6447 53.5286C-16.8399 55.3279 2.59568 54.0855 -2.4782 53.4001C-2.3492 51.4722 9.69049 52.7574 22.5042 51.2151C35.3179 48.1305 48.8625 56.656 52.0014 51.6864C60.6012 48.5589 69.029 59.3979 77.4138 54.0855C85.7986 50.8295 94.2264 54.3426 102.826 56.5275C117.962 56.3133 133.957 68.6946 149.093 56.656C157.865 54.0855 164.96 57.213 173.903 53.9142C184.137 52.5432 194.758 63.8107 204.906 59.2694C209.721 66.7239 211.613 57.9842 216.773 53.9142C220.256 53.3144 223.997 44.0177 227.437 54.2141C232.855 47.5307 237.37 48.3876 243.003 49.1159C249.066 52.072 256.031 44.6603 262.18 49.2444C267.555 45.3458 273.661 48.5589 278.907 49.3729C280.025 48.4304 281.358 48.816 281.788 47.4022C288.969 52.6717 296.235 39.0908 303.244 41.9184C314.768 41.0187 326.464 40.0334 337.987 41.9613C348.608 46.0741 359.401 40.1619 369.979 42.0469C378.707 48.3019 386.662 36.4775 395.176 37.5914C401.411 35.7064 406.012 33.7784 410.613 39.9048C414.611 48.3876 417.75 40.7188 422.566 48.3447C431.209 50.6582 438.089 60.2119 447.936 56.5704C460.276 64.539 470.252 71.6936 482.765 61.4115C489.645 61.5829 494.89 59.7835 501.383 58.9267C509.166 63.4251 512.907 65.3101 520.26 63.2537C533.547 68.3519 544.941 72.2077 558.701 71.0082C566.527 77.563 573.192 83.9035 581.275 76.1063C584.027 78.2484 590.219 75.3352 592.541 75.7207C594.218 71.8221 594.175 69.9799 595.766 69.68C600.797 65.2673 618.34 67.8379 623.758 69.2088C630.251 72.9361 635.755 72.1221 642.291 73.6215C649.128 77.4345 656.222 67.1523 663.059 73.5786C668.133 78.6768 678.582 74.0928 683.785 73.75C689.332 75.5494 691.697 60.8974 698.275 68.609C703.435 70.0227 708.595 68.3091 713.712 68.8661C722.57 67.4951 730.611 58.4983 739.554 66.2955C747.466 63.7679 755.335 60.1263 763.247 66.2955C769.482 59.0124 773.696 67.0239 778.726 63.9821C782.123 62.654 784.531 50.4868 788.229 56.5704C792.658 51.9863 798.076 51.4293 802.548 53.6143C803.838 52.5432 805.042 60.469 806.762 51.6436C809.729 52.2005 813.986 51.8578 817.038 51.7293C828.82 47.8307 840.602 56.699 852.384 51.7293C859.435 51.4722 866.702 51.3865 873.754 51.6864C878.226 56.5704 880.806 58.3698 884.934 55.4565C887.514 57.6415 890.997 49.7157 893.405 56.9988C895.425 58.6268 896.372 58.3269 898.091 61.5829C902.95 59.398 908.712 61.3259 914.603 63.8964C918.215 62.0542 921.096 61.2831 924.579 63.3823C924.708 61.3259 926.213 63.6394 926.944 61.3687C934.125 56.956 944.745 60.6404 952.528 61.4973C965.213 64.0678 978.284 61.1117 990.926 61.3688C995.742 60.1263 999.956 61.2402 1004.73 64.0249C1008.43 66.0385 1012.3 70.6226 1015.99 63.9392C1021.93 56.0563 1028.21 66.9382 1034.05 64.1106C1042.35 65.6101 1048.63 59.9978 1057.36 59.0553C1065.49 59.9978 1068.8 53.2716 1075.98 54.0428C1083.72 55.7136 1091.59 57.1274 1099.33 56.6561C1106.03 60.8546 1112.83 60.6404 1119.54 56.6561C1127.02 53.0574 1134.5 56.6561 1141.98 56.6133C1149.51 59.6122 1156.3 65.1817 1163.82 59.3123C1166.02 62.4398 1168.21 61.8828 1170.32 58.6697C1170.96 55.9707 1171.78 57.5558 1172.85 55.6708C1176.55 56.956 1179.18 56.0992 1183.48 54.2142C1189.84 56.8275 1194.57 53.7 1200.55 52.3719C1211.21 48.0449 1223.68 51.6865 1234.69 52.0721C1244.53 51.4294 1241.18 53.7429 1246.94 44.9603C1250.08 38.8339 1249.35 45.9885 1253.13 41.9614C1258.59 44.6604 1265.13 39.8621 1270.68 42.0899C1280.95 38.5769 1291.19 42.7325 1301.46 42.0899C1313.42 37.2488 1325.07 51.7293 1336.64 47.6165C1346.48 50.2298 1355.9 59.141 1365.75 58.6269C1372.8 61.026 1376.28 54.2999 1382.35 65.0532C1387.59 69.1232 1393.22 81.5473 1400.02 76.4063C1410.17 75.8493 1421.69 76.192 1432.01 76.1064C1443.36 75.935 1459.1 71.1796 1469.2 78.4199C1480.77 78.9768 1492.51 81.1618 1504.72 80.9904C1515.17 73.8787 1525.88 84.2464 1537.06 78.5484C1541.7 82.9611 1547.12 70.7083 1551.68 78.6341C1558.94 69.8943 1559.46 65.91 1561.87 66.5955C1567.37 54.8568 1569.95 66.2099 1574.72 60.0406C1579.28 52.2862 1582.51 53.7429 1586.98 59.1838C1590.03 52.4576 1592.31 53.5715 1595.32 56.5276C1598.97 69.98 1603.83 48.2591 1607.62 56.6562C1616.13 50.9153 1624.69 57.0417 1633.2 56.6562C1639.35 58.1128 1652.38 56.142 1657.8 56.5705C1661.37 51.815 1660.85 43.0324 1663.04 49.2445C1665.24 53.1431 1667.39 37.6772 1670.87 44.4891C1678.09 39.3052 1685.06 26.7525 1691.77 39.4337C1698.82 36.092 1707.29 41.0617 1715.89 34.207C1724.49 41.8328 1733.17 39.9478 1740.74 35.8778C1751.06 32.6218 1757.34 52.7576 1768.17 46.9739C1781.29 50.7012 1795.18 42.9896 1808.21 46.8025C1817.62 57.8986 1827.64 56.8704 1836.97 52.3292C1840.84 48.9875 1843.21 53.2288 1846.48 56.6562C1851.42 64.6248 1855.94 64.4106 1861.83 61.6259C1870.94 60.3834 1880.88 66.6383 1889.99 61.4545C1899.32 64.6248 1904.01 59.7408 1913.51 68.909C1916.95 65.2246 1923.57 73.1932 1926.63 68.9947C1930.84 70.1514 1932.39 62.397 1937.33 63.768C1943.91 62.14 1952 61.8401 1958.66 63.9393C1958.66 61.4973 1953.8 26.3241 1953.8 22.6397C1948.81 18.6982 1946.28 18.5269 1939.1 15.3137C1934.37 15.7421 1929.68 16.5133 1924.95 15.3137C1917.94 15.3566 1907.41 13.9856 1901.6 16.7275C1899.06 22.8111 1898.25 19.9835 1895.11 21.3973C1891.41 30.8653 1888.14 25.9814 1884.19 22.5968C1877.74 21.2259 1873.91 18.9981 1868.36 18.9552C1863.42 16.6418 1861.78 9.14444 1855.98 15.7421C1853.96 7.30223 1856.02 6.48823 1856.11 5.75992C1850.04 7.34507 1843.21 0.190479 1836.72 3.83204C1831.08 4.64604 1826.35 0.704623 1820.42 0.661781C1805.8 -8.24935 1790.53 -1.56602 1776.43 2.58965C1764.69 15.3994 1750.55 3.61781 1738.55 3.14655C1726.34 3.01802 1716.66 1.0045 1704.54 10.5583C1693.96 18.9981 1680.54 8.54464 1670.57 10.8581C1667.34 15.7421 1667.73 4.73174 1665.62 14.8424C1662.96 22.0399 1659.52 15.0995 1656.64 16.5133C1653.93 21.3973 1651.22 19.6836 1648.51 18.3126C1645.24 8.24477 1639.91 16.5989 1637.2 20.0263C1632.73 22.8967 1631.95 32.2791 1625.93 25.1245C1620.43 18.484 1614.84 18.484 1609.34 24.9531C1603.79 23.6679 1603.4 30.951 1599.19 28.9374C1594.76 34.3355 1585.99 35.0638 1580.7 36.7347C1575.58 36.5205 1571.24 34.6354 1566.21 39.5194C1559.42 39.905 1552.11 40.8475 1546 48.6447C1541.83 45.4744 1538.82 59.4409 1534.6 58.7125C1528.89 61.9257 1517.49 56.8275 1511.69 59.0125C1502.57 57.8986 1496.81 64.1107 1488.64 55.2852C1485.97 41.9614 1483.48 53.3145 1480.86 52.7575C1478.02 49.2873 1476.51 53.5716 1473.89 47.3166C1468.56 45.5173 1459.61 45.9028 1453.51 42.4755C1446.03 35.6636 1437.51 41.2331 1429.95 42.0042C1425.69 40.9332 1419.97 37.8057 1415.84 42.3469C1407.07 39.7764 1404.23 36.3062 1400.1 25.3815C1397.74 23.1966 1393.87 13.0859 1390 13.3429C1387.2 10.2583 1381.44 15.5707 1378.17 10.5582C1371.47 9.6157 1364.72 -1.65177 1358.09 3.48926C1353.75 -1.7803 1346.23 6.31683 1341.84 3.018C1336.29 5.71704 1332.6 9.44434 1326.45 8.15908C1321.67 7.17372 1315.1 8.97302 1310.41 7.55923C1307.91 2.03262 1305.81 -2.29436 1303.1 3.53214C1299.1 9.82991 1295.23 7.30223 1291.27 2.58961C1286.54 -8.42077 1281.3 3.96053 1276.18 -1.52324C1270.63 6.83094 1264.14 -8.33513 1258.51 -1.73747C1253.31 -7.6925 1248.1 -10.6914 1242.9 -1.73747C1234.9 -5.12198 1228.07 -3.53678 1220.33 0.790254C1212.37 3.96056 1201.28 7.85918 1193.32 0.190467C1187.82 -3.40826 1182.4 -7.99236 1176.85 -4.77922C1169.84 -6.27869 1163.52 -8.59214 1156.77 -10.3915C1151.23 -13.3904 1133.21 -12.7906 1127.79 -11.1198C1128.69 3.78919 1110.94 -2.12307 1103.8 -4.22232C1091.11 -5.20769 1079.8 -2.72282 1067.03 -6.66428C1055.77 -7.04986 1047.6 -14.9328 1036.72 -13.4333C1028.68 -12.5765 1016.08 -18.3173 1007.95 -13.7332C999.268 -12.8763 991.442 -13.3904 982.498 -4.69353C972.179 -8.63499 963.321 -8.42081 953.13 -6.66429C945.433 -5.63609 937.736 -8.5065 930.04 -6.66429C926.428 -5.8503 922.816 -10.7771 919.29 -6.23585C915.979 -4.26512 913.012 -2.76568 909.744 -2.25158C907.723 -0.0666392 905.186 -1.86601 903.251 -1.39475C898.607 -0.537914 895.211 1.68985 890.567 6.48815C886.568 11.0722 880.849 10.5154 876.42 10.4297C871.561 11.0295 868.164 8.58747 863.176 11.3722C856.168 14.4568 851.696 13.8998 845.633 21.3972C834.41 26.7524 818.844 24.139 806.418 24.9102C794.077 30.1798 784.531 24.5675 773.18 29.8799C767.031 35.4922 761.054 38.9624 754.432 41.6186C750.519 48.7732 744.843 42.861 740.887 41.8756C732.46 38.1912 726.397 38.0627 718.313 45.3458C713.712 41.7042 708.466 46.5454 703.521 46.8881C702.059 51.4294 700.382 49.9299 698.92 46.374C697.974 44.1034 697.329 46.1598 695.781 42.2184C691.697 45.8171 687.053 42.7753 683.656 45.6457C671.831 46.4169 659.791 42.4754 647.752 44.2748C640.356 42.4326 632.96 50.1012 625.564 44.3176C614.857 38.791 605.355 42.2612 596.798 40.1191C590.95 43.7178 582.565 24.5246 575.255 30.2226C565.581 35.3208 556.422 29.6656 547.22 27.3093C539.609 21.44 531.569 18.2697 523.614 20.7974C515.315 14.9709 502.802 7.13076 492.44 10.3868C489.473 7.94476 489 15.8277 486.033 15.3136C482.55 18.0555 475.627 10.6438 471.585 15.1422C463.974 14.7995 453.44 2.28965 447.291 17.4557C441.873 20.1119 442.561 21.1829 434.692 22.5967C429.446 20.5832 424.716 19.7263 419.513 19.8977C416.073 22.3397 412.504 22.1255 409.065 19.9834C402.4 16.0847 399.433 25.5528 393.671 16.3418C385.415 18.0554 376.17 16.4275 367.313 7.73056C354.241 3.23216 339.578 -8.54936 325.518 -1.9517C315.628 0.104713 305.738 -3.57972 295.848 -1.78036C285.959 -1.78036 276.069 1.7755 266.179 -1.86607C257.493 -9.74899 244.508 -7.90678 236.51 -0.452278C229.63 1.30424 225.201 7.17357 217.074 5.41705C207.658 15.185 198.198 3.40347 188.781 5.41705C179.02 2.03253 166.207 0.790141 156.618 5.2457C151.587 7.21643 151.071 20.0262 147.029 12.3575C142.729 23.1537 135.29 10.2582 130.947 10.9437C117.403 16.1704 103.772 -2.5087 90.3565 0.490239C81.2837 -7.13563 74.0599 -7.94965 64.3851 -9.23491C51.4424 -9.0207 39.5747 -9.96318 27.406 -3.70826C16.0113 9.8298 6.16453 2.54664 -6.17617 0.618752C-11.293 8.84441 -15.8078 -6.49297 -21.0107 -1.95173C-25.7406 3.61773 -30.5996 3.27494 -35.3294 -1.86609C-35.3294 2.20389 -32.1474 11.3292 -28.9225 25.767C-25.7406 35.9205 -22.5157 55.0709 -22.5157 53.4001L-22.6447 53.5286Z" fill="white"/>
<path d="M1832.25 43.2681L2024 43.2681L2024 -234.773C1387.92 -252.547 88.9629 -297.39 -18.2135 -334.563C-125.39 -371.737 -108.644 -98.1649 -86.8735 43.268L283.22 24.2241L660.85 71.453L815.753 43.268L1324 24.2241L1509.05 71.4531L1701.63 24.2242L1832.25 43.2681Z" fill="white"/>
</mask>
<g mask="url(#mask0_15148_6941)">
<rect x="-214" y="-52" width="2348" height="142" fill="white"/>
</g>
</g>
<defs>
<clipPath id="clip0_15148_6941">
<rect width="1920" height="191" fill="white"/>
</clipPath>
</defs>
</svg>
