<svg width="1699" height="85" viewBox="0 0 1699 85" fill="none" xmlns="http://www.w3.org/2000/svg">
<path d="M0.000734686 58.3599C4.97595 60.0562 21.6335 58.885 17.2849 58.2388C17.3955 56.4213 27.7145 57.6329 38.6968 56.1789C49.6791 53.271 61.2877 61.3082 63.978 56.6232C71.3488 53.6749 78.572 63.8931 85.7584 58.8849C92.9448 55.8155 100.168 59.1273 107.539 61.1871C120.511 60.9851 134.221 72.6573 147.193 61.3083C154.711 58.885 160.792 61.8333 168.457 58.7234C177.228 57.431 186.331 68.0531 195.029 63.7719C199.156 70.7994 200.778 62.5603 205.2 58.7234C208.185 58.158 211.391 49.3938 214.34 59.0062C218.983 52.7056 222.853 53.5134 227.681 54.2C232.877 56.9868 238.847 49.9996 244.117 54.3211C248.724 50.6458 253.957 53.6749 258.453 54.4423C259.411 53.5538 260.554 53.9172 260.922 52.5844C267.077 57.5522 273.305 44.7492 279.312 47.4148C289.189 46.5666 299.213 45.6377 309.09 47.4552C318.193 51.3325 327.443 45.7589 336.509 47.5359C343.99 53.4326 350.808 42.2855 358.105 43.3356C363.448 41.5585 367.392 39.7411 371.335 45.5165C374.762 53.5134 377.453 46.2839 381.58 53.473C388.988 55.6539 394.884 64.6605 403.324 61.2275C413.901 68.7397 422.451 75.4845 433.175 65.7913C439.071 65.9529 443.568 64.2566 449.132 63.4488C455.803 67.6896 459.009 69.4666 465.311 67.528C476.699 72.3342 486.465 75.9692 498.258 74.8383C504.965 81.0177 510.677 86.995 517.606 79.6444C519.965 81.6638 525.271 78.9174 527.261 79.2809C528.699 75.6056 528.662 73.8689 530.026 73.5862C534.337 69.4262 549.373 71.8496 554.017 73.142C559.582 76.6558 564.299 75.8884 569.901 77.302C575.76 80.8965 581.841 71.2033 587.701 77.2615C592.05 82.0677 601.005 77.7462 605.464 77.4231C610.218 79.1194 612.245 65.3067 617.884 72.5765C622.306 73.9093 626.729 72.2939 631.114 72.8189C638.706 71.5265 645.598 63.045 653.263 70.3956C660.044 68.0127 666.788 64.5797 673.569 70.3956C678.913 63.5296 682.525 71.0822 686.836 68.2147C689.748 66.9626 691.812 55.4924 694.981 61.2275C698.777 56.906 703.42 56.3809 707.253 58.4407C708.359 57.431 709.391 64.9028 710.865 56.5829C713.408 57.108 717.056 56.7849 719.673 56.6637C729.771 52.9884 739.868 61.3487 749.966 56.6637C756.01 56.4214 762.238 56.3406 768.282 56.6233C772.115 61.2275 774.326 62.9238 777.864 60.1774C780.075 62.2372 783.06 54.7655 785.124 61.6314C786.856 63.1662 787.667 62.8834 789.141 65.9529C793.306 63.8931 798.244 65.7106 803.293 68.1339C806.389 66.3972 808.858 65.6702 811.843 67.6493C811.953 65.7106 813.243 67.8916 813.87 65.751C820.024 61.5911 829.127 65.0644 835.798 65.8722C846.669 68.2955 857.873 65.5087 868.708 65.751C872.835 64.5798 876.447 65.6298 880.538 68.2551C883.707 70.1533 887.024 74.4748 890.193 68.1743C895.279 60.7429 900.66 71.0015 905.672 68.3359C912.784 69.7494 918.165 64.4586 925.646 63.57C932.611 64.4586 935.449 58.1177 941.604 58.8446C948.237 60.4198 954.981 61.7526 961.615 61.3083C967.364 65.2663 973.187 65.0644 978.936 61.3083C985.349 57.9157 991.761 61.3083 998.173 61.268C1004.62 64.0951 1010.45 69.3455 1016.89 63.8124C1018.77 66.7607 1020.65 66.2357 1022.46 63.2066C1023.01 60.6621 1023.71 62.1565 1024.63 60.3794C1027.8 61.5911 1030.05 60.7833 1033.74 59.0062C1039.19 61.4699 1043.25 58.5216 1048.37 57.2695C1057.51 53.1903 1068.19 56.6234 1077.63 56.9868C1086.07 56.381 1083.19 58.562 1088.13 50.2824C1090.82 44.5069 1090.2 51.2517 1093.44 47.4553C1098.12 49.9997 1103.72 45.4763 1108.48 47.5764C1117.28 44.2646 1126.05 48.1823 1134.86 47.5764C1145.11 43.0126 1155.09 56.6637 1165.01 52.7865C1173.45 55.2501 1181.52 63.6509 1189.96 63.1662C1196 65.4279 1198.99 59.087 1204.18 69.2244C1208.68 73.0613 1213.51 84.7738 1219.33 79.9272C1228.03 79.4022 1237.9 79.7253 1246.75 79.6445C1256.48 79.4829 1269.97 74.9999 1278.63 81.8255C1288.54 82.3505 1298.6 84.4103 1309.07 84.2488C1318.02 77.5444 1327.2 87.3182 1336.78 81.9466C1340.76 86.1066 1345.41 74.5556 1349.31 82.0274C1355.54 73.7883 1355.98 70.0322 1358.05 70.6784C1362.76 59.6121 1364.97 70.3149 1369.07 64.499C1372.97 57.1888 1375.74 58.562 1379.57 63.6912C1382.19 57.3503 1384.14 58.4004 1386.72 61.1872C1389.85 73.869 1394.02 53.3923 1397.26 61.3084C1404.56 55.8964 1411.89 61.6719 1419.19 61.3084C1424.46 62.6816 1435.62 60.8237 1440.27 61.2276C1443.32 56.7445 1442.88 48.465 1444.76 54.3213C1446.64 57.9966 1448.48 43.4165 1451.47 49.8382C1457.66 44.9512 1463.63 33.1175 1469.38 45.0724C1475.42 41.9221 1482.68 46.6071 1490.05 40.145C1497.43 47.3341 1504.87 45.557 1511.36 41.7202C1520.2 38.6507 1525.58 57.6331 1534.87 52.1807C1546.11 55.6945 1558.01 48.4246 1569.18 52.0191C1577.25 62.4796 1585.84 61.5103 1593.83 57.2292C1597.15 54.0789 1599.18 58.0773 1601.98 61.3084C1606.22 68.8205 1610.09 68.6186 1615.14 65.9934C1622.95 64.8222 1631.46 70.7188 1639.27 65.8318C1647.27 68.8205 1651.29 64.2163 1659.43 72.8594C1662.38 69.386 1668.06 76.8982 1670.67 72.9402C1674.28 74.0306 1675.61 66.7204 1679.85 68.0128C1685.49 66.4781 1692.42 66.1953 1698.13 68.1743C1698.13 65.8722 1698.13 45.7312 1698.13 42.2578C1693.85 38.5421 1687.52 25.3631 1681.36 22.334C1677.31 22.7379 1673.29 23.4648 1669.24 22.334C1663.23 22.3744 1654.2 21.082 1649.22 23.6668C1647.05 29.4019 1646.35 26.7363 1643.66 28.0691C1640.49 36.9948 1637.69 32.3906 1634.3 29.1999C1628.77 27.9075 1625.49 25.8073 1620.74 25.7669C1616.5 23.586 1615.1 16.5181 1610.12 22.7378C1608.39 14.7814 1610.16 14.014 1610.23 13.3274C1605.04 14.8218 1599.18 8.07696 1593.61 11.5099C1588.79 12.2773 1584.73 8.56167 1579.65 8.52128C1567.12 0.120563 1554.03 6.42108 1541.94 10.3387C1531.88 22.4147 1519.76 11.308 1509.48 10.8637C1499.01 10.7426 1490.72 8.84436 1480.33 17.8509C1471.26 25.8073 1459.76 15.9526 1451.21 18.1336C1448.45 22.7378 1448.78 12.3581 1446.97 21.8897C1444.69 28.6749 1441.74 22.132 1439.27 23.4648C1436.95 28.069 1434.63 26.4535 1432.31 25.1611C1429.5 15.6699 1424.94 23.5456 1422.61 26.7766C1418.78 29.4826 1418.12 38.3276 1412.96 31.5828C1408.24 25.3226 1403.45 25.3227 1398.73 31.4212C1393.98 30.2096 1393.65 37.0755 1390.04 35.1773C1386.24 40.2662 1378.72 40.9528 1374.19 42.528C1369.8 42.326 1366.08 40.5489 1361.77 45.1531C1355.95 45.5166 1349.68 46.4052 1344.45 53.7558C1340.87 50.7671 1338.29 63.9336 1334.68 63.247C1329.78 66.2761 1320.01 61.4699 1315.04 63.5297C1307.23 62.4796 1302.29 68.3359 1295.29 60.016C1293 47.4553 1290.86 58.1581 1288.61 57.633C1286.18 54.3616 1284.89 58.4004 1282.64 52.5038C1278.07 50.8075 1270.41 51.171 1265.18 47.9399C1258.76 41.5182 1251.47 46.7687 1244.98 47.4956C1241.33 46.4859 1236.43 43.5376 1232.89 47.8188C1225.37 45.3955 1222.94 42.124 1219.4 31.8251C1217.38 29.7653 1214.06 20.2337 1210.74 20.4761C1208.35 17.5681 1203.41 22.5763 1200.61 17.8509C1194.86 16.9623 1189.07 6.34023 1183.4 11.1868C1179.68 6.21907 1173.23 13.8524 1169.47 10.7425C1164.71 13.287 1161.54 16.8008 1156.27 15.5891C1152.18 14.6602 1146.54 16.3565 1142.53 15.0236C1140.39 9.8136 1138.58 5.73446 1136.26 11.2272C1132.84 17.1643 1129.52 14.7814 1126.13 10.3387C1122.07 -0.0410431 1117.58 11.6311 1113.19 6.46141C1108.44 14.3371 1102.87 0.0396971 1098.05 6.25945C1093.59 0.645516 1089.13 -2.18164 1084.67 6.25945C1077.81 3.0688 1071.95 4.56319 1065.32 8.64239C1058.5 11.6311 1048.99 15.3064 1042.18 8.07695C1037.46 4.68436 1031.38 19.4259 1026.63 22.455C1020.62 21.0414 1015.2 18.8605 1009.42 17.1642C1004.66 14.337 989.221 14.9025 984.577 16.4776C985.351 30.5326 970.131 24.959 964.013 22.98C953.141 22.0511 943.449 24.3936 932.503 20.6779C922.848 20.3144 915.846 12.883 906.522 14.2966C899.63 15.1044 888.832 9.6924 881.867 14.0139C874.422 14.8217 867.715 14.337 860.05 22.5358C851.205 18.8201 843.613 19.022 834.879 20.6779C828.282 21.6472 821.685 18.9412 815.089 20.6779C811.993 21.4453 808.897 16.8007 805.875 21.0818C803.037 22.9397 800.495 24.3532 797.694 24.8379C795.962 26.8977 793.787 25.2014 792.129 25.6456C788.149 26.4534 786.672 9.49045 782.692 14.0139C779.265 18.3354 774.363 17.8104 770.567 17.7297C766.403 18.2951 763.491 15.993 759.216 18.6182C753.209 21.5261 749.377 21.0011 744.18 28.069C734.561 33.1175 721.221 30.6538 710.57 31.3808C699.993 36.3485 691.812 31.0577 682.082 36.0658C676.812 41.3566 671.69 44.6281 666.014 47.1321C662.661 53.8769 657.796 48.3034 654.406 47.3744C647.182 43.9011 641.986 43.7799 635.057 50.6459C631.114 47.2129 626.618 51.7767 622.38 52.0998C621.127 56.381 619.69 54.9674 618.437 51.6152C617.626 49.4746 617.073 51.4132 615.746 47.6975C612.245 51.0901 608.265 48.2226 605.354 50.9286C595.219 51.6556 584.9 47.9399 574.581 49.6362C568.242 47.8995 561.904 55.1289 555.565 49.6765C546.388 44.4665 538.244 47.7379 530.91 45.7185C525.898 49.1111 518.711 31.0173 512.446 36.3889C504.154 41.1951 496.305 35.8638 488.418 33.6425C481.895 28.1093 475.003 25.1206 468.186 27.5035C461.073 22.0108 450.349 14.6197 441.467 17.6892C438.924 15.3871 438.519 22.8185 435.976 22.3339C432.991 24.9187 427.057 17.9315 423.593 22.1723C417.07 21.8492 408.041 10.0559 402.771 24.3533C398.127 26.8573 398.717 27.867 391.973 29.1998C387.477 27.3016 383.423 26.4938 378.964 26.6553C376.015 28.9575 372.956 28.7555 370.008 26.7361C364.296 23.0608 361.753 31.9866 356.815 23.3031C349.739 24.9186 337.221 25.888 329.629 17.6892C326.534 20.1932 310.195 18.1533 298.144 24.3731C289.668 26.3117 281.192 22.8383 272.715 24.5346C264.239 24.5346 255.763 27.8868 247.287 24.4538C239.842 17.0224 228.712 18.7591 221.858 25.7866C215.961 27.4425 212.165 32.9757 205.2 31.3197C197.129 40.5282 189.021 29.4215 180.95 31.3197C172.585 28.1291 161.603 26.9579 153.384 31.1582C149.072 33.0161 148.888 26.7765 145.424 19.5471C141.739 29.7248 133.851 23.7268 130.129 24.3731C118.52 29.3004 113.35 28.4926 101.851 31.3197C94.0753 24.1307 87.8838 23.3633 79.5918 22.1516C68.4989 22.3536 58.3274 21.4651 47.898 27.3617C38.1318 40.1243 29.6924 33.2584 19.1155 31.4409C14.73 39.1954 10.8604 24.7365 6.40113 29.0176C2.34729 34.2681 12.6827 33.1042 8.62891 28.2577C8.62891 28.2577 1.40113 15.2577 1.40113 32.2577C1.40113 41.7577 0.11133 59.8139 0.11133 58.2388L0.000734686 58.3599Z" fill="white"/>
<path d="M1538.84 48.6533L1698.13 48.6533L1698.13 0.757812C1169.71 -4.66847 96.3497 20.6988 6.62891 23.244C1.56507 23.3877 1.56507 8.25766 1.56507 48.6532L356.129 34.7577L565.695 57.2577L694.381 48.6533L1116.61 42.8395L1326.63 70.7578L1497.13 28.7578L1538.84 48.6533Z" fill="white"/>
</svg>
