<svg width="2000" height="191" viewBox="0 0 2000 191" fill="none" xmlns="http://www.w3.org/2000/svg">
<g clip-path="url(#clip0_15155_6955)">
<mask id="mask0_15155_6955" style="mask-type:alpha" maskUnits="userSpaceOnUse" x="-436" y="95" width="2641" height="419">
<path d="M2105.23 122.471C2098.02 120.672 2073.89 121.914 2080.19 122.6C2080.03 124.528 2065.08 123.242 2049.17 124.785C2033.26 127.869 2016.44 119.344 2012.54 124.313C2001.86 127.441 1991.4 116.602 1980.99 121.914C1970.58 125.17 1960.11 121.657 1949.43 119.472C1930.64 119.686 1910.78 107.305 1891.99 119.344C1881.1 121.914 1872.29 118.787 1861.18 122.086C1848.47 123.457 1835.29 112.189 1822.69 116.73C1816.71 109.276 1814.36 118.016 1807.95 122.086C1803.63 122.685 1798.98 131.982 1794.71 121.786C1787.98 128.469 1782.38 127.612 1775.38 126.884C1767.86 123.928 1759.21 131.339 1751.57 126.755C1744.9 130.654 1737.32 127.441 1730.8 126.627C1729.41 127.569 1727.76 127.184 1727.23 128.598C1718.31 123.328 1709.29 136.909 1700.58 134.081C1686.28 134.981 1671.75 135.966 1657.45 134.039C1644.26 129.926 1630.86 135.838 1617.72 133.953C1606.89 127.698 1597.01 139.522 1586.44 138.408C1578.7 140.293 1572.98 142.221 1567.27 136.095C1562.3 127.612 1558.41 135.281 1552.43 127.655C1541.7 125.342 1533.15 115.788 1520.93 119.429C1505.6 111.461 1493.22 104.306 1477.68 114.588C1469.14 114.417 1462.63 116.216 1454.56 117.073C1444.9 112.575 1440.26 110.69 1431.13 112.746C1414.63 107.648 1400.48 103.792 1383.4 104.992C1373.68 98.4369 1365.4 92.0963 1355.37 99.8936C1351.95 97.7515 1344.26 100.665 1341.38 100.279C1339.3 104.178 1339.35 106.02 1337.37 106.32C1331.13 110.733 1309.34 108.162 1302.62 106.791C1294.55 103.064 1287.72 103.878 1279.61 102.378C1271.12 98.5654 1262.31 108.848 1253.82 102.421C1247.52 97.323 1234.54 101.907 1228.08 102.25C1221.2 100.45 1218.26 115.102 1210.09 107.391C1203.68 105.977 1197.28 107.691 1190.92 107.134C1179.93 108.505 1169.94 117.502 1158.84 109.704C1149.01 112.232 1139.24 115.874 1129.42 109.704C1121.68 116.987 1116.45 108.976 1110.2 112.018C1105.98 113.346 1102.99 125.513 1098.4 119.429C1092.9 124.014 1086.17 124.571 1080.62 122.386C1079.02 123.457 1077.52 115.531 1075.39 124.356C1071.71 123.799 1066.42 124.142 1062.63 124.271C1048 128.169 1033.37 119.301 1018.74 124.271C1009.99 124.528 1000.96 124.613 992.208 124.313C986.655 119.429 983.452 117.63 978.327 120.543C975.123 118.358 970.799 126.284 967.809 119.001C965.299 117.373 964.125 117.673 961.989 114.417C955.956 116.602 948.802 114.674 941.487 112.103C937.003 113.946 933.426 114.717 929.101 112.618C928.941 114.674 927.072 112.361 926.165 114.631C917.249 119.044 904.061 115.359 894.398 114.503C878.648 111.932 862.417 114.888 846.721 114.631C840.741 115.874 835.509 114.76 829.582 111.975C824.991 109.961 820.186 105.377 815.594 112.061C808.226 119.944 800.432 109.062 793.171 111.889C782.866 110.39 775.071 116.002 764.233 116.945C754.143 116.002 750.032 122.728 741.115 121.957C731.505 120.286 721.735 118.873 712.125 119.344C703.796 115.145 695.36 115.359 687.032 119.344C677.742 122.943 668.452 119.344 659.162 119.387C649.819 116.388 641.383 110.818 632.04 116.688C629.317 113.56 626.594 114.117 623.978 117.33C623.177 120.029 622.163 118.444 620.828 120.329C616.237 119.044 612.98 119.901 607.641 121.786C599.739 119.172 593.866 122.3 586.445 123.628C573.204 127.955 557.721 124.313 544.054 123.928C531.827 124.57 535.992 122.257 528.837 131.04C524.94 137.166 525.848 130.011 521.149 134.039C514.369 131.34 506.254 136.138 499.366 133.91C486.606 137.423 473.899 133.267 461.139 133.91C446.297 138.751 431.828 124.271 417.466 128.383C405.24 125.77 393.548 116.859 381.321 117.373C372.565 114.974 368.241 121.7 360.713 110.947C354.199 106.877 347.205 94.4526 338.77 99.5937C326.17 100.151 311.861 99.8079 299.048 99.8936C284.953 100.065 265.412 104.82 252.865 97.5801C238.504 97.0231 223.928 94.8382 208.765 95.0095C195.792 102.121 182.498 91.7536 168.616 97.4516C162.85 93.0388 156.123 105.292 150.464 97.3659C141.441 106.106 140.8 110.09 137.81 109.404C130.976 121.143 127.773 109.79 121.847 115.959C116.187 123.714 112.183 122.257 106.631 116.816C102.84 123.542 100.01 122.428 96.273 119.472C91.7349 106.02 85.7018 127.741 81.0035 119.344C70.4323 125.085 59.8078 118.958 49.2366 119.344C41.6018 117.887 25.4247 119.858 18.6976 119.43C14.2662 124.185 14.9069 132.968 12.184 126.755C9.46114 122.857 6.79165 138.323 2.46707 131.511C-6.50242 136.695 -15.1516 149.248 -23.4804 136.566C-32.2363 139.908 -42.7541 134.938 -53.4321 141.793C-64.11 134.167 -74.8948 136.052 -84.2914 140.122C-97.105 143.378 -104.9 123.242 -118.354 129.026C-134.638 125.299 -151.883 133.01 -168.06 129.197C-179.752 118.101 -192.192 119.13 -203.778 123.671C-208.583 127.012 -211.519 122.771 -215.577 119.344C-221.717 111.375 -227.323 111.589 -234.637 114.374C-245.956 115.617 -258.289 109.362 -269.608 114.546C-281.193 111.375 -287.013 116.259 -298.812 107.091C-303.083 110.775 -311.305 102.807 -315.096 107.005C-320.328 105.849 -322.25 113.603 -328.39 112.232C-336.558 113.86 -346.596 114.16 -354.871 112.061C-354.871 114.503 -348.838 149.676 -348.838 153.36C-342.645 157.302 -339.495 157.473 -330.579 160.686C-324.706 160.258 -318.886 159.487 -313.013 160.686C-304.311 160.643 -291.23 162.014 -284.023 159.272C-280.873 153.189 -279.858 156.017 -275.961 154.603C-271.369 145.135 -267.312 150.019 -262.4 153.403C-254.391 154.774 -249.64 157.002 -242.752 157.045C-236.613 159.358 -234.584 166.856 -227.376 160.258C-224.867 168.698 -227.43 169.512 -227.536 170.24C-220.008 168.655 -211.519 175.81 -203.458 172.168C-196.463 171.354 -190.591 175.295 -183.223 175.338C-165.07 184.249 -146.117 177.566 -128.605 173.41C-114.03 160.601 -96.4643 172.382 -81.5685 172.853C-66.4058 172.982 -54.3931 174.995 -39.3372 165.442C-26.2033 157.002 -9.54564 167.455 2.8408 165.142C6.84504 160.258 6.36454 171.268 8.98064 161.158C12.2908 153.96 16.562 160.9 20.1391 159.487C23.5027 154.603 26.8663 156.316 30.2298 157.687C34.2874 167.755 40.9078 159.401 44.2713 155.974C49.8239 153.103 50.7849 143.721 58.2595 150.875C65.0934 157.516 72.034 157.516 78.8679 151.047C85.7552 152.332 86.2357 145.049 91.4679 147.063C96.9671 141.664 107.859 140.936 114.426 139.265C120.779 139.479 126.171 141.365 132.418 136.481C140.854 136.095 149.93 135.152 157.511 127.355C162.69 130.526 166.427 116.559 171.659 117.287C178.76 114.074 192.909 119.172 200.116 116.987C211.435 118.101 218.589 111.889 228.733 120.715C232.043 134.039 235.14 122.685 238.397 123.242C241.92 126.713 243.789 122.428 247.046 128.683C253.666 130.483 264.771 130.097 272.353 133.524C281.643 140.336 292.214 134.767 301.61 133.996C306.896 135.067 313.997 138.194 319.122 133.653C330.014 136.224 333.537 139.694 338.663 150.618C341.599 152.803 346.404 162.914 351.209 162.657C354.68 165.742 361.834 160.429 365.892 165.442C374.22 166.384 382.603 177.652 390.825 172.511C396.217 177.78 405.56 169.683 411.006 172.982C417.893 170.283 422.485 166.556 430.12 167.841C436.046 168.826 444.215 167.027 450.034 168.441C453.131 173.967 455.747 178.294 459.11 172.468C464.076 166.17 468.881 168.698 473.793 173.41C479.665 184.421 486.179 172.039 492.532 177.523C499.42 169.169 507.482 184.335 514.476 177.737C520.936 183.692 527.396 186.691 533.856 177.737C543.787 181.122 552.276 179.537 561.886 175.21C571.763 172.039 585.537 168.141 595.415 175.809C602.249 179.408 608.976 183.992 615.863 180.779C624.565 182.279 632.414 184.592 640.796 186.391C647.683 189.39 670.054 188.791 676.781 187.12C675.659 172.211 697.709 178.123 706.572 180.222C722.322 181.208 736.364 178.723 752.221 182.664C766.209 183.05 776.353 190.933 789.86 189.433C799.844 188.576 815.488 194.317 825.578 189.733C836.363 188.876 846.08 189.39 857.185 180.693C869.999 184.635 880.997 184.421 893.65 182.664C903.207 181.636 912.764 184.506 922.321 182.664C926.805 181.85 931.29 186.777 935.668 182.236C939.779 180.265 943.463 178.766 947.521 178.251C950.03 176.067 953.18 177.866 955.582 177.395C961.348 176.538 965.566 174.31 971.332 169.512C976.298 164.928 983.399 165.485 988.898 165.57C994.931 164.97 999.148 167.412 1005.34 164.628C1014.04 161.543 1019.6 162.1 1027.12 154.603C1041.06 149.247 1060.39 151.861 1075.82 151.09C1091.14 145.82 1102.99 151.432 1117.09 146.12C1124.72 140.508 1132.14 137.037 1140.36 134.381C1145.22 127.227 1152.27 133.139 1157.18 134.124C1167.65 137.809 1175.17 137.937 1185.21 130.654C1190.92 134.296 1197.44 129.454 1203.58 129.112C1205.39 124.57 1207.48 126.07 1209.29 129.626C1210.47 131.896 1211.27 129.84 1213.19 133.781C1218.26 130.183 1224.03 133.225 1228.24 130.354C1242.93 129.583 1257.88 133.524 1272.82 131.725C1282.01 133.567 1291.19 125.899 1300.37 131.682C1313.67 137.209 1325.47 133.739 1336.09 135.881C1343.35 132.282 1353.76 151.475 1362.84 145.777C1374.85 140.679 1386.22 146.334 1397.65 148.691C1407.1 154.56 1417.08 157.73 1426.96 155.202C1437.27 161.029 1452.8 168.869 1465.67 165.613C1469.35 168.055 1469.94 160.172 1473.62 160.686C1477.95 157.944 1486.54 165.356 1491.56 160.858C1501.01 161.2 1514.09 173.71 1521.73 158.544C1528.46 155.888 1527.6 154.817 1537.37 153.403C1543.89 155.417 1549.76 156.274 1556.22 156.102C1560.49 153.66 1564.92 153.874 1569.19 156.016C1577.47 159.915 1581.15 150.447 1588.31 159.658C1598.56 157.944 1610.03 159.572 1621.03 168.269C1637.26 172.768 1655.47 184.549 1672.93 177.952C1685.21 175.895 1697.49 179.58 1709.77 177.78C1722.05 177.78 1734.33 174.224 1746.61 177.866C1757.39 185.749 1773.51 183.907 1783.45 176.452C1791.99 174.696 1797.49 168.826 1807.58 170.583C1819.27 160.815 1831.02 172.596 1842.71 170.583C1854.83 173.967 1870.74 175.21 1882.64 170.754C1888.89 168.783 1889.53 155.974 1894.55 163.642C1899.89 152.846 1909.12 165.742 1914.52 165.056C1931.34 159.829 1948.26 178.508 1964.92 175.51C1976.18 183.135 1985.15 183.949 1997.16 185.235C2013.24 185.02 2027.97 185.963 2043.08 179.708C2057.23 166.17 2069.45 173.453 2084.78 175.381C2091.13 167.155 2096.74 182.493 2103.2 177.952C2109.07 172.382 2115.1 172.725 2120.98 177.866C2120.98 173.796 2117.02 164.671 2113.02 150.233C2109.07 140.079 2105.07 120.929 2105.07 122.6L2105.23 122.471Z" fill="white"/>
<path d="M-197.918 132.732L-436 132.732L-436 410.773C353.793 428.547 1966.65 473.389 2099.72 510.563C2232.8 547.737 2212.01 274.165 2184.98 132.732L1725.45 151.776L1256.56 104.547L1064.23 132.732L433.154 151.776L203.389 104.547L-35.7319 151.776L-197.918 132.732Z" fill="white"/>
</mask>
<g mask="url(#mask0_15155_6955)">
<rect x="2342.82" y="228" width="2915.41" height="142" transform="rotate(180 2342.82 228)" fill="white"/>
</g>
</g>
<defs>
<clipPath id="clip0_15155_6955">
<rect width="2000" height="191" fill="white" transform="translate(2000 191) rotate(180)"/>
</clipPath>
</defs>
</svg>
