<svg width="2000" height="191" viewBox="0 0 2000 191" fill="none" xmlns="http://www.w3.org/2000/svg">
<g clip-path="url(#clip0_15148_6941)">
<mask id="mask0_15148_6941" style="mask-type:alpha" maskUnits="userSpaceOnUse" x="-205" y="-323" width="2641" height="419">
<path d="M-105.226 68.5286C-98.0181 70.3279 -73.8859 69.0855 -80.1859 68.4001C-80.0257 66.4722 -65.0766 67.7574 -49.1664 66.2151C-33.2562 63.1305 -16.4385 71.656 -12.5411 66.6864C-1.86309 63.5589 8.60134 74.3979 19.0124 69.0855C29.4234 65.8295 39.8878 69.3426 50.5658 71.5275C69.359 71.3133 89.2201 83.6946 108.013 71.656C118.905 69.0855 127.714 72.213 138.819 68.9142C151.526 67.5432 164.713 78.8107 177.313 74.2694C183.293 81.7239 185.642 72.9842 192.049 68.9142C196.373 68.3144 201.018 59.0177 205.29 69.2141C212.017 62.5307 217.623 63.3876 224.617 64.1159C232.145 67.072 240.794 59.6603 248.428 64.2444C255.102 60.3458 262.684 63.5589 269.197 64.3729C270.585 63.4304 272.24 63.816 272.774 62.4022C281.69 67.6717 290.713 54.0908 299.416 56.9184C313.724 56.0187 328.246 55.0334 342.555 56.9613C355.742 61.0741 369.143 55.1619 382.277 57.0469C393.115 63.3019 402.992 51.4775 413.563 52.5914C421.305 50.7064 427.018 48.7784 432.73 54.9048C437.696 63.3876 441.593 55.7188 447.573 63.3447C458.304 65.6582 466.846 75.2119 479.073 71.5704C494.396 79.539 506.782 86.6936 522.318 76.4115C530.861 76.5829 537.374 74.7835 545.436 73.9267C555.1 78.4251 559.745 80.3101 568.874 78.2537C585.372 83.3519 599.52 87.2077 616.605 86.0082C626.322 92.563 634.597 98.9035 644.635 91.1063C648.052 93.2484 655.74 90.3352 658.623 90.7207C660.705 86.8221 660.651 84.9799 662.627 84.68C668.874 80.2673 690.656 82.8379 697.384 84.2088C705.445 87.9361 712.279 87.1221 720.395 88.6215C728.884 92.4345 737.693 82.1523 746.182 88.5786C752.482 93.6768 765.456 89.0928 771.916 88.75C778.803 90.5494 781.74 75.8974 789.908 83.609C796.315 85.0227 802.722 83.3091 809.075 83.8661C820.074 82.4951 830.057 73.4983 841.163 81.2955C850.986 78.7679 860.757 75.1263 870.58 81.2955C878.322 74.0124 883.554 82.0239 889.801 78.9821C894.018 77.654 897.008 65.4868 901.6 71.5704C907.099 66.9863 913.826 66.4293 919.379 68.6143C920.98 67.5432 922.475 75.469 924.611 66.6436C928.295 67.2005 933.58 66.8578 937.371 66.7293C952 62.8307 966.629 71.699 981.257 66.7293C990.013 66.4722 999.036 66.3865 1007.79 66.6864C1013.34 71.5704 1016.55 73.3698 1021.67 70.4565C1024.88 72.6415 1029.2 64.7157 1032.19 71.9988C1034.7 73.6268 1035.88 73.3269 1038.01 76.5829C1044.04 74.398 1051.2 76.3259 1058.51 78.8964C1063 77.0542 1066.57 76.2831 1070.9 78.3823C1071.06 76.3259 1072.93 78.6394 1073.84 76.3687C1082.75 71.956 1095.94 75.6404 1105.6 76.4973C1121.35 79.0678 1137.58 76.1117 1153.28 76.3688C1159.26 75.1263 1164.49 76.2402 1170.42 79.0249C1175.01 81.0385 1179.81 85.6226 1184.41 78.9392C1191.77 71.0563 1199.57 81.9382 1206.83 79.1106C1217.13 80.6101 1224.93 74.9978 1235.77 74.0553C1245.86 74.9978 1249.97 68.2716 1258.88 69.0428C1268.49 70.7136 1278.27 72.1274 1287.88 71.6561C1296.2 75.8546 1304.64 75.6404 1312.97 71.6561C1322.26 68.0574 1331.55 71.6561 1340.84 71.6133C1350.18 74.6122 1358.62 80.1817 1367.96 74.3123C1370.68 77.4398 1373.41 76.8828 1376.02 73.6697C1376.82 70.9707 1377.84 72.5558 1379.17 70.6708C1383.76 71.956 1387.02 71.0992 1392.36 69.2142C1400.26 71.8275 1406.13 68.7 1413.55 67.3719C1426.8 63.0449 1442.28 66.6865 1455.95 67.0721C1468.17 66.4294 1464.01 68.7429 1471.16 59.9603C1475.06 53.8339 1474.15 60.9885 1478.85 56.9614C1485.63 59.6604 1493.75 54.8621 1500.63 57.0899C1513.39 53.5769 1526.1 57.7325 1538.86 57.0899C1553.7 52.2488 1568.17 66.7293 1582.53 62.6165C1594.76 65.2298 1606.45 74.141 1618.68 73.6269C1627.43 76.026 1631.76 69.2999 1639.29 80.0532C1645.8 84.1232 1652.79 96.5473 1661.23 91.4063C1673.83 90.8493 1688.14 91.192 1700.95 91.1064C1715.05 90.935 1734.59 86.1796 1747.13 93.4199C1761.5 93.9768 1776.07 96.1618 1791.23 95.9904C1804.21 88.8787 1817.5 99.2464 1831.38 93.5484C1837.15 97.9611 1843.88 85.7083 1849.54 93.6341C1858.56 84.8943 1859.2 80.91 1862.19 81.5955C1869.02 69.8568 1872.23 81.2099 1878.15 75.0406C1883.81 67.2862 1887.82 68.7429 1893.37 74.1838C1897.16 67.4576 1899.99 68.5715 1903.73 71.5276C1908.27 84.98 1914.3 63.2591 1919 71.6562C1929.57 65.9153 1940.19 72.0417 1950.76 71.6562C1958.4 73.1128 1974.58 71.142 1981.3 71.5705C1985.73 66.815 1985.09 58.0324 1987.82 64.2445C1990.54 68.1431 1993.21 52.6772 1997.53 59.4891C2006.5 54.3052 2015.15 41.7525 2023.48 54.4337C2032.24 51.092 2042.75 56.0617 2053.43 49.207C2064.11 56.8328 2074.89 54.9478 2084.29 50.8778C2097.1 47.6218 2104.9 67.7576 2118.35 61.9739C2134.64 65.7012 2151.88 57.9896 2168.06 61.8025C2179.75 72.8986 2192.19 71.8704 2203.78 67.3292C2208.58 63.9875 2211.52 68.2288 2215.58 71.6562C2221.72 79.6248 2227.32 79.4106 2234.64 76.6259C2245.96 75.3834 2258.29 81.6383 2269.61 76.4545C2281.19 79.6248 2287.01 74.7408 2298.81 83.909C2303.08 80.2246 2311.3 88.1932 2315.1 83.9947C2320.33 85.1514 2322.25 77.397 2328.39 78.768C2336.56 77.14 2346.6 76.8401 2354.87 78.9393C2354.87 76.4973 2348.84 41.3241 2348.84 37.6397C2342.64 33.6982 2339.49 33.5269 2330.58 30.3137C2324.71 30.7421 2318.89 31.5133 2313.01 30.3137C2304.31 30.3566 2291.23 28.9856 2284.02 31.7275C2280.87 37.8111 2279.86 34.9835 2275.96 36.3973C2271.37 45.8653 2267.31 40.9814 2262.4 37.5968C2254.39 36.2259 2249.64 33.9981 2242.75 33.9552C2236.61 31.6418 2234.58 24.1444 2227.38 30.7421C2224.87 22.3022 2227.43 21.4882 2227.54 20.7599C2220.01 22.3451 2211.52 15.1905 2203.46 18.832C2196.46 19.646 2190.59 15.7046 2183.22 15.6618C2165.07 6.75065 2146.12 13.434 2128.6 17.5897C2114.03 30.3994 2096.46 18.6178 2081.57 18.1465C2066.41 18.018 2054.39 16.0045 2039.34 25.5583C2026.2 33.9981 2009.55 23.5446 1997.16 25.8581C1993.15 30.7421 1993.64 19.7317 1991.02 29.8424C1987.71 37.0399 1983.44 30.0995 1979.86 31.5133C1976.5 36.3973 1973.13 34.6836 1969.77 33.3126C1965.71 23.2448 1959.09 31.5989 1955.73 35.0263C1950.18 37.8967 1949.22 47.2791 1941.74 40.1245C1934.91 33.484 1927.97 33.484 1921.13 39.9531C1914.24 38.6679 1913.76 45.951 1908.53 43.9374C1903.03 49.3355 1892.14 50.0638 1885.57 51.7347C1879.22 51.5205 1873.83 49.6354 1867.58 54.5194C1859.15 54.905 1850.07 55.8475 1842.49 63.6447C1837.31 60.4744 1833.57 74.4409 1828.34 73.7125C1821.24 76.9257 1807.09 71.8275 1799.88 74.0125C1788.57 72.8986 1781.41 79.1107 1771.27 70.2852C1767.96 56.9614 1764.86 68.3145 1761.6 67.7575C1758.08 64.2873 1756.21 68.5716 1752.95 62.3166C1746.33 60.5173 1735.23 60.9028 1727.65 57.4755C1718.36 50.6636 1707.79 56.2331 1698.39 57.0042C1693.1 55.9332 1686 52.8057 1680.88 57.3469C1669.99 54.7764 1666.46 51.3062 1661.34 40.3815C1658.4 38.1966 1653.6 28.0859 1648.79 28.3429C1645.32 25.2583 1638.17 30.5707 1634.11 25.5582C1625.78 24.6157 1617.4 13.3482 1609.18 18.4893C1603.78 13.2197 1594.44 21.3168 1588.99 18.018C1582.11 20.717 1577.52 24.4443 1569.88 23.1591C1563.95 22.1737 1555.79 23.973 1549.97 22.5592C1546.87 17.0326 1544.25 12.7056 1540.89 18.5321C1535.92 24.8299 1531.12 22.3022 1526.21 17.5896C1520.33 6.57923 1513.82 18.9605 1507.47 13.4768C1500.58 21.8309 1492.52 6.66487 1485.52 13.2625C1479.06 7.3075 1472.6 4.30856 1466.14 13.2625C1456.21 9.87802 1447.72 11.4632 1438.11 15.7903C1428.24 18.9606 1414.46 22.8592 1404.59 15.1905C1397.75 11.5917 1391.02 7.00764 1384.14 10.2208C1375.43 8.72131 1367.59 6.40786 1359.2 4.6085C1352.32 1.60956 1329.95 2.20935 1323.22 3.88019C1324.34 18.7892 1302.29 12.8769 1293.43 10.7777C1277.68 9.79231 1263.64 12.2772 1247.78 8.33572C1233.79 7.95014 1223.65 0.0672112 1210.14 1.56668C1200.16 2.42352 1184.51 -3.31727 1174.42 1.26682C1163.64 2.12366 1153.92 1.60955 1142.82 10.3065C1130 6.36501 1119 6.57919 1106.35 8.33571C1096.79 9.36391 1087.24 6.4935 1077.68 8.33571C1073.19 9.1497 1068.71 4.22291 1064.33 8.76415C1060.22 10.7349 1056.54 12.2343 1052.48 12.7484C1049.97 14.9334 1046.82 13.134 1044.42 13.6052C1038.65 14.4621 1034.43 16.6899 1028.67 21.4881C1023.7 26.0722 1016.6 25.5154 1011.1 25.4297C1005.07 26.0295 1000.85 23.5875 994.658 26.3722C985.956 29.4568 980.403 28.8998 972.875 36.3972C958.94 41.7524 939.613 39.139 924.184 39.9102C908.861 45.1798 897.008 39.5675 882.913 44.8799C875.279 50.4922 867.857 53.9624 859.635 56.6186C854.777 63.7732 847.729 57.861 842.818 56.8756C832.353 53.1912 824.825 53.0627 814.788 60.3458C809.075 56.7042 802.562 61.5454 796.422 61.8881C794.607 66.4294 792.524 64.9299 790.709 61.374C789.535 59.1034 788.734 61.1598 786.812 57.2184C781.74 60.8171 775.974 57.7753 771.756 60.6457C757.074 61.4169 742.124 57.4754 727.175 59.2748C717.992 57.4326 708.809 65.1012 699.626 59.3176C686.332 53.791 674.533 57.2612 663.908 55.1191C656.647 58.7178 646.236 39.5246 637.16 45.2226C625.147 50.3208 613.775 44.6656 602.35 42.3093C592.9 36.44 582.916 33.2697 573.039 35.7974C562.735 29.9709 547.198 22.1308 534.331 25.3868C530.647 22.9448 530.06 30.8277 526.376 30.3136C522.051 33.0555 513.456 25.6438 508.437 30.1422C498.987 29.7995 485.907 17.2897 478.272 32.4557C471.545 35.1119 472.399 36.1829 462.628 37.5967C456.115 35.5832 450.242 34.7263 443.782 34.8977C439.511 37.3397 435.079 37.1255 430.808 34.9834C422.533 31.0847 418.849 40.5528 411.695 31.3418C401.444 33.0554 389.965 31.4275 378.967 22.7306C362.736 18.2322 344.53 6.45064 327.072 13.0483C314.792 15.1047 302.512 11.4203 290.233 13.2196C277.953 13.2196 265.673 16.7755 253.394 13.1339C242.609 5.25101 226.485 7.09322 216.555 14.5477C208.012 16.3042 202.513 22.1736 192.423 20.417C180.73 30.185 168.984 18.4035 157.292 20.417C145.173 17.0325 129.262 15.7901 117.357 20.2457C111.11 22.2164 110.469 35.0262 105.451 27.3575C100.112 38.1537 90.8751 25.2582 85.4828 25.9437C68.665 31.1704 51.7404 12.4913 35.0828 15.4902C23.8175 7.86437 14.848 7.05035 2.83525 5.76509C-13.2351 5.9793 -27.9707 5.03682 -43.08 11.2917C-57.2283 24.8298 -69.4546 17.5466 -84.7775 15.6188C-91.1309 23.8444 -96.7367 8.50703 -103.197 13.0483C-109.07 18.6177 -115.103 18.2749 -120.976 13.1339C-120.976 17.2039 -117.025 26.3292 -113.021 40.767C-109.07 50.9205 -105.066 70.0709 -105.066 68.4001L-105.226 68.5286Z" fill="white"/>
<path d="M2197.92 58.2681L2436 58.2681L2436 -219.773C1646.21 -237.547 33.3516 -282.39 -99.7246 -319.563C-232.801 -356.737 -212.008 -83.1649 -184.977 58.268L274.552 39.2241L743.438 86.453L935.774 58.268L1566.85 39.2241L1796.61 86.4531L2035.73 39.2242L2197.92 58.2681Z" fill="white"/>
</mask>
<g mask="url(#mask0_15148_6941)">
<rect x="-342.824" y="-37" width="2915.41" height="142" fill="white"/>
</g>
</g>
<defs>
<clipPath id="clip0_15148_6941">
<rect width="2000" height="191" fill="white"/>
</clipPath>
</defs>
</svg>
