<svg width="1699" height="85" viewBox="0 0 1699 85" fill="none" xmlns="http://www.w3.org/2000/svg">
<path d="M1698.13 25.8977C1693.15 24.2014 1676.5 25.3727 1680.84 26.0189C1680.73 27.8364 1670.41 26.6248 1659.43 28.0787C1648.45 30.9867 1636.84 22.9494 1634.15 27.6345C1626.78 30.5828 1619.56 20.3646 1612.37 25.3727C1605.18 28.4422 1597.96 25.1304 1590.59 23.0706C1577.62 23.2725 1563.91 11.6004 1550.94 22.9494C1543.42 25.3727 1537.34 22.4244 1529.67 25.5343C1520.9 26.8267 1511.8 16.2046 1503.1 20.4858C1498.97 13.4582 1497.35 21.6974 1492.93 25.5343C1489.94 26.0997 1486.74 34.8639 1483.79 25.2515C1479.15 31.552 1475.28 30.7443 1470.45 30.0577C1465.25 27.2709 1459.28 34.2581 1454.01 29.9365C1449.41 33.6118 1444.17 30.5828 1439.68 29.8154C1438.72 30.7039 1437.58 30.3404 1437.21 31.6733C1431.05 26.7055 1424.82 39.5085 1418.82 36.8429C1408.94 37.6911 1398.92 38.6199 1389.04 36.8025C1379.94 32.9252 1370.69 38.4988 1361.62 36.7218C1354.14 30.8251 1347.32 41.9722 1340.02 40.9221C1334.68 42.6992 1330.74 44.5166 1326.79 38.7412C1323.37 30.7443 1320.68 37.9738 1316.55 30.7847C1309.14 28.6038 1303.24 19.5972 1294.81 23.0302C1284.23 15.518 1275.68 8.77323 1264.95 18.4664C1259.06 18.3048 1254.56 20.0011 1249 20.8089C1242.33 16.5681 1239.12 14.7911 1232.82 16.7297C1221.43 11.9235 1211.66 8.28855 1199.87 9.41942C1193.16 3.24005 1187.45 -2.73732 1180.52 4.61329C1178.16 2.59389 1172.86 5.34026 1170.87 4.97677C1169.43 8.65208 1169.47 10.3888 1168.1 10.6715C1163.79 14.8315 1148.76 12.4081 1144.11 11.1157C1138.55 7.60195 1133.83 8.36933 1128.23 6.95575C1122.37 3.36121 1116.29 13.0544 1110.43 6.99617C1106.08 2.19 1097.12 6.51148 1092.66 6.83459C1087.91 5.13829 1085.88 18.951 1080.25 11.6812C1075.82 10.3484 1071.4 11.9639 1067.01 11.4388C1059.42 12.7312 1052.53 21.2127 1044.87 13.8621C1038.08 16.245 1031.34 19.678 1024.56 13.8621C1019.22 20.7281 1015.6 13.1755 1011.29 16.043C1008.38 17.2951 1006.32 28.7653 1003.15 23.0302C999.352 27.3517 994.708 27.8768 990.876 25.817C989.77 26.8267 988.738 19.3549 987.264 27.6748C984.721 27.1498 981.073 27.4729 978.456 27.594C968.358 31.2693 958.261 22.909 948.163 27.594C942.119 27.8364 935.891 27.9172 929.847 27.6345C926.014 23.0302 923.803 21.3339 920.265 24.0803C918.054 22.0205 915.068 29.4923 913.005 22.6263C911.273 21.0916 910.462 21.3743 908.988 18.3048C904.823 20.3646 899.885 18.5471 894.836 16.1238C891.74 17.8605 889.271 18.5875 886.286 16.6085C886.175 18.5471 884.886 16.3662 884.259 18.5067C878.105 22.6667 869.002 19.1933 862.331 18.3856C851.46 15.9623 840.256 18.749 829.421 18.5067C825.294 19.678 821.682 18.6279 817.591 16.0027C814.422 14.1044 811.105 9.78295 807.936 16.0835C802.85 23.5149 797.469 13.2563 792.457 15.9219C785.345 14.5083 779.964 19.7992 772.483 20.6877C765.518 19.7992 762.68 26.1401 756.525 25.4131C749.892 23.838 743.148 22.5052 736.514 22.9494C730.765 18.9914 724.942 19.1933 719.193 22.9494C712.78 26.342 706.368 22.9494 699.956 22.9898C693.506 20.1626 687.683 14.9122 681.234 20.4454C679.354 17.4971 677.475 18.0221 675.669 21.0512C675.116 23.5956 674.416 22.1013 673.495 23.8783C670.325 22.6667 668.077 23.4744 664.392 25.2515C658.938 22.7878 654.884 25.7362 649.761 26.9882C640.622 31.0674 629.934 27.6344 620.5 27.2709C612.06 27.8767 614.935 25.6958 609.997 33.9753C607.306 39.7508 607.933 33.006 604.69 36.8025C600.009 34.258 594.408 38.7815 589.653 36.6813C580.845 39.9931 572.074 36.0755 563.266 36.6813C553.021 41.2452 543.034 27.5941 533.12 31.4713C524.681 29.0076 516.61 20.6069 508.171 21.0916C502.127 18.8298 499.142 25.1707 493.945 15.0333C489.449 11.1965 484.621 -0.516014 478.799 4.33055C470.101 4.85559 460.225 4.53252 451.38 4.61329C441.65 4.77485 428.162 9.25788 419.502 2.43231C409.588 1.90726 399.527 -0.152551 389.061 0.00900132C380.105 6.71341 370.929 -3.06046 361.347 2.31115C357.367 -1.84882 352.723 9.70214 348.817 2.23035C342.589 10.4695 342.146 14.2256 340.083 13.5794C335.365 24.6457 333.154 13.9429 329.063 19.7588C325.157 27.069 322.393 25.6958 318.56 20.5665C315.944 26.9075 313.99 25.8574 311.411 23.0706C308.278 10.3887 304.114 30.8655 300.871 22.9494C293.574 28.3614 286.24 22.5859 278.943 22.9494C273.673 21.5762 262.506 23.4341 257.863 23.0302C254.804 27.5133 255.246 35.7928 253.367 29.9365C251.487 26.2612 249.645 40.8413 246.659 34.4196C240.468 39.3066 234.498 51.1403 228.749 39.1854C222.705 42.3357 215.445 37.6507 208.074 44.1128C200.703 36.9237 193.259 38.7008 186.773 42.5376C177.928 45.6071 172.547 26.6247 163.26 32.0771C152.02 28.5633 140.116 35.8332 128.95 32.2387C120.879 21.7782 112.292 22.7475 104.295 27.0286C100.978 30.1789 98.9512 26.1805 96.1504 22.9494C91.9122 15.4373 88.0426 15.6392 82.9937 18.2644C75.1808 19.4357 66.6677 13.539 58.8548 18.426C50.8576 15.4373 46.8406 20.0415 38.696 11.3985C35.7477 14.8718 30.0723 7.35963 27.4557 11.3177C23.8441 10.2272 22.5174 17.5374 18.2793 16.245C12.6407 17.7797 5.71227 18.0625 0 16.0835C0 18.3856 0 38.5266 0 42C4.27499 45.7157 10.6138 58.8947 16.7683 61.9238C20.8221 61.52 24.8391 60.793 28.893 61.9238C34.9001 61.8835 43.9292 63.1759 48.9044 60.591C51.0787 54.8559 51.7789 57.5216 54.4692 56.1887C57.6386 47.263 60.4395 51.8672 63.83 55.0579C69.358 56.3503 72.6379 58.4505 77.392 58.4909C81.6301 60.6718 83.0306 67.7398 88.0058 61.52C89.7379 69.4764 87.9689 70.2438 87.8952 70.9304C93.0915 69.436 98.9512 76.1808 104.516 72.7479C109.344 71.9805 113.398 75.6961 118.483 75.7365C131.014 84.1372 144.097 77.8367 156.184 73.9191C166.245 61.8431 178.37 72.9498 188.652 73.3941C199.119 73.5152 207.411 75.4134 217.803 66.4069C226.869 58.4505 238.367 68.3052 246.917 66.1242C249.681 61.52 249.35 71.8997 251.156 62.3681C253.44 55.5829 256.389 62.1258 258.858 60.793C261.18 56.1887 263.501 57.8043 265.823 59.0967C268.624 68.5879 273.194 60.7122 275.516 57.4812C279.348 54.7752 280.012 45.9302 285.171 52.675C289.888 58.9352 294.679 58.9351 299.397 52.8365C304.151 54.0482 304.482 47.1822 308.094 49.0805C311.89 43.9916 319.408 43.305 323.941 41.7298C328.326 41.9318 332.049 43.7089 336.36 39.1046C342.183 38.7411 348.448 37.8526 353.682 30.502C357.256 33.4907 359.836 20.3242 363.448 21.0108C368.349 17.9817 378.115 22.7879 383.09 20.7281C390.903 21.7782 395.842 15.9219 402.844 24.2418C405.129 36.8025 407.266 26.0997 409.514 26.6248C411.947 29.8962 413.237 25.8573 415.485 31.754C420.054 33.4503 427.72 33.0868 432.953 36.3179C439.366 42.7395 446.662 37.4891 453.149 36.7621C456.797 37.7718 461.699 40.7201 465.237 36.439C472.755 38.8623 475.187 42.1337 478.725 52.4327C480.752 54.4925 484.069 64.024 487.385 63.7817C489.781 66.6897 494.719 61.6815 497.52 66.4069C503.269 67.2954 509.055 77.9175 514.731 73.071C518.453 78.0387 524.902 70.4054 528.661 73.5152C533.415 70.9708 536.585 67.457 541.855 68.6686C545.945 69.5975 551.584 67.9013 555.601 69.2341C557.738 74.4442 559.544 78.5233 561.866 73.0305C565.293 67.0935 568.61 69.4764 572.001 73.9191C576.055 84.2988 580.551 72.6267 584.936 77.7964C589.69 69.9207 595.255 84.2181 600.083 77.9983C604.542 83.6122 609.001 86.4394 613.461 77.9983C620.315 81.189 626.175 79.6946 632.809 75.6154C639.627 72.6267 649.135 68.9513 655.953 76.1808C660.67 79.5734 666.748 64.8318 671.502 61.8027C677.509 63.2163 682.927 65.3973 688.713 67.0936C693.467 69.9207 708.908 69.3553 713.552 67.7801C712.778 53.7251 727.998 59.2987 734.116 61.2777C744.988 62.2067 754.68 59.8641 765.626 63.5798C775.281 63.9433 782.283 71.3747 791.607 69.9611C798.499 69.1534 809.297 74.5653 816.262 70.2438C823.707 69.4361 830.414 69.9207 838.079 61.7219C846.924 65.4376 854.516 65.2357 863.25 63.5798C869.847 62.6105 876.444 65.3165 883.04 63.5798C886.136 62.8124 889.232 67.457 892.254 63.1759C895.091 61.3181 897.634 59.9045 900.435 59.4199C902.167 57.3601 904.342 59.0564 906 58.6121C909.98 57.8044 911.457 74.7673 915.437 70.2438C918.864 65.9223 923.766 66.4473 927.562 66.5281C931.726 65.9626 934.637 68.2647 938.912 65.6395C944.92 62.7316 948.752 63.2567 953.949 56.1887C963.567 51.1402 976.908 53.6039 987.559 52.877C998.136 47.9092 1006.32 53.2001 1016.05 48.1919C1021.32 42.9011 1026.44 39.6297 1032.11 37.1256C1035.47 30.3808 1040.33 35.9544 1043.72 36.8833C1050.95 40.3567 1056.14 40.4778 1063.07 33.6119C1067.01 37.0448 1071.51 32.481 1075.75 32.1579C1077 27.8768 1078.44 29.2903 1079.69 32.6425C1080.5 34.7831 1081.06 32.8445 1082.38 36.5602C1085.88 33.1676 1089.86 36.0351 1092.78 33.3291C1102.91 32.6021 1113.23 36.3179 1123.55 34.6216C1129.89 36.3582 1136.23 29.1288 1142.56 34.5812C1151.74 39.7912 1159.89 36.5198 1167.22 38.5392C1172.23 35.1466 1179.42 53.2404 1185.68 47.8688C1193.97 43.0626 1201.82 48.3939 1209.71 50.6152C1216.23 56.1484 1223.13 59.1371 1229.94 56.7542C1237.06 62.2469 1247.78 69.638 1256.66 66.5685C1259.2 68.8706 1259.61 61.4392 1262.15 61.9238C1265.14 59.339 1271.07 66.3262 1274.54 62.0854C1281.06 62.4085 1290.09 74.2018 1295.36 59.9044C1300 57.4004 1299.41 56.3907 1306.16 55.0579C1310.65 56.9561 1314.71 57.7639 1319.17 57.6024C1322.11 55.3002 1325.17 55.5022 1328.12 57.5216C1333.83 61.1969 1336.38 52.2711 1341.31 60.9546C1348.39 59.339 1360.91 58.3697 1368.5 66.5685C1371.59 64.0645 1387.93 66.1044 1399.98 59.8846C1408.46 57.946 1416.94 61.4194 1425.41 59.7231C1433.89 59.7231 1442.37 56.3709 1450.84 59.8039C1458.29 67.2353 1469.42 65.4986 1476.27 58.4711C1482.17 56.8152 1485.96 51.282 1492.93 52.9379C1501 43.7295 1509.11 54.8362 1517.18 52.9379C1525.54 56.1286 1536.53 57.2998 1544.74 53.0995C1549.06 51.2416 1549.24 57.4812 1552.7 64.7106C1556.39 54.5328 1564.28 60.5308 1568 59.8846C1579.61 54.9573 1584.78 55.7651 1596.28 52.9379C1604.05 60.127 1610.25 60.8944 1618.54 62.106C1629.63 61.9041 1639.8 62.7926 1650.23 56.8959C1660 44.1333 1668.44 50.9993 1679.01 52.8168C1683.4 45.0623 1687.27 59.5212 1691.73 55.24C1695.78 49.9896 1685.45 51.1534 1689.5 56C1689.5 56 1696.73 69 1696.73 52C1696.73 42.5 1698.02 24.4438 1698.02 26.0189L1698.13 25.8977Z" fill="white"/>
<path d="M159.292 35.6045H0V83.5C528.423 88.9262 1601.78 63.5589 1691.5 61.0136C1696.56 60.87 1696.56 76 1696.56 35.6045L1342 49.5L1132.43 27L1003.75 35.6045L581.52 41.4183L371.5 13.5L201 55.5L159.292 35.6045Z" fill="white"/>
</svg>
