<svg width="1823" height="395" viewBox="0 0 1823 395" fill="none" xmlns="http://www.w3.org/2000/svg">
<mask id="mask0_15076_15508" style="mask-type:alpha" maskUnits="userSpaceOnUse" x="0" y="0" width="1823" height="395">
<path d="M68.8718 369.102C73.847 370.798 90.5048 369.627 86.156 368.981C86.2666 367.163 96.5856 368.375 107.568 366.921C118.55 364.013 130.159 372.05 132.849 367.365C140.22 364.417 147.443 374.635 154.63 369.627C161.816 366.558 169.039 369.869 176.41 371.929C189.382 371.727 203.092 383.399 216.064 372.05C223.582 369.627 229.663 372.575 237.328 369.466C246.099 368.173 255.202 378.795 263.9 374.514C268.027 381.542 269.649 373.302 274.071 369.466C277.056 368.9 280.263 360.136 283.211 369.748C287.854 363.448 291.724 364.256 296.552 364.942C301.748 367.729 307.718 360.742 312.988 365.063C317.595 361.388 322.828 364.417 327.324 365.184C328.282 364.296 329.425 364.659 329.793 363.327C335.948 368.294 342.176 355.491 348.183 358.157C358.06 357.309 368.084 356.38 377.961 358.197C387.063 362.075 396.314 356.501 405.38 358.278C412.861 364.175 419.679 353.028 426.976 354.078C432.319 352.301 436.263 350.483 440.206 356.259C443.633 364.256 446.324 357.026 450.451 364.215C457.859 366.396 463.755 375.403 472.195 371.97C482.772 379.482 491.322 386.227 502.046 376.534C507.943 376.695 512.439 374.999 518.003 374.191C524.674 378.432 527.88 380.209 534.182 378.27C545.57 383.076 555.336 386.711 567.129 385.58C573.836 391.76 579.549 397.737 586.477 390.387C588.836 392.406 594.142 389.66 596.133 390.023C597.57 386.348 597.533 384.611 598.897 384.328C603.208 380.168 618.245 382.592 622.888 383.884C628.453 387.398 633.17 386.631 638.772 388.044C644.631 391.639 650.712 381.946 656.572 388.004C660.921 392.81 669.876 388.488 674.335 388.165C679.089 389.862 681.116 376.049 686.755 383.319C691.177 384.652 695.6 383.036 699.985 383.561C707.577 382.269 714.469 373.787 722.134 381.138C728.915 378.755 735.659 375.322 742.44 381.138C747.784 374.272 751.396 381.824 755.708 378.957C758.619 377.705 760.683 366.235 763.852 371.97C767.648 367.648 772.292 367.123 776.124 369.183C777.23 368.173 778.262 375.645 779.736 367.325C782.279 367.85 785.927 367.527 788.544 367.406C798.642 363.731 808.739 372.091 818.837 367.406C824.881 367.164 831.109 367.083 837.153 367.365C840.986 371.97 843.197 373.666 846.735 370.92C848.946 372.979 851.932 365.508 853.995 372.374C855.727 373.908 856.538 373.626 858.012 376.695C862.177 374.635 867.115 376.453 872.164 378.876C875.26 377.139 877.729 376.412 880.714 378.391C880.825 376.453 882.114 378.634 882.741 376.493C888.895 372.333 897.998 375.807 904.669 376.614C915.54 379.038 926.744 376.251 937.579 376.493C941.706 375.322 945.318 376.372 949.409 378.997C952.578 380.895 955.895 385.217 959.064 378.916C964.15 371.485 969.531 381.744 974.543 379.078C981.655 380.492 987.036 375.201 994.517 374.312C1001.48 375.201 1004.32 368.86 1010.47 369.587C1017.11 371.162 1023.85 372.495 1030.49 372.051C1036.24 376.009 1042.06 375.807 1047.81 372.051C1054.22 368.658 1060.63 372.051 1067.04 372.01C1073.49 374.837 1079.32 380.088 1085.77 374.555C1087.65 377.503 1089.53 376.978 1091.33 373.949C1091.88 371.404 1092.58 372.899 1093.51 371.122C1096.67 372.333 1098.92 371.526 1102.61 369.748C1108.06 372.212 1112.12 369.264 1117.24 368.012C1126.38 363.933 1137.07 367.366 1146.5 367.729C1154.94 367.123 1152.07 369.304 1157 361.025C1159.69 355.249 1159.07 361.994 1162.31 358.197C1166.99 360.742 1172.59 356.218 1177.35 358.319C1186.15 355.007 1194.93 358.924 1203.73 358.319C1213.98 353.755 1223.97 367.406 1233.88 363.529C1242.32 365.992 1250.39 374.393 1258.83 373.908C1264.87 376.17 1267.86 369.829 1273.05 379.967C1277.55 383.803 1282.38 395.516 1288.2 390.669C1296.9 390.144 1306.78 390.467 1315.62 390.387C1325.35 390.225 1338.84 385.742 1347.5 392.568C1357.41 393.093 1367.47 395.153 1377.94 394.991C1386.89 388.287 1396.07 398.06 1405.65 392.689C1409.63 396.849 1414.28 385.298 1418.18 392.77C1424.41 384.53 1424.85 380.774 1426.92 381.421C1431.63 370.354 1433.85 381.057 1437.94 375.241C1441.84 367.931 1444.61 369.304 1448.44 374.433C1451.06 368.093 1453.01 369.143 1455.59 371.929C1458.72 384.611 1462.89 364.134 1466.13 372.051C1473.43 366.639 1480.76 372.414 1488.06 372.051C1493.33 373.424 1504.49 371.566 1509.14 371.97C1512.2 367.487 1511.75 359.207 1513.63 365.063C1515.51 368.739 1517.36 354.159 1520.34 360.58C1526.53 355.693 1532.5 343.86 1538.25 355.815C1544.3 352.664 1551.56 357.349 1558.93 350.887C1566.3 358.076 1573.74 356.299 1580.23 352.462C1589.07 349.393 1594.45 368.375 1603.74 362.923C1614.98 366.437 1626.88 359.167 1638.05 362.761C1646.12 373.222 1654.71 372.253 1662.71 367.971C1666.02 364.821 1668.05 368.82 1670.85 372.051C1675.09 379.563 1678.96 379.361 1684.01 376.736C1691.82 375.564 1700.33 381.461 1708.15 376.574C1716.14 379.563 1720.16 374.959 1728.3 383.602C1731.25 380.128 1736.93 387.64 1739.54 383.682C1743.16 384.773 1744.48 377.463 1748.72 378.755C1754.36 377.22 1761.29 376.938 1767 378.917C1767 376.614 1762.84 343.456 1762.84 339.982C1758.56 336.267 1756.39 336.105 1750.23 333.076C1746.18 333.48 1742.16 334.207 1738.11 333.076C1732.1 333.117 1723.07 331.824 1718.1 334.409C1715.92 340.144 1715.22 337.478 1712.53 338.811C1709.36 347.737 1706.56 343.133 1703.17 339.942C1697.64 338.65 1694.36 336.549 1689.61 336.509C1685.37 334.328 1683.97 327.26 1678.99 333.48C1677.26 325.524 1679.03 324.756 1679.1 324.07C1673.91 325.564 1668.05 318.819 1662.48 322.252C1657.66 323.02 1653.6 319.304 1648.52 319.263C1635.99 310.863 1622.9 317.163 1610.82 321.081C1600.75 333.157 1588.63 322.05 1578.35 321.606C1567.88 321.485 1559.59 319.587 1549.2 328.593C1540.13 336.55 1528.63 326.695 1520.08 328.876C1517.32 333.48 1517.65 323.1 1515.84 332.632C1513.56 339.417 1510.61 332.874 1508.14 334.207C1505.82 338.811 1503.5 337.196 1501.18 335.903C1498.38 326.412 1493.81 334.288 1491.48 337.519C1487.65 340.225 1486.99 349.07 1481.83 342.325C1477.11 336.065 1472.32 336.065 1467.6 342.163C1462.85 340.952 1462.52 347.818 1458.91 345.919C1455.11 351.008 1447.59 351.695 1443.06 353.27C1438.67 353.068 1434.95 351.291 1430.64 355.895C1424.82 356.259 1418.55 357.147 1413.32 364.498C1409.74 361.509 1407.16 374.676 1403.55 373.989C1398.65 377.018 1388.88 372.212 1383.91 374.272C1376.1 373.222 1371.16 379.078 1364.16 370.758C1361.87 358.197 1359.73 368.9 1357.49 368.375C1355.05 365.104 1353.76 369.143 1351.52 363.246C1346.95 361.55 1339.28 361.913 1334.05 358.682C1327.63 352.26 1320.34 357.511 1313.85 358.238C1310.2 357.228 1305.3 354.28 1301.76 358.561C1294.25 356.138 1291.81 352.866 1288.28 342.567C1286.25 340.507 1282.93 330.976 1279.61 331.218C1277.22 328.31 1272.28 333.318 1269.48 328.593C1263.73 327.705 1257.94 317.082 1252.27 321.929C1248.55 316.961 1242.1 324.595 1238.34 321.485C1233.58 324.029 1230.42 327.543 1225.15 326.331C1221.05 325.402 1215.42 327.099 1211.4 325.766C1209.26 320.556 1207.46 316.477 1205.13 321.969C1201.71 327.906 1198.39 325.524 1195 321.081C1190.95 310.701 1186.45 322.373 1182.06 317.204C1177.31 325.079 1171.74 310.782 1166.92 317.002C1162.46 311.388 1158 308.561 1153.54 317.002C1146.68 313.811 1140.82 315.305 1134.19 319.385C1127.37 322.373 1117.87 326.049 1111.05 318.819C1106.33 315.427 1101.69 311.105 1096.93 314.134C1090.93 312.721 1085.51 310.54 1079.72 308.843C1074.97 306.016 1059.53 306.582 1054.88 308.157C1055.66 322.212 1040.44 316.638 1034.32 314.659C1023.45 313.73 1013.75 316.073 1002.81 312.357C993.154 311.994 986.151 304.562 976.828 305.976C969.936 306.783 959.138 301.372 952.173 305.693C944.728 306.501 938.021 306.016 930.355 314.215C921.511 310.499 913.919 310.701 905.185 312.357C898.588 313.326 891.991 310.62 885.394 312.357C882.299 313.124 879.203 308.48 876.181 312.761C873.343 314.619 870.8 316.032 868 316.517C866.268 318.577 864.093 316.88 862.435 317.325C858.455 318.132 855.543 320.233 851.563 324.756C848.136 329.078 843.234 328.553 839.438 328.472C835.274 329.037 832.362 326.735 828.088 329.36C822.08 332.268 818.248 331.743 813.051 338.811C803.433 343.86 790.092 341.396 779.441 342.123C768.864 347.091 760.683 341.8 750.953 346.808C745.683 352.099 740.561 355.37 734.885 357.874C731.532 364.619 726.667 359.046 723.277 358.117C716.053 354.643 710.857 354.522 703.929 361.388C699.985 357.955 695.489 362.519 691.251 362.842C689.998 367.123 688.561 365.71 687.308 362.357C686.497 360.217 685.944 362.155 684.617 358.44C681.116 361.832 677.136 358.965 674.225 361.671C664.09 362.398 653.771 358.682 643.452 360.378C637.114 358.642 630.775 365.871 624.436 360.419C615.259 355.209 607.115 358.48 599.781 356.461C594.769 359.853 587.583 341.759 581.318 347.131C573.026 351.937 565.176 346.606 557.289 344.385C550.766 338.851 543.875 335.863 537.057 338.246C529.944 332.753 519.22 325.362 510.338 328.431C507.795 326.129 507.39 333.561 504.847 333.076C501.862 335.661 495.928 328.674 492.464 332.914C485.941 332.591 476.912 320.798 471.642 335.095C466.999 337.6 467.588 338.609 460.844 339.942C456.348 338.044 452.294 337.236 447.835 337.398C444.886 339.7 441.828 339.498 438.879 337.478C433.167 333.803 430.624 342.729 425.686 334.045C418.61 335.661 410.687 334.126 403.095 325.927C391.891 321.687 379.324 310.58 367.273 316.8C358.797 318.738 350.321 315.265 341.844 316.961C333.368 316.961 324.892 320.313 316.416 316.88C308.971 309.449 297.842 311.186 290.987 318.213C285.09 319.869 281.294 325.402 274.329 323.746C266.258 332.955 258.151 321.848 250.08 323.746C241.714 320.556 230.732 319.384 222.513 323.585C218.202 325.443 217.759 337.519 214.295 330.289C210.61 340.467 204.234 328.31 200.512 328.956C188.903 333.884 177.221 316.275 165.722 319.102C157.946 311.913 151.755 311.145 143.463 309.934C132.37 310.136 122.198 309.247 111.769 315.144C102.003 327.906 93.5635 321.04 82.9866 319.223C78.6011 326.977 74.7316 312.519 70.2722 316.8C66.2184 322.05 62.054 321.727 58 316.88C58 320.717 60.7273 329.32 63.4912 342.931C66.2184 352.503 68.9824 370.556 68.9824 368.981L68.8718 369.102Z" fill="white"/>
<path d="M1658.66 359.429L1823 359.429L1823 97.3141C1277.83 80.5578 164.527 38.2841 72.6684 3.23965C-19.1899 -31.8048 -4.83702 226.098 13.8217 359.429L331.02 341.476L654.677 386L787.441 359.429L1223.05 341.476L1381.65 386L1546.71 341.476L1658.66 359.429Z" fill="white"/>
</mask>
<g mask="url(#mask0_15076_15508)">
<rect y="304" width="1823" height="105" fill="white"/>
</g>
</svg>
