<svg width="49" height="50" viewBox="0 0 49 50" fill="none" xmlns="http://www.w3.org/2000/svg">
<path d="M24.4998 42C15.2878 42 7.83984 34.4 7.83984 25C7.83984 15.6 15.2878 8 24.4998 8C33.7118 8 41.1598 15.6 41.1598 25C41.1598 34.4 33.7118 42 24.4998 42ZM24.4998 10C16.3658 10 9.79984 16.7 9.79984 25C9.79984 33.3 16.3658 40 24.4998 40C32.6338 40 39.1998 33.3 39.1998 25C39.1998 16.7 32.6338 10 24.4998 10Z" fill="#EEEEEE"/>
<path d="M24.2079 34.7008L22.8359 33.3008L30.9699 25.0008L22.8359 16.7008L24.2079 15.3008L33.7139 25.0008L24.2079 34.7008Z" fill="#EEEEEE"/>
<path d="M15.6797 24H32.3397V26H15.6797V24Z" fill="#EEEEEE"/>
</svg>
