<svg width="42" height="42" viewBox="0 0 42 42" fill="none" xmlns="http://www.w3.org/2000/svg">
<path d="M20.8077 34.8345C13.1863 34.8347 7.02411 28.6497 7.02387 20.9995C7.02363 13.3493 13.1854 7.16387 20.8069 7.16363C28.4283 7.16339 34.5905 13.3484 34.5907 20.9986C34.591 28.6488 28.4292 34.8342 20.8077 34.8345ZM20.8069 8.79132C14.0774 8.79154 8.64524 14.2445 8.64545 20.9994C8.64566 27.7544 14.0781 33.207 20.8077 33.2068C27.5372 33.2066 32.9694 27.7536 32.9691 20.9987C32.9689 14.2437 27.5365 8.79111 20.8069 8.79132Z" fill="#628511"/>
<path d="M20.5614 28.8941L19.4262 27.7547L26.1556 20.9996L19.4258 14.2449L20.5609 13.1054L28.4258 20.9995L20.5614 28.8941Z" fill="#628511"/>
<path d="M13.5078 20.1836L27.2912 20.1832L27.2913 21.8109L13.5079 21.8113L13.5078 20.1836Z" fill="#628511"/>
</svg>
