<svg width="1611" height="1262" viewBox="0 0 1611 1262" fill="none" xmlns="http://www.w3.org/2000/svg">
<g opacity="0.05" clip-path="url(#clip0_15076_14908)">
<path d="M986.493 1260.21C739.563 1260.21 492.235 1265.25 245.371 1258.55C228.516 1258.55 90.0864 1165.42 47.6816 1091.54C1.95875 1011.88 -11.4462 926.719 40.0501 847.993C149.413 680.718 359.181 639.165 537.029 579.954C613.742 554.399 730.272 528.577 784.224 462.397C872.285 354.465 692.845 329.041 622.303 306.605C500.198 267.773 370.329 243.678 251.941 194.956C178.081 164.487 11.9129 77.4644 -7 0C38.5901 32.393 66.9927 44.4076 99.3769 58.6128C146.958 78.4601 179.74 91.2049 231.966 109.26C323.213 140.79 417.711 163.359 513.935 173.648C703.993 193.96 898.83 205.443 1085.84 245.736C1132.89 255.892 1179.74 267.176 1226.72 277.73C1269.66 287.422 1316.77 291.67 1357.05 310.19C1413.59 336.144 1468.67 395.487 1465.55 461.6C1462.1 536.675 1385.59 593.894 1352.94 657.286C1314.71 731.432 1309.27 815.335 1346.1 891.273C1386.65 974.778 1463.5 1038.97 1539.21 1089.61C1577.11 1114.9 1616.66 1137.41 1655.81 1160.57C1696.56 1184.67 1723.3 1199.67 1831.93 1258.95C1728.41 1261.4 1651.17 1259.61 1592.5 1259.68C1525.15 1259.74 1457.86 1259.81 1390.5 1259.88C1255.85 1259.88 1121.14 1259.88 986.493 1259.88V1260.21Z" fill="#2F476F"/>
</g>
<defs>
<clipPath id="clip0_15076_14908">
<rect width="1839" height="1262" fill="white"/>
</clipPath>
</defs>
</svg>
