<svg width="192" height="2001" viewBox="0 0 192 2001" fill="none" xmlns="http://www.w3.org/2000/svg">
<g clip-path="url(#clip0_15630_8605)">
<mask id="mask0_15630_8605" style="mask-type:alpha" maskUnits="userSpaceOnUse" x="95" y="-205" width="420" height="2642">
<path d="M122.972 -104.726C121.172 -97.5181 122.415 -73.3859 123.1 -79.6859C125.028 -79.5257 123.743 -64.5766 125.285 -48.6664C128.37 -32.7562 119.844 -15.9385 124.814 -12.0411C127.941 -1.36309 117.102 9.10134 122.415 19.5124C125.671 29.9234 122.158 40.3878 119.973 51.0658C120.187 69.859 107.805 89.7201 119.844 108.513C122.415 119.405 119.287 128.214 122.586 139.319C123.957 152.026 112.689 165.213 117.231 177.813C109.776 183.793 118.516 186.142 122.586 192.549C123.186 196.873 132.482 201.518 122.286 205.79C128.969 212.517 128.113 218.123 127.384 225.117C124.428 232.645 131.84 241.294 127.256 248.928C131.154 255.602 127.941 263.184 127.127 269.697C128.07 271.085 127.684 272.74 129.098 273.274C123.828 282.19 137.409 291.213 134.582 299.916C135.481 314.224 136.467 328.746 134.539 343.055C130.426 356.242 136.338 369.643 134.453 382.777C128.198 393.615 140.023 403.492 138.909 414.063C140.794 421.805 142.722 427.518 136.595 433.23C128.113 438.196 135.781 442.093 128.155 448.073C125.842 458.804 116.288 467.346 119.93 479.573C111.961 494.896 104.806 507.282 115.089 522.818C114.917 531.361 116.717 537.874 117.573 545.936C113.075 555.6 111.19 560.245 113.246 569.374C108.148 585.872 104.292 600.02 105.492 617.105C98.9371 626.822 92.5965 635.097 100.394 645.135C98.2517 648.552 101.165 656.24 100.779 659.123C104.678 661.205 106.52 661.151 106.82 663.127C111.233 669.374 108.662 691.156 107.291 697.884C103.564 705.945 104.378 712.779 102.879 720.895C99.0656 729.384 109.348 738.193 102.921 746.682C97.8232 752.982 102.407 765.956 102.75 772.416C100.951 779.303 115.603 782.24 107.891 790.408C106.477 796.815 108.191 803.222 107.634 809.575C109.005 820.574 118.002 830.557 110.205 841.663C112.732 851.486 116.374 861.257 110.205 871.08C117.488 878.822 109.476 884.054 112.518 890.301C113.846 894.518 126.013 897.508 119.93 902.1C124.514 907.599 125.071 914.326 122.886 919.879C123.957 921.48 116.031 922.975 124.856 925.111C124.3 928.795 124.642 934.08 124.771 937.871C128.669 952.5 119.801 967.129 124.771 981.757C125.028 990.513 125.114 999.536 124.814 1008.29C119.93 1013.84 118.13 1017.05 121.044 1022.17C118.859 1025.38 126.784 1029.7 119.501 1032.69C117.873 1035.2 118.173 1036.38 114.917 1038.51C117.102 1044.54 115.174 1051.7 112.604 1059.01C114.446 1063.5 115.217 1067.07 113.118 1071.4C115.174 1071.56 112.861 1073.43 115.131 1074.34C119.544 1083.25 115.86 1096.44 115.003 1106.1C112.432 1121.85 115.388 1138.08 115.131 1153.78C116.374 1159.76 115.26 1164.99 112.475 1170.92C110.462 1175.51 105.877 1180.31 112.561 1184.91C120.444 1192.27 109.562 1200.07 112.389 1207.33C110.89 1217.63 116.502 1225.43 117.445 1236.27C116.502 1246.36 123.228 1250.47 122.457 1259.38C120.786 1268.99 119.373 1278.77 119.844 1288.38C115.645 1296.7 115.86 1305.14 119.844 1313.47C123.443 1322.76 119.844 1332.05 119.887 1341.34C116.888 1350.68 111.318 1359.12 117.188 1368.46C114.06 1371.18 114.617 1373.91 117.83 1376.52C120.529 1377.32 118.944 1378.34 120.829 1379.67C119.544 1384.26 120.401 1387.52 122.286 1392.86C119.673 1400.76 122.8 1406.63 124.128 1414.05C128.455 1427.3 124.814 1442.78 124.428 1456.45C125.071 1468.67 122.757 1464.51 131.54 1471.66C137.666 1475.56 130.512 1474.65 134.539 1479.35C131.84 1486.13 136.638 1494.25 134.41 1501.13C137.923 1513.89 133.768 1526.6 134.41 1539.36C139.251 1554.2 124.771 1568.67 128.884 1583.03C126.27 1595.26 117.359 1606.95 117.873 1619.18C115.474 1627.93 122.2 1632.26 111.447 1639.79C107.377 1646.3 94.9527 1653.29 100.094 1661.73C100.651 1674.33 100.308 1688.64 100.394 1701.45C100.565 1715.55 105.32 1735.09 98.0802 1747.63C97.5232 1762 95.3382 1776.57 95.5096 1791.73C102.621 1804.71 92.2536 1818 97.9516 1831.88C93.5389 1837.65 105.792 1844.38 97.8659 1850.04C106.606 1859.06 110.59 1859.7 109.905 1862.69C121.643 1869.52 110.29 1872.73 116.459 1878.65C124.214 1884.31 122.757 1888.32 117.316 1893.87C124.042 1897.66 122.928 1900.49 119.972 1904.23C106.52 1908.77 128.241 1914.8 119.844 1919.5C125.585 1930.07 119.458 1940.69 119.844 1951.26C118.387 1958.9 120.358 1975.08 119.93 1981.8C124.685 1986.23 133.468 1985.59 127.255 1988.32C123.357 1991.04 138.823 1993.71 132.011 1998.03C137.195 2007 149.748 2015.65 137.066 2023.98C140.408 2032.74 135.438 2043.25 142.293 2053.93C134.667 2064.61 136.552 2075.39 140.622 2084.79C143.878 2097.6 123.742 2105.4 129.526 2118.85C125.799 2135.14 133.51 2152.38 129.697 2168.56C118.601 2180.25 119.63 2192.69 124.171 2204.28C127.513 2209.08 123.271 2212.02 119.844 2216.08C111.875 2222.22 112.089 2227.82 114.874 2235.14C116.117 2246.46 109.862 2258.79 115.046 2270.11C111.875 2281.69 116.759 2287.51 107.591 2299.31C111.275 2303.58 103.307 2311.8 107.505 2315.6C106.349 2320.83 114.103 2322.75 112.732 2328.89C114.36 2337.06 114.66 2347.1 112.561 2355.37C115.003 2355.37 150.176 2349.34 153.86 2349.34C157.802 2343.14 157.973 2339.99 161.186 2331.08C160.758 2325.21 159.987 2319.39 161.186 2313.51C161.143 2304.81 162.514 2291.73 159.772 2284.52C153.689 2281.37 156.517 2280.36 155.103 2276.46C145.635 2271.87 150.519 2267.81 153.903 2262.9C155.274 2254.89 157.502 2250.14 157.545 2243.25C159.858 2237.11 167.356 2235.08 160.758 2227.88C169.198 2225.37 170.012 2227.93 170.74 2228.04C169.155 2220.51 176.31 2212.02 172.668 2203.96C171.854 2196.96 175.795 2191.09 175.838 2183.72C184.749 2165.57 178.066 2146.62 173.91 2129.1C161.101 2114.53 172.882 2096.96 173.353 2082.07C173.482 2066.91 175.496 2054.89 165.942 2039.84C157.502 2026.7 167.955 2010.05 165.642 1997.66C160.758 1993.65 171.768 1994.14 161.658 1991.52C154.46 1988.21 161.401 1983.94 159.987 1980.36C155.103 1977 156.816 1973.63 158.187 1970.27C168.255 1966.21 159.901 1959.59 156.474 1956.23C153.603 1950.68 144.221 1949.72 151.376 1942.24C158.016 1935.41 158.016 1928.47 151.547 1921.63C152.832 1914.74 145.549 1914.26 147.563 1909.03C142.165 1903.53 141.436 1892.64 139.765 1886.07C139.98 1879.72 141.865 1874.33 136.981 1868.08C136.595 1859.65 135.653 1850.57 127.855 1842.99C131.026 1837.81 117.059 1834.07 117.787 1828.84C114.574 1821.74 119.672 1807.59 117.488 1800.38C118.601 1789.07 112.389 1781.91 121.215 1771.77C134.539 1768.46 123.186 1765.36 123.743 1762.1C127.213 1758.58 122.928 1756.71 129.183 1753.45C130.983 1746.83 130.597 1735.73 134.025 1728.15C140.836 1718.86 135.267 1708.29 134.496 1698.89C135.567 1693.6 138.694 1686.5 134.153 1681.38C136.724 1670.49 140.194 1666.96 151.119 1661.84C153.303 1658.9 163.414 1654.1 163.157 1649.29C166.242 1645.82 160.929 1638.67 165.942 1634.61C166.884 1626.28 178.152 1617.9 173.011 1609.68C178.28 1604.28 170.183 1594.94 173.482 1589.49C170.783 1582.61 167.056 1578.02 168.341 1570.38C169.326 1564.45 167.527 1556.29 168.941 1550.47C174.467 1547.37 178.794 1544.75 172.968 1541.39C166.67 1536.42 169.198 1531.62 173.91 1526.71C184.921 1520.83 172.54 1514.32 178.023 1507.97C169.669 1501.08 184.835 1493.02 178.238 1486.02C184.193 1479.56 187.191 1473.1 178.238 1466.64C181.622 1456.71 180.037 1448.22 175.71 1438.61C172.539 1428.74 168.641 1414.96 176.31 1405.09C179.908 1398.25 184.492 1391.52 181.279 1384.64C182.779 1375.93 185.092 1368.09 186.892 1359.7C189.89 1352.82 189.291 1330.45 187.62 1323.72C172.711 1324.84 178.623 1302.79 180.722 1293.93C181.708 1278.18 179.223 1264.14 183.164 1248.28C183.55 1234.29 191.433 1224.15 189.933 1210.64C189.077 1200.66 194.817 1185.01 190.233 1174.92C189.376 1164.14 189.89 1154.42 181.194 1143.32C185.135 1130.5 184.921 1119.5 183.164 1106.85C182.136 1097.29 185.007 1087.74 183.164 1078.18C182.35 1073.69 187.277 1069.21 182.736 1064.83C180.765 1060.72 179.266 1057.04 178.752 1052.98C176.567 1050.47 178.366 1047.32 177.895 1044.92C177.038 1039.15 174.81 1034.93 170.012 1029.17C165.428 1024.2 165.985 1017.1 166.07 1011.6C165.471 1005.57 167.913 1001.35 165.128 995.158C162.043 986.456 162.6 980.903 155.103 973.375C149.748 959.44 152.361 940.113 151.59 924.684C146.32 909.361 151.933 897.508 146.62 883.413C141.008 875.779 137.538 868.357 134.881 860.135C127.727 855.277 133.639 848.229 134.624 843.318C138.309 832.853 138.437 825.325 131.154 815.288C134.796 809.575 129.955 803.062 129.612 796.922C125.071 795.107 126.57 793.024 130.126 791.209C132.397 790.035 130.34 789.234 134.282 787.312C130.683 782.24 133.725 776.474 130.854 772.256C130.083 757.574 134.025 742.624 132.225 727.675C134.068 718.492 126.399 709.309 132.182 700.126C137.709 686.832 134.239 675.033 136.381 664.408C132.782 657.147 151.975 646.736 146.277 637.66C141.179 625.647 146.834 614.275 149.191 602.85C155.06 593.4 158.23 583.416 155.703 573.539C161.529 563.235 169.369 547.698 166.113 534.831C168.555 531.147 160.672 530.56 161.186 526.876C158.445 522.551 165.856 513.956 161.358 508.937C161.701 499.487 174.21 486.407 159.044 478.772C156.388 472.045 155.317 472.899 153.903 463.128C155.917 456.615 156.774 450.742 156.602 444.282C154.16 440.011 154.375 435.579 156.517 431.308C160.415 423.033 150.947 419.349 160.158 412.195C158.445 401.944 160.073 390.465 168.77 379.467C173.268 363.236 185.049 345.03 178.452 327.572C176.395 315.292 180.08 303.012 178.28 290.733C178.28 278.453 174.725 266.173 178.366 253.894C186.249 243.109 184.407 226.985 176.952 217.055C175.196 208.512 169.327 203.013 171.083 192.923C161.315 181.23 173.097 169.484 171.083 157.792C174.468 145.673 175.71 129.762 171.254 117.857C169.284 111.61 156.474 110.969 164.143 105.951C153.346 100.612 166.242 91.3751 165.556 85.9828C160.33 69.165 179.009 52.2404 176.01 35.5828C183.636 24.3175 184.45 15.348 185.735 3.33526C185.521 -12.7351 186.463 -27.4707 180.208 -42.58C166.67 -56.7283 173.953 -68.9546 175.881 -84.2775C167.656 -90.6309 182.993 -96.2367 178.452 -102.697C172.882 -108.57 173.225 -114.603 178.366 -120.476C174.296 -120.476 165.171 -116.525 150.733 -112.521C140.58 -108.57 121.429 -104.566 123.1 -104.566L122.972 -104.726Z" fill="#a4cd46"/>
<path d="M133.232 2198.42L133.232 2436.5L411.273 2436.5C429.048 1646.71 473.89 33.8516 511.064 -99.2245C548.237 -232.301 274.665 -211.508 133.232 -184.477L152.276 275.052L105.047 743.938L133.232 936.274L152.276 1567.35L105.047 1797.11L152.276 2036.23L133.232 2198.42Z" fill="#a4cd46"/>
</mask>
<g mask="url(#mask0_15630_8605)">
<rect x="228.5" y="-342.324" width="2915.41" height="142" transform="rotate(90 228.5 -342.324)" fill="#a4cd46"/>
</g>
</g>
<defs>
<clipPath id="clip0_15630_8605">
<rect width="2000" height="191" fill="#a4cd46" transform="translate(191.5 0.5) rotate(90)"/>
</clipPath>
</defs>
</svg>
