<svg width="1712" height="49" viewBox="0 0 1712 49" fill="none" xmlns="http://www.w3.org/2000/svg">
<g clip-path="url(#clip0_15214_13170)">
<mask id="mask0_15214_13170" style="mask-type:luminance" maskUnits="userSpaceOnUse" x="0" y="0" width="1712" height="49">
<path d="M0 49H1712V0H0V49Z" fill="white"/>
</mask>
<g mask="url(#mask0_15214_13170)">
<path d="M-1 21.8745C4.02002 23.5857 20.8199 22.4041 16.4399 21.7522C16.5499 19.9188 26.9601 21.141 38.03 19.6743C49.11 16.7408 60.8201 24.8487 63.54 20.1225C70.9701 17.1482 78.26 27.4562 85.51 22.4041C92.76 19.3076 100.04 22.6486 107.48 24.7265C120.57 24.5228 134.4 36.2976 147.48 24.8487C155.07 22.4041 161.2 25.3784 168.93 22.2411C177.78 20.9373 186.96 31.6528 195.74 27.334C199.9 34.4234 201.54 26.1117 206 22.2411C209.01 21.6707 212.24 12.8295 215.22 22.5264C219.9 16.1704 223.8 16.9853 228.67 17.6779C233.92 20.4892 239.94 13.4406 245.25 17.8001C249.9 14.0925 255.18 17.1482 259.72 17.9223C260.68 17.026 261.83 17.3927 262.21 16.0481C268.42 21.0596 274.7 8.1439 280.76 10.833C290.72 9.9774 300.83 9.0403 310.8 10.8738C319.98 14.7851 329.31 9.1625 338.45 10.9552C346 16.9037 352.88 5.6586 360.24 6.7179C365.63 4.9252 369.61 3.0918 373.59 8.9181C377.04 16.9852 379.76 9.6922 383.92 16.9445C391.39 19.1446 397.34 28.2304 405.86 24.7672C416.52 32.3454 425.15 39.1496 435.97 29.3712C441.92 29.5342 446.45 27.823 452.06 27.0081C458.79 31.2861 462.03 33.0788 468.39 31.1231C479.87 35.9716 489.72 39.6385 501.62 38.4977C508.39 44.7314 514.15 50.7614 521.14 43.3461C523.52 45.3833 528.87 42.6128 530.88 42.9794C532.33 39.2718 532.29 37.5198 533.67 37.2346C538.02 33.0381 553.18 35.4827 557.87 36.7865C563.48 40.3312 568.24 39.557 573.89 40.9831C579.8 44.6092 585.94 34.8308 591.85 40.9423C596.23 45.7907 605.27 41.4312 609.77 41.1053C614.56 42.8165 616.61 28.8823 622.29 36.216C626.76 37.5606 631.22 35.9309 635.64 36.4606C643.3 35.1568 650.25 26.6007 657.98 34.0159C664.82 31.6121 671.63 28.1489 678.47 34.0159C683.86 27.0896 687.5 34.7086 691.85 31.8158C694.79 30.5528 696.87 18.9816 700.07 24.7672C703.9 20.4077 708.58 19.878 712.446 21.9559C713.562 20.9373 714.603 28.4749 716.09 20.0817C718.655 20.6114 722.335 20.2855 724.975 20.1632C735.161 16.4556 745.347 24.8895 755.533 20.1632C761.63 19.9188 767.913 19.8373 774.01 20.1225C777.876 24.7672 780.107 26.4784 783.676 23.7079C785.906 25.7858 788.918 18.2483 790.999 25.1746C792.747 26.7229 793.565 26.4377 795.052 29.5341C799.253 27.4562 804.234 29.2897 809.327 31.7343C812.45 29.9824 814.941 29.249 817.952 31.2454C818.064 29.2897 819.365 31.4899 819.997 29.3305C826.205 25.1339 835.388 28.6378 842.117 29.4527C853.083 31.8973 864.385 29.086 875.315 29.3305C879.479 28.1489 883.122 29.2082 887.248 31.8565C890.445 33.7715 893.791 38.131 896.989 31.775C902.119 24.2783 907.547 34.6271 912.602 31.9381C919.777 33.3641 925.205 28.0267 932.752 27.1303C939.778 28.0267 942.641 21.63 948.849 22.3634C955.541 23.9523 962.344 25.2969 969.036 24.8487C974.835 28.8415 980.709 28.6378 986.509 24.8487C992.977 21.4263 999.446 24.8487 1005.91 24.808C1012.42 27.66 1018.29 32.9566 1024.8 27.3748C1026.7 30.349 1028.59 29.8194 1030.41 26.7636C1030.97 24.1968 1031.68 25.7043 1032.61 23.9116C1035.8 25.1339 1038.07 24.3191 1041.79 22.5264C1047.29 25.0117 1051.38 22.0374 1056.55 20.7744C1065.77 16.6593 1076.55 20.1225 1086.07 20.4892C1094.58 19.878 1091.68 22.0782 1096.66 13.7258C1099.38 7.8995 1098.74 14.7036 1102.02 10.8738C1106.74 13.4406 1112.39 8.8774 1117.18 10.996C1126.07 7.6551 1134.92 11.6072 1143.8 10.996C1154.14 6.392 1164.21 20.1632 1174.21 16.2519C1182.72 18.7372 1190.87 27.2118 1199.38 26.7229C1205.48 29.0045 1208.49 22.6078 1213.73 32.8344C1218.26 36.705 1223.13 48.5206 1229.01 43.6314C1237.78 43.1017 1247.74 43.4276 1256.67 43.3461C1266.48 43.1831 1280.09 38.6607 1288.82 45.5463C1298.83 46.076 1308.97 48.1539 1319.53 47.9909C1328.57 41.2275 1337.82 51.0874 1347.49 45.6685C1351.5 49.8651 1356.19 38.2125 1360.13 45.75C1366.41 37.4384 1366.86 33.6493 1368.94 34.3012C1373.7 23.1375 1375.93 33.9344 1380.05 28.0674C1383.99 20.6929 1386.78 22.0781 1390.65 27.2525C1393.29 20.8558 1395.26 21.9152 1397.86 24.7265C1401.02 37.5199 1405.22 16.863 1408.49 24.8487C1415.85 19.3891 1423.25 25.2154 1430.61 24.8487C1435.93 26.234 1447.2 24.3598 1451.88 24.7672C1454.96 20.2447 1454.52 11.8923 1456.41 17.8001C1458.31 21.5078 1460.17 6.7994 1463.18 13.2776C1469.43 8.3477 1475.45 -3.5901 1481.25 8.4699C1487.35 5.2919 1494.67 10.0181 1502.1 3.4992C1509.54 10.7515 1517.05 8.9588 1523.59 5.0882C1532.51 1.9917 1537.94 21.1411 1547.31 15.6407C1558.65 19.1854 1570.66 11.8516 1581.92 15.4777C1590.06 26.0302 1598.72 25.0524 1606.79 20.7336C1610.14 17.5557 1612.18 21.5892 1615.01 24.8487C1619.28 32.4269 1623.19 32.2232 1628.28 29.5749C1636.16 28.3934 1644.75 34.3419 1652.63 29.4119C1660.7 32.4269 1664.75 27.7822 1672.97 36.5013C1675.94 32.9974 1681.66 40.5756 1684.3 36.5828C1687.95 37.6829 1689.29 30.3083 1693.56 31.6121C1699.25 30.0639 1706.24 29.7786 1712 31.775C1712 29.4527 1712 9.1345 1712 5.6305C1707.69 1.8822 1701.29 -11.4128 1695.08 -14.4686C1691 -14.0611 1686.94 -13.3277 1682.85 -14.4686C1676.79 -14.4278 1667.69 -15.7316 1662.67 -13.124C1660.47 -7.3385 1659.77 -10.0275 1657.05 -8.683C1653.86 0.321301 1651.03 -4.3235 1647.61 -7.5422C1642.03 -8.846 1638.73 -10.9647 1633.93 -11.0054C1629.65 -13.2056 1628.24 -20.3356 1623.22 -14.0612C1621.48 -22.0876 1623.26 -22.8617 1623.33 -23.5543C1618.09 -22.0468 1612.18 -28.851 1606.57 -25.3878C1601.7 -24.6137 1597.61 -28.362 1592.48 -28.4027C1579.84 -36.8774 1566.64 -30.5214 1554.45 -26.5693C1544.3 -14.3871 1532.07 -25.5915 1521.7 -26.0397C1511.14 -26.1619 1502.77 -28.0768 1492.29 -18.9911C1483.14 -10.9646 1471.54 -20.906 1462.92 -18.7059C1460.13 -14.0612 1460.47 -24.5322 1458.65 -14.9167C1456.34 -8.0719 1453.37 -14.6723 1450.88 -13.3278C1448.53 -8.683 1446.19 -10.3128 1443.85 -11.6165C1441.02 -21.1912 1436.41 -13.2463 1434.07 -9.9868C1430.2 -7.257 1429.54 1.6658 1424.33 -5.1384C1419.57 -11.4536 1414.74 -11.4536 1409.98 -5.3013C1405.19 -6.5236 1404.85 0.402702 1401.21 -1.5122C1397.38 3.6214 1389.79 4.3141 1385.22 5.9031C1380.8 5.6994 1377.04 3.9066 1372.69 8.5514C1366.82 8.9181 1360.5 9.8144 1355.22 17.2297C1351.62 14.2147 1349.01 27.497 1345.37 26.8044C1340.42 29.8601 1330.57 25.0117 1325.55 27.0896C1317.67 26.0303 1312.69 31.9381 1305.63 23.5449C1303.32 10.8738 1301.17 21.6707 1298.9 21.141C1296.45 17.8408 1295.14 21.9152 1292.88 15.9667C1288.27 14.2555 1280.53 14.6221 1275.26 11.3627C1268.79 4.8845 1261.43 10.1811 1254.88 10.9145C1251.2 9.8959 1246.26 6.9217 1242.69 11.2405C1235.1 8.7959 1232.65 5.4956 1229.08 -4.8939C1227.04 -6.9718 1223.69 -16.5872 1220.35 -16.3428C1217.93 -19.2763 1212.95 -14.2241 1210.12 -18.9911C1204.32 -19.8874 1198.49 -30.6029 1192.76 -25.7137C1189.01 -30.7252 1182.5 -23.0247 1178.71 -26.1619C1173.91 -23.5951 1170.72 -20.0504 1165.4 -21.2727C1161.27 -22.2098 1155.59 -20.4986 1151.53 -21.8431C1149.38 -27.099 1147.55 -31.214 1145.21 -25.673C1141.76 -19.6837 1138.41 -22.0876 1134.99 -26.5693C1130.9 -37.0403 1126.36 -25.2656 1121.94 -30.4807C1117.14 -22.5358 1111.53 -36.9589 1106.66 -30.6844C1102.16 -36.3477 1097.66 -39.1998 1093.17 -30.6844C1086.25 -33.9031 1080.34 -32.3956 1073.65 -28.2805C1066.77 -25.2655 1057.18 -21.5579 1050.3 -28.8509C1045.54 -32.2734 1039.41 -17.4021 1034.62 -14.3464C1028.56 -15.7724 1023.09 -17.9725 1017.26 -19.6838C1012.46 -22.5358 996.883 -21.9654 992.199 -20.3764C992.98 -6.1977 977.626 -11.8203 971.455 -13.8168C960.488 -14.7539 950.71 -12.3907 939.669 -16.1391C929.929 -16.5058 922.865 -24.0026 913.46 -22.5766C906.508 -21.7617 895.615 -27.2213 888.589 -22.8617C881.08 -22.0469 874.314 -22.5358 866.581 -14.2649C857.659 -18.0133 850 -17.8096 841.19 -16.1391C834.535 -15.1613 827.881 -17.8911 821.226 -16.1391C818.103 -15.365 814.981 -20.0504 811.932 -15.7316C809.07 -13.8575 806.504 -12.4315 803.679 -11.9426C801.932 -9.8646 799.738 -11.5759 798.065 -11.1277C794.05 -10.3128 792.561 -27.425 788.546 -22.8617C785.088 -18.5022 780.144 -19.0318 776.315 -19.1133C772.114 -18.5429 769.177 -20.8652 764.865 -18.2169C758.805 -15.2834 754.939 -15.8131 749.697 -8.683C739.994 -3.5901 726.536 -6.0755 715.792 -5.3421C705.12 -0.330696 696.87 -5.668 687.06 -0.615898C681.74 4.7215 676.57 8.0217 670.85 10.5478C667.46 17.352 662.56 11.7294 659.14 10.7923C651.85 7.2883 646.61 7.1661 639.62 14.0925C635.64 10.6293 631.11 15.2333 626.83 15.5592C625.57 19.878 624.12 18.452 622.85 15.0703C622.03 12.9109 621.48 14.8666 620.14 11.1182C616.61 14.5407 612.59 11.6479 609.65 14.3777C599.43 15.1111 589.02 11.3627 578.61 13.0739C572.22 11.3219 565.82 18.615 559.43 13.1146C550.17 7.8587 541.96 11.1589 534.56 9.1218C529.5 12.5442 522.25 -5.7088 515.93 -0.289902C507.57 4.5585 499.65 -0.819603 491.69 -3.0605C485.11 -8.6423 478.16 -11.6573 471.29 -9.2534C464.11 -14.7945 453.29 -22.2506 444.33 -19.1541C441.77 -21.4764 441.36 -13.9796 438.79 -14.4686C435.78 -11.861 429.8 -18.9096 426.3 -14.6316C419.72 -14.9575 410.61 -26.8545 405.3 -12.4314C400.61 -9.9053 401.21 -8.8867 394.4 -7.5422C389.87 -9.4571 385.78 -10.272 381.28 -10.1091C378.31 -7.7867 375.22 -7.9904 372.25 -10.0276C366.49 -13.7352 363.92 -4.7309 358.94 -13.4908C351.8 -11.861 339.17 -10.8832 331.51 -19.1541C328.39 -16.628 311.91 -18.6859 299.75 -12.4114C291.2 -10.4557 282.65 -13.9597 274.1 -12.2484C265.55 -12.2484 257 -8.8668 248.45 -12.33C240.94 -19.8267 229.71 -18.0748 222.8 -10.9854C216.85 -9.3149 213.02 -3.7331 206 -5.4036C197.85 3.8859 189.68 -7.3185 181.53 -5.4036C173.1 -8.6223 162.02 -9.8039 153.73 -5.5666C149.38 -3.6924 149.19 -9.9868 145.7 -17.2798C141.98 -7.0125 134.02 -13.0633 130.27 -12.4114C118.56 -7.4407 113.34 -8.2556 101.74 -5.4036C93.9 -12.6559 87.65 -13.4301 79.29 -14.6524C68.1001 -14.4486 57.84 -15.345 47.3199 -9.3964C37.46 3.4784 28.9501 -3.4479 18.28 -5.2814C13.86 2.5413 9.94995 -12.0447 5.45996 -7.7259C1.37 -2.4293 11.7899 -3.6034 7.69995 -8.4926C7.69995 -8.4926 0.410034 -21.607 0.410034 -4.4574C0.410034 5.1261 -0.890015 23.3412 -0.890015 21.7522L-1 21.8745Z" fill="white"/>
<path d="M1551.31 12.0839H1712V-36.2329C1178.95 -41.7069 96.1899 -16.1164 5.68994 -13.5488C0.579956 -13.4039 0.579956 -28.667 0.579956 12.0839L358.25 -1.93389L569.65 20.7641L699.46 12.0839L1125.39 6.21891L1337.25 34.3828L1509.24 -7.98659L1551.31 12.0839Z" fill="white"/>
</g>
</g>
<defs>
<clipPath id="clip0_15214_13170">
<rect width="1712" height="49" fill="white" transform="matrix(-1 0 0 -1 1712 49)"/>
</clipPath>
</defs>
</svg>
