<svg width="29" height="29" viewBox="0 0 29 29" fill="none" xmlns="http://www.w3.org/2000/svg">
<path d="M19.0048 17.5467C18.9637 17.5467 18.923 17.5387 18.8851 17.523C18.8471 17.5073 18.8127 17.4842 18.7836 17.4552C18.7546 17.4261 18.7316 17.3917 18.7158 17.3537C18.7001 17.3158 18.6921 17.2751 18.6921 17.234L18.6921 10.0337L9.50302 19.2228C9.44442 19.2814 9.36493 19.3143 9.28205 19.3143C9.19917 19.3143 9.11968 19.2814 9.06108 19.2228C9.00247 19.1642 8.96955 19.0847 8.96955 19.0018C8.96955 18.9189 9.00247 18.8394 9.06108 18.7808L18.2502 9.59176L11.0498 9.59176C11.0088 9.59176 10.9681 9.58368 10.9302 9.56796C10.8922 9.55225 10.8578 9.52922 10.8287 9.50018C10.7997 9.47115 10.7767 9.43668 10.7609 9.39874C10.7452 9.36081 10.7371 9.32015 10.7371 9.27909C10.7371 9.23803 10.7452 9.19737 10.7609 9.15943C10.7767 9.1215 10.7997 9.08703 10.8287 9.058C10.8578 9.02896 10.8922 9.00593 10.9302 8.99022C10.9681 8.9745 11.0088 8.96641 11.0498 8.96642L19.0048 8.96642C19.0458 8.96639 19.0865 8.97446 19.1245 8.99017C19.1624 9.00587 19.1969 9.02891 19.2259 9.05794C19.255 9.08698 19.278 9.12146 19.2937 9.15941C19.3094 9.19735 19.3175 9.23802 19.3174 9.27909L19.3174 17.234C19.3175 17.2751 19.3094 17.3158 19.2937 17.3537C19.278 17.3917 19.255 17.4261 19.2259 17.4552C19.1969 17.4842 19.1624 17.5073 19.1245 17.523C19.0865 17.5387 19.0458 17.5467 19.0048 17.5467Z" fill="#161938"/>
</svg>
