<svg width="16" height="16" viewBox="0 0 16 16" fill="none" xmlns="http://www.w3.org/2000/svg">
<path d="M5.15691 13.07L9.76791 8.38503C9.86904 8.28281 9.92576 8.14482 9.92576 8.00103C9.92576 7.85724 9.86904 7.71925 9.76791 7.61703L5.15791 2.93103C5.05731 2.82792 5.001 2.68958 5.001 2.54553C5.001 2.40148 5.05731 2.26313 5.15791 2.16003C5.20729 2.10938 5.26631 2.06913 5.33148 2.04164C5.39666 2.01416 5.46668 2 5.53741 2C5.60815 2 5.67817 2.01416 5.74334 2.04164C5.80852 2.06913 5.86754 2.10938 5.91691 2.16003L10.5269 6.84403C10.8298 7.15255 10.9996 7.56765 10.9996 8.00003C10.9996 8.4324 10.8298 8.8475 10.5269 9.15603L5.91691 13.84C5.86752 13.8908 5.80844 13.9312 5.74317 13.9588C5.6779 13.9864 5.60777 14.0006 5.53691 14.0006C5.46606 14.0006 5.39592 13.9864 5.33065 13.9588C5.26538 13.9312 5.20631 13.8908 5.15691 13.84C5.05631 13.7369 5 13.5986 5 13.4545C5 13.3105 5.05631 13.1721 5.15691 13.069" fill="#2F476F"/>
</svg>
