<svg width="20" height="20" viewBox="0 0 20 20" fill="none" xmlns="http://www.w3.org/2000/svg">
<path fill-rule="evenodd" clip-rule="evenodd" d="M5.7154 1.92969C3.62461 1.92969 1.92969 3.62461 1.92969 5.7154V14.2868C1.92969 16.3776 3.62461 18.0725 5.7154 18.0725H14.2868C16.3776 18.0725 18.0725 16.3776 18.0725 14.2868V5.7154C18.0725 3.62461 16.3776 1.92969 14.2868 1.92969H5.7154ZM0.929688 5.7154C0.929688 3.07232 3.07232 0.929688 5.7154 0.929688H14.2868C16.9299 0.929688 19.0725 3.07232 19.0725 5.7154V14.2868C19.0725 16.9299 16.9299 19.0725 14.2868 19.0725H5.7154C3.07232 19.0725 0.929688 16.9299 0.929688 14.2868V5.7154ZM10.4678 7.06698C9.85845 6.97662 9.23615 7.0807 8.68939 7.3644C8.14262 7.64811 7.69924 8.09699 7.4223 8.64721C7.14536 9.19743 7.04896 9.82097 7.14682 10.4291C7.24468 11.0373 7.53182 11.5991 7.96739 12.0347C8.40295 12.4703 8.96477 12.7574 9.57294 12.8552C10.1811 12.9531 10.8046 12.8567 11.3549 12.5798C11.9051 12.3028 12.354 11.8594 12.6377 11.3127C12.9214 10.7659 13.0254 10.1436 12.9351 9.5343C12.8429 8.91276 12.5533 8.33735 12.109 7.89306C11.6647 7.44876 11.0893 7.15914 10.4678 7.06698ZM8.22882 6.47678C8.96228 6.0962 9.79707 5.95658 10.6145 6.07779C11.4482 6.20143 12.2201 6.58994 12.8161 7.18595C13.4121 7.78196 13.8006 8.55385 13.9243 9.38761C14.0455 10.205 13.9059 11.0398 13.5253 11.7733C13.1447 12.5067 12.5425 13.1015 11.8044 13.473C11.0663 13.8445 10.2299 13.9738 9.41407 13.8425C8.59824 13.7113 7.84458 13.3261 7.26028 12.7418C6.67598 12.1575 6.2908 11.4038 6.15952 10.588C6.02824 9.77217 6.15756 8.93572 6.52906 8.19762C6.90057 7.45952 7.49535 6.85736 8.22882 6.47678ZM14.7154 4.78683C14.4393 4.78683 14.2154 5.01069 14.2154 5.28683C14.2154 5.56297 14.4393 5.78683 14.7154 5.78683H14.7236C14.9997 5.78683 15.2236 5.56297 15.2236 5.28683C15.2236 5.01069 14.9997 4.78683 14.7236 4.78683H14.7154Z" fill="#2F476F"/>
</svg>
