<svg width="131" height="131" viewBox="0 0 131 131" fill="none" xmlns="http://www.w3.org/2000/svg">
<path d="M88.4806 60.567L58.9289 42.7C58.0934 42.1947 57.165 41.956 56.2317 42.0067C55.2985 42.0574 54.3915 42.3957 53.5969 42.9896C52.8024 43.5835 52.1467 44.4131 51.6921 45.3997C51.2376 46.3863 50.9993 47.497 51 48.6262V82.3738C50.9993 83.503 51.2376 84.6137 51.6921 85.6003C52.1467 86.5869 52.8024 87.4165 53.5969 88.0104C54.3915 88.6043 55.2985 88.9426 56.2317 88.9933C57.165 89.044 58.0934 88.8053 58.9289 88.3L88.4806 70.433C89.2378 69.9743 89.8745 69.2699 90.3194 68.3987C90.7643 67.5275 91 66.5238 91 65.5C91 64.4762 90.7643 63.4725 90.3194 62.6013C89.8745 61.7301 89.2378 61.0257 88.4806 60.567Z" stroke="#A4CD46" stroke-linecap="round" stroke-linejoin="round"/>
<path d="M65.5 114.625C92.631 114.625 114.625 92.631 114.625 65.5C114.625 38.369 92.631 16.375 65.5 16.375C38.369 16.375 16.375 38.369 16.375 65.5C16.375 92.631 38.369 114.625 65.5 114.625Z" stroke="#A4CD46"/>
</svg>
